999
dxflib 2.2.0.0
  0
SECTION
  2
HEADER
  9
$ACADVER
  1
AC1015
  9
$HANDSEED
  5
FFFF
  9
$DIMASZ
 40
2.5
  9
$PLIMMIN
 10
0.0
 20
0.0
  9
$DIMEXE
 40
1.25
  9
$DIMGAP
 40
0.625
  9
$PLIMMAX
 10
210.0
 20
297.0
  9
$INSUNITS
 70
4
  9
$DIMEXO
 40
0.625
  9
$DIMTXT
 40
2.5
  9
$CLAYER
  8
0
  0
ENDSEC
  0
SECTION
  2
TABLES
  0
TABLE
  2
VPORT
  5
8
100
AcDbSymbolTable
 70
1
  0
VPORT
  5
30
100
AcDbSymbolTableRecord
100
AcDbViewportTableRecord
  2
*Active
 70
0
 10
0.0
 20
0.0
 11
1.0
 21
1.0
 12
286.3055555555554861
 22
148.5
 13
0.0
 23
0.0
 14
10.0
 24
10.0
 15
10.0
 25
10.0
 16
0.0
 26
0.0
 36
1.0
 17
0.0
 27
0.0
 37
0.0
 40
297.0
 41
1.92798353909465
 42
50.0
 43
0.0
 44
0.0
 50
0.0
 51
0.0
 71
0
 72
100
 73
1
 74
3
 75
1
 76
1
 77
0
 78
0
281
0
 65
1
110
0.0
120
0.0
130
0.0
111
1.0
121
0.0
131
0.0
112
0.0
122
1.0
132
0.0
 79
0
146
0.0
  0
ENDTAB
  0
TABLE
  2
LTYPE
  5
5
100
AcDbSymbolTable
 70
21
  0
LTYPE
  5
14
100
AcDbSymbolTableRecord
100
AcDbLinetypeTableRecord
  2
ByBlock
 70
0
  3

 72
65
 73
0
 40
0.0
  0
LTYPE
  5
15
100
AcDbSymbolTableRecord
100
AcDbLinetypeTableRecord
  2
ByLayer
 70
0
  3

 72
65
 73
0
 40
0.0
  0
LTYPE
  5
16
100
AcDbSymbolTableRecord
100
AcDbLinetypeTableRecord
  2
CONTINUOUS
 70
0
  3
Solid line
 72
65
 73
0
 40
0.0
  0
LTYPE
  5
31
100
AcDbSymbolTableRecord
100
AcDbLinetypeTableRecord
  2
DOT
 70
0
  3
Dot . . . . . . . . . . . . . . . . . . . . . .
 72
65
 73
2
 40
6.3499999999999996
 49
0.0
 74
0
 49
-6.3499999999999996
 74
0
  0
LTYPE
  5
32
100
AcDbSymbolTableRecord
100
AcDbLinetypeTableRecord
  2
DOT2
 70
0
  3
Dot (.5x) .....................................
 72
65
 73
2
 40
3.1749999999999998
 49
0.0
 74
0
 49
-3.1749999999999998
 74
0
  0
LTYPE
  5
33
100
AcDbSymbolTableRecord
100
AcDbLinetypeTableRecord
  2
DOTX2
 70
0
  3
Dot (2x) .  .  .  .  .  .  .  .  .  .  .  .  .
 72
65
 73
2
 40
12.6999999999999993
 49
0.0
 74
0
 49
-12.6999999999999993
 74
0
  0
LTYPE
  5
34
100
AcDbSymbolTableRecord
100
AcDbLinetypeTableRecord
  2
DASHED
 70
0
  3
Dashed __ __ __ __ __ __ __ __ __ __ __ __ __ _
 72
65
 73
2
 40
19.0500000000000007
 49
12.6999999999999993
 74
0
 49
-6.3499999999999996
 74
0
  0
LTYPE
  5
35
100
AcDbSymbolTableRecord
100
AcDbLinetypeTableRecord
  2
DASHED2
 70
0
  3
Dashed (.5x) _ _ _ _ _ _ _ _ _ _ _ _ _ _ _ _ _
 72
65
 73
2
 40
9.5250000000000004
 49
6.3499999999999996
 74
0
 49
-3.1749999999999998
 74
0
  0
LTYPE
  5
36
100
AcDbSymbolTableRecord
100
AcDbLinetypeTableRecord
  2
DASHEDX2
 70
0
  3
Dashed (2x) ____  ____  ____  ____  ____  ___
 72
65
 73
2
 40
38.1000000000000014
 49
25.3999999999999986
 74
0
 49
-12.6999999999999993
 74
0
  0
LTYPE
  5
37
100
AcDbSymbolTableRecord
100
AcDbLinetypeTableRecord
  2
DASHDOT
 70
0
  3
Dash dot __ . __ . __ . __ . __ . __ . __ . __
 72
65
 73
4
 40
25.3999999999999986
 49
12.6999999999999993
 74
0
 49
-6.3499999999999996
 74
0
 49
0.0
 74
0
 49
-6.3499999999999996
 74
0
  0
LTYPE
  5
38
100
AcDbSymbolTableRecord
100
AcDbLinetypeTableRecord
  2
DASHDOT2
 70
0
  3
Dash dot (.5x) _._._._._._._._._._._._._._._.
 72
65
 73
4
 40
12.6999999999999993
 49
6.3499999999999996
 74
0
 49
-3.1749999999999998
 74
0
 49
0.0
 74
0
 49
-3.1749999999999998
 74
0
  0
LTYPE
  5
39
100
AcDbSymbolTableRecord
100
AcDbLinetypeTableRecord
  2
DASHDOTX2
 70
0
  3
Dash dot (2x) ____  .  ____  .  ____  .  ___
 72
65
 73
4
 40
50.7999999999999972
 49
25.3999999999999986
 74
0
 49
-12.6999999999999993
 74
0
 49
0.0
 74
0
 49
-12.6999999999999993
 74
0
  0
LTYPE
  5
3A
100
AcDbSymbolTableRecord
100
AcDbLinetypeTableRecord
  2
DIVIDE
 70
0
  3
Divide ____ . . ____ . . ____ . . ____ . . ____
 72
65
 73
6
 40
31.75
 49
12.6999999999999993
 74
0
 49
-6.3499999999999996
 74
0
 49
0.0
 74
0
 49
-6.3499999999999996
 74
0
 49
0.0
 74
0
 49
-6.3499999999999996
 74
0
  0
LTYPE
  5
3B
100
AcDbSymbolTableRecord
100
AcDbLinetypeTableRecord
  2
DIVIDE2
 70
0
  3
Divide (.5x) __..__..__..__..__..__..__..__.._
 72
65
 73
6
 40
15.875
 49
6.3499999999999996
 74
0
 49
-3.1749999999999998
 74
0
 49
0.0
 74
0
 49
-3.1749999999999998
 74
0
 49
0.0
 74
0
 49
-3.1749999999999998
 74
0
  0
LTYPE
  5
3C
100
AcDbSymbolTableRecord
100
AcDbLinetypeTableRecord
  2
DIVIDEX2
 70
0
  3
Divide (2x) ________  .  .  ________  .  .  _
 72
65
 73
6
 40
63.5
 49
25.3999999999999986
 74
0
 49
-12.6999999999999993
 74
0
 49
0.0
 74
0
 49
-12.6999999999999993
 74
0
 49
0.0
 74
0
 49
-12.6999999999999993
 74
0
  0
LTYPE
  5
3D
100
AcDbSymbolTableRecord
100
AcDbLinetypeTableRecord
  2
CENTER
 70
0
  3
Center ____ _ ____ _ ____ _ ____ _ ____ _ ____
 72
65
 73
4
 40
50.7999999999999972
 49
31.75
 74
0
 49
-6.3499999999999996
 74
0
 49
6.3499999999999996
 74
0
 49
-6.3499999999999996
 74
0
  0
LTYPE
  5
3E
100
AcDbSymbolTableRecord
100
AcDbLinetypeTableRecord
  2
CENTER2
 70
0
  3
Center (.5x) ___ _ ___ _ ___ _ ___ _ ___ _ ___
 72
65
 73
4
 40
28.5749999999999993
 49
19.0500000000000007
 74
0
 49
-3.1749999999999998
 74
0
 49
3.1749999999999998
 74
0
 49
-3.1749999999999998
 74
0
  0
LTYPE
  5
3F
100
AcDbSymbolTableRecord
100
AcDbLinetypeTableRecord
  2
CENTERX2
 70
0
  3
Center (2x) ________  __  ________  __  _____
 72
65
 73
4
 40
101.5999999999999943
 49
63.5
 74
0
 49
-12.6999999999999993
 74
0
 49
12.6999999999999993
 74
0
 49
-12.6999999999999993
 74
0
  0
LTYPE
  5
40
100
AcDbSymbolTableRecord
100
AcDbLinetypeTableRecord
  2
BORDER
 70
0
  3
Border __ __ . __ __ . __ __ . __ __ . __ __ .
 72
65
 73
6
 40
44.4500000000000028
 49
12.6999999999999993
 74
0
 49
-6.3499999999999996
 74
0
 49
12.6999999999999993
 74
0
 49
-6.3499999999999996
 74
0
 49
0.0
 74
0
 49
-6.3499999999999996
 74
0
  0
LTYPE
  5
41
100
AcDbSymbolTableRecord
100
AcDbLinetypeTableRecord
  2
BORDER2
 70
0
  3
Border (.5x) __.__.__.__.__.__.__.__.__.__.__.
 72
65
 73
6
 40
22.2250000000000014
 49
6.3499999999999996
 74
0
 49
-3.1749999999999998
 74
0
 49
6.3499999999999996
 74
0
 49
-3.1749999999999998
 74
0
 49
0.0
 74
0
 49
-3.1749999999999998
 74
0
  0
LTYPE
  5
42
100
AcDbSymbolTableRecord
100
AcDbLinetypeTableRecord
  2
BORDERX2
 70
0
  3
Border (2x) ____  ____  .  ____  ____  .  ___
 72
65
 73
6
 40
88.9000000000000057
 49
25.3999999999999986
 74
0
 49
-12.6999999999999993
 74
0
 49
25.3999999999999986
 74
0
 49
-12.6999999999999993
 74
0
 49
0.0
 74
0
 49
-12.6999999999999993
 74
0
  0
ENDTAB
  0
TABLE
  2
LAYER
  5
2
100
AcDbSymbolTable
 70
2
  0
LAYER
  5
10
100
AcDbSymbolTableRecord
100
AcDbLayerTableRecord
  2
0
 70
0
 62
7
420
0
  6
CONTINUOUS
370
25
390
F
  0
LAYER
  5
43
100
AcDbSymbolTableRecord
100
AcDbLayerTableRecord
  2
Dimension
 70
1
 62
-5
420
255
  6
CONTINUOUS
370
0
390
F
  0
ENDTAB
  0
TABLE
  2
STYLE
  5
3
100
AcDbSymbolTable
 70
1
  0
STYLE
  5
11
100
AcDbSymbolTableRecord
100
AcDbTextStyleTableRecord
  2
Standard
 70
0
 40
0.0
 41
0.75
 50
0.0
 71
0
 42
2.5
  3
txt
  4

  0
ENDTAB
  0
TABLE
  2
VIEW
  5
6
100
AcDbSymbolTable
 70
0
  0
ENDTAB
  0
TABLE
  2
UCS
  5
7
100
AcDbSymbolTable
 70
0
  0
ENDTAB
  0
TABLE
  2
APPID
  5
9
100
AcDbSymbolTable
 70
1
  0
APPID
  5
12
100
AcDbSymbolTableRecord
100
AcDbRegAppTableRecord
  2
ACAD
 70
0
  0
ENDTAB
  0
TABLE
  2
DIMSTYLE
  5
A
100
AcDbSymbolTable
 70
1
100
AcDbDimStyleTable
 71
0
  0
DIMSTYLE
105
27
100
AcDbSymbolTableRecord
100
AcDbDimStyleTableRecord
  2
Standard
 41
2.5
 42
0.625
 43
3.75
 44
1.25
 70
0
 73
0
 74
0
 77
1
 78
8
140
2.5
141
2.5
143
0.03937007874016
147
0.625
171
3
172
1
271
2
272
2
274
3
278
44
283
0
284
8
340
11
  0
ENDTAB
  0
TABLE
  2
BLOCK_RECORD
  5
1
100
AcDbSymbolTable
 70
1
  0
BLOCK_RECORD
  5
1F
100
AcDbSymbolTableRecord
100
AcDbBlockTableRecord
  2
*Model_Space
340
22
  0
BLOCK_RECORD
  5
1B
100
AcDbSymbolTableRecord
100
AcDbBlockTableRecord
  2
*Paper_Space
340
1E
  0
BLOCK_RECORD
  5
23
100
AcDbSymbolTableRecord
100
AcDbBlockTableRecord
  2
*Paper_Space0
340
26
  0
ENDTAB
  0
ENDSEC
  0
SECTION
  2
BLOCKS
  0
BLOCK
  5
20
100
AcDbEntity
  8
0
100
AcDbBlockBegin
  2
*Model_Space
 70
0
 10
0.0
 20
0.0
 30
0.0
  3
*Model_Space
  1

  0
ENDBLK
  5
21
100
AcDbEntity
  8
0
100
AcDbBlockEnd
  0
BLOCK
  5
1C
100
AcDbEntity
 67
1
  8
0
100
AcDbBlockBegin
  2
*Paper_Space
 70
0
 10
0.0
 20
0.0
 30
0.0
  3
*Paper_Space
  1

  0
ENDBLK
  5
1D
100
AcDbEntity
 67
1
  8
0
100
AcDbBlockEnd
  0
BLOCK
  5
24
100
AcDbEntity
  8
0
100
AcDbBlockBegin
  2
*Paper_Space0
 70
0
 10
0.0
 20
0.0
 30
0.0
  3
*Paper_Space0
  1

  0
ENDBLK
  5
25
100
AcDbEntity
  8
0
100
AcDbBlockEnd
  0
ENDSEC
  0
SECTION
  2
ENTITIES
  0
CIRCLE
  5
44
100
AcDbEntity
100
AcDbCircle
  8
Dimension
 62
256
370
-1
  6
ByLayer
 10
128.1499862670898438
 20
126.6598701477050781
 30
0.0
 40
82.5
  0
CIRCLE
  5
45
100
AcDbEntity
100
AcDbCircle
  8
Dimension
 62
256
370
-1
  6
ByLayer
 10
128.1499862670898438
 20
126.6598701477050781
 30
0.0
 40
12.0
  0
LINE
  5
46
100
AcDbEntity
100
AcDbLine
  8
Dimension
 62
256
370
-1
  6
ByLayer
 10
209.1137127129495639
 20
177.2180050025431797
 30
0.0
 11
178.7081211219280021
 21
146.8124134115216748
 31
0.0
  0
LINE
  5
47
100
AcDbEntity
100
AcDbLine
  8
Dimension
 62
256
370
-1
  6
ByLayer
 10
178.7081211219280021
 20
146.8124134115216748
 30
0.0
 11
148.3025295309064404
 21
177.2180050025432365
 31
0.0
  0
LINE
  5
48
100
AcDbEntity
100
AcDbLine
  8
Dimension
 62
256
370
-1
  6
ByLayer
 10
148.3025295309064404
 20
177.2180050025432365
 30
0.0
 11
178.7081211219280021
 21
207.6235965935647414
 31
0.0
  0
LINE
  5
49
100
AcDbEntity
100
AcDbLine
  8
Dimension
 62
256
370
-1
  6
ByLayer
 10
178.7081211219280021
 20
207.6235965935647414
 30
0.0
 11
209.1137127129495639
 21
177.2180050025431797
 31
0.0
  0
LINE
  5
4A
100
AcDbEntity
100
AcDbLine
  8
Dimension
 62
256
370
-1
  6
ByLayer
 10
19.1689367562251505
 20
71.2212561430087163
 30
0.0
 11
67.67646194562235
 21
22.7137309536115453
 31
0.0
  0
LINE
  5
4B
100
AcDbEntity
100
AcDbLine
  8
Dimension
 62
256
370
-1
  6
ByLayer
 10
19.1689367562251505
 20
71.2212561430087163
 30
0.0
 11
56.8577281934681196
 21
108.9100475802516712
 31
0.0
  0
LINE
  5
4C
100
AcDbEntity
100
AcDbLine
  8
Dimension
 62
256
370
-1
  6
ByLayer
 10
67.67646194562235
 20
22.7137309536115453
 30
0.0
 11
105.3652533828653191
 21
60.402522390854557
 31
0.0
  0
LINE
  5
4D
100
AcDbEntity
100
AcDbLine
  8
Dimension
 62
256
370
-1
  6
ByLayer
 10
56.8577281934681196
 20
108.9100475802516712
 30
0.0
 11
105.3652533828653191
 21
60.402522390854557
 31
0.0
  0
LINE
  5
4E
100
AcDbEntity
100
AcDbLine
  8
Dimension
 62
256
370
-1
  6
ByLayer
 10
351.0
 20
199.9999999999999432
 30
0.0
 11
308.0
 21
200.0000000000000568
 31
0.0
  0
LINE
  5
4F
100
AcDbEntity
100
AcDbLine
  8
Dimension
 62
256
370
-1
  6
ByLayer
 10
308.0
 20
200.0000000000000568
 30
0.0
 11
308.0
 21
243.0
 31
0.0
  0
LINE
  5
50
100
AcDbEntity
100
AcDbLine
  8
Dimension
 62
256
370
-1
  6
ByLayer
 10
308.0
 20
243.0
 30
0.0
 11
351.0
 21
243.0
 31
0.0
  0
LINE
  5
51
100
AcDbEntity
100
AcDbLine
  8
Dimension
 62
256
370
-1
  6
ByLayer
 10
351.0
 20
243.0
 30
0.0
 11
351.0
 21
199.9999999999999432
 31
0.0
  0
CIRCLE
  5
52
100
AcDbEntity
100
AcDbCircle
  8
Dimension
 62
256
370
-1
  6
ByLayer
 10
130.0
 20
130.0
 30
0.0
 40
82.5
  0
CIRCLE
  5
53
100
AcDbEntity
100
AcDbCircle
  8
Dimension
 62
256
370
-1
  6
ByLayer
 10
130.0
 20
130.0
 30
0.0
 40
12.0
  0
LINE
  5
54
100
AcDbEntity
100
AcDbLine
  8
Dimension
 62
256
370
-1
  6
ByLayer
 10
210.9637264458597201
 20
180.5581348548381015
 30
0.0
 11
180.5581348548381584
 21
150.1525432638165967
 31
0.0
  0
LINE
  5
55
100
AcDbEntity
100
AcDbLine
  8
Dimension
 62
256
370
-1
  6
ByLayer
 10
180.5581348548381584
 20
150.1525432638165967
 30
0.0
 11
150.1525432638165967
 21
180.5581348548381584
 31
0.0
  0
LINE
  5
56
100
AcDbEntity
100
AcDbLine
  8
Dimension
 62
256
370
-1
  6
ByLayer
 10
150.1525432638165967
 20
180.5581348548381584
 30
0.0
 11
180.5581348548381584
 21
210.9637264458596633
 31
0.0
  0
LINE
  5
57
100
AcDbEntity
100
AcDbLine
  8
Dimension
 62
256
370
-1
  6
ByLayer
 10
180.5581348548381584
 20
210.9637264458596633
 30
0.0
 11
210.9637264458597201
 21
180.5581348548381015
 31
0.0
  0
LINE
  5
58
100
AcDbEntity
100
AcDbLine
  8
Dimension
 62
256
370
-1
  6
ByLayer
 10
21.0189504891353067
 20
74.5613859953036382
 30
0.0
 11
69.5264756785325062
 21
26.0538608059064671
 31
0.0
  0
LINE
  5
59
100
AcDbEntity
100
AcDbLine
  8
Dimension
 62
256
370
-1
  6
ByLayer
 10
21.0189504891353067
 20
74.5613859953036382
 30
0.0
 11
58.7077419263782758
 21
112.2501774325465931
 31
0.0
  0
LINE
  5
5A
100
AcDbEntity
100
AcDbLine
  8
Dimension
 62
256
370
-1
  6
ByLayer
 10
69.5264756785325062
 20
26.0538608059064671
 30
0.0
 11
107.2152671157754753
 21
63.7426522431494789
 31
0.0
  0
LINE
  5
5B
100
AcDbEntity
100
AcDbLine
  8
Dimension
 62
256
370
-1
  6
ByLayer
 10
58.7077419263782758
 20
112.2501774325465931
 30
0.0
 11
107.2152671157754753
 21
63.7426522431494789
 31
0.0
  0
LINE
  5
5C
100
AcDbEntity
100
AcDbLine
  8
0
 62
256
370
-1
  6
ByLayer
 10
1.1504440999999588
 20
3.0000000000000568
 30
0.0
 11
1.1504440999999588
 21
0.0000000000000444
 31
0.0
  0
LINE
  5
5D
100
AcDbEntity
100
AcDbLine
  8
0
 62
256
370
-1
  6
ByLayer
 10
1.1504440999999588
 20
0.0000000000000444
 30
0.0
 11
21.1504440999999588
 21
0.0000000000000018
 31
0.0
  0
LINE
  5
5E
100
AcDbEntity
100
AcDbLine
  8
0
 62
256
370
-1
  6
ByLayer
 10
21.1504440999999588
 20
0.0000000000000018
 30
0.0
 11
21.1504440999999588
 21
3.0000000000000107
 31
0.0
  0
LINE
  5
5F
100
AcDbEntity
100
AcDbLine
  8
0
 62
256
370
-1
  6
ByLayer
 10
155.355891021400339
 20
2.9999999999999378
 30
0.0
 11
135.355891021400339
 21
2.9999999999999662
 31
0.0
  0
LINE
  5
60
100
AcDbEntity
100
AcDbLine
  8
0
 62
256
370
-1
  6
ByLayer
 10
135.355891021400339
 20
2.9999999999999662
 30
0.0
 11
135.355891021400339
 21
0.0000000000000053
 31
0.0
  0
LINE
  5
61
100
AcDbEntity
100
AcDbLine
  8
0
 62
256
370
-1
  6
ByLayer
 10
135.355891021400339
 20
0.0000000000000053
 30
0.0
 11
115.355891021400339
 21
0.0000000000000036
 31
0.0
  0
LINE
  5
62
100
AcDbEntity
100
AcDbLine
  8
0
 62
256
370
-1
  6
ByLayer
 10
115.355891021400339
 20
0.0000000000000036
 30
0.0
 11
115.355891021400339
 21
3.0000000000000107
 31
0.0
  0
LINE
  5
63
100
AcDbEntity
100
AcDbLine
  8
0
 62
256
370
-1
  6
ByLayer
 10
58.2531675607001489
 20
3.000000000000016
 30
0.0
 11
58.2531675607001418
 21
0.0000000000000124
 31
0.0
  0
LINE
  5
64
100
AcDbEntity
100
AcDbLine
  8
0
 62
256
370
-1
  6
ByLayer
 10
58.2531675607001418
 20
0.0000000000000124
 30
0.0
 11
78.2531675607001489
 21
0.0000000000000018
 31
0.0
  0
LINE
  5
65
100
AcDbEntity
100
AcDbLine
  8
0
 62
256
370
-1
  6
ByLayer
 10
78.2531675607001489
 20
0.0000000000000018
 30
0.0
 11
78.2531675607001489
 21
3.0000000000000036
 31
0.0
  0
LINE
  5
66
100
AcDbEntity
100
AcDbLine
  8
0
 62
256
370
-1
  6
ByLayer
 10
21.1504440999999588
 20
3.0000000000000107
 30
0.0
 11
58.2531675607001489
 21
3.000000000000016
 31
0.0
  0
LINE
  5
67
100
AcDbEntity
100
AcDbLine
  8
0
 62
256
370
-1
  6
ByLayer
 10
78.2531675607001489
 20
3.0000000000000036
 30
0.0
 11
115.355891021400339
 21
3.0000000000000107
 31
0.0
  0
LINE
  5
68
100
AcDbEntity
100
AcDbLine
  8
0
 62
7
420
16777215
370
-1
  6
CONTINUOUS
 10
2.9215777672000058
 20
26.5000000000000071
 30
0.0
 11
1.6378660542000034
 21
26.4999999999999929
 31
0.0
  0
LINE
  5
69
100
AcDbEntity
100
AcDbLine
  8
0
 62
7
420
16777215
370
-1
  6
CONTINUOUS
 10
1.6378660542000034
 20
26.4999999999999929
 30
0.0
 11
0.0
 21
21.9999999999999893
 31
0.0
  0
LINE
  5
6A
100
AcDbEntity
100
AcDbLine
  8
0
 62
7
420
16777215
370
-1
  6
CONTINUOUS
 10
4.5594438214000093
 20
22.0000000000000639
 30
0.0
 11
6.2831853000000137
 21
22.0000000000000213
 31
0.0
  0
LINE
  5
6B
100
AcDbEntity
100
AcDbLine
  8
0
 62
7
420
16777215
370
-1
  6
CONTINUOUS
 10
4.5594438214000093
 20
22.0000000000000639
 30
0.0
 11
2.9215777672000058
 21
26.5000000000000071
 31
0.0
  0
LINE
  5
6C
100
AcDbEntity
100
AcDbLine
  8
0
 62
7
420
16777215
370
-1
  6
CONTINUOUS
 10
9.2047630672000196
 20
26.5000000000000497
 30
0.0
 11
7.9210513542000172
 21
26.5
 31
0.0
  0
LINE
  5
6D
100
AcDbEntity
100
AcDbLine
  8
0
 62
7
420
16777215
370
-1
  6
CONTINUOUS
 10
7.9210513542000172
 20
26.5
 30
0.0
 11
6.2831853000000137
 21
22.0000000000000213
 31
0.0
  0
LINE
  5
6E
100
AcDbEntity
100
AcDbLine
  8
0
 62
7
420
16777215
370
-1
  6
CONTINUOUS
 10
10.842629121400023
 20
21.9999999999999716
 30
0.0
 11
12.5663706000000275
 21
22.0000000000000497
 31
0.0
  0
LINE
  5
6F
100
AcDbEntity
100
AcDbLine
  8
0
 62
7
420
16777215
370
-1
  6
CONTINUOUS
 10
10.842629121400023
 20
21.9999999999999716
 30
0.0
 11
9.2047630672000196
 21
26.5000000000000497
 31
0.0
  0
LINE
  5
70
100
AcDbEntity
100
AcDbLine
  8
0
 62
7
420
16777215
370
-1
  6
CONTINUOUS
 10
15.4879483672000333
 20
26.4999999999999787
 30
0.0
 11
14.2042366542000309
 21
26.5000000000000355
 31
0.0
  0
LINE
  5
71
100
AcDbEntity
100
AcDbLine
  8
0
 62
7
420
16777215
370
-1
  6
CONTINUOUS
 10
14.2042366542000309
 20
26.5000000000000355
 30
0.0
 11
12.5663706000000275
 21
22.0000000000000497
 31
0.0
  0
LINE
  5
72
100
AcDbEntity
100
AcDbLine
  8
0
 62
7
420
16777215
370
-1
  6
CONTINUOUS
 10
17.1258144214000367
 20
22.0000000000000284
 30
0.0
 11
18.8495559000000412
 21
22.0000000000000107
 31
0.0
  0
LINE
  5
73
100
AcDbEntity
100
AcDbLine
  8
0
 62
7
420
16777215
370
-1
  6
CONTINUOUS
 10
17.1258144214000367
 20
22.0000000000000284
 30
0.0
 11
15.4879483672000333
 21
26.4999999999999787
 31
0.0
  0
LINE
  5
74
100
AcDbEntity
100
AcDbLine
  8
0
 62
7
420
16777215
370
-1
  6
CONTINUOUS
 10
21.7711336672000471
 20
26.5000000000000213
 30
0.0
 11
20.4874219542000446
 21
26.5000000000000213
 31
0.0
  0
LINE
  5
75
100
AcDbEntity
100
AcDbLine
  8
0
 62
7
420
16777215
370
-1
  6
CONTINUOUS
 10
20.4874219542000446
 20
26.5000000000000213
 30
0.0
 11
18.8495559000000412
 21
22.0000000000000107
 31
0.0
  0
LINE
  5
76
100
AcDbEntity
100
AcDbLine
  8
0
 62
7
420
16777215
370
-1
  6
CONTINUOUS
 10
23.4089997214000505
 20
21.9999999999999858
 30
0.0
 11
25.132741200000055
 21
21.9999999999999893
 31
0.0
  0
LINE
  5
77
100
AcDbEntity
100
AcDbLine
  8
0
 62
7
420
16777215
370
-1
  6
CONTINUOUS
 10
23.4089997214000505
 20
21.9999999999999858
 30
0.0
 11
21.7711336672000471
 21
26.5000000000000213
 31
0.0
  0
LINE
  5
78
100
AcDbEntity
100
AcDbLine
  8
0
 62
7
420
16777215
370
-1
  6
CONTINUOUS
 10
28.0543189672000608
 20
26.4999999999999787
 30
0.0
 11
26.7706072542000584
 21
26.4999999999999929
 31
0.0
  0
LINE
  5
79
100
AcDbEntity
100
AcDbLine
  8
0
 62
7
420
16777215
370
-1
  6
CONTINUOUS
 10
26.7706072542000584
 20
26.4999999999999929
 30
0.0
 11
25.132741200000055
 21
21.9999999999999893
 31
0.0
  0
LINE
  5
7A
100
AcDbEntity
100
AcDbLine
  8
0
 62
7
420
16777215
370
-1
  6
CONTINUOUS
 10
29.6921850214000642
 20
22.0000000000000071
 30
0.0
 11
31.4159265000000687
 21
22.0000000000000071
 31
0.0
  0
LINE
  5
7B
100
AcDbEntity
100
AcDbLine
  8
0
 62
7
420
16777215
370
-1
  6
CONTINUOUS
 10
29.6921850214000642
 20
22.0000000000000071
 30
0.0
 11
28.0543189672000608
 21
26.4999999999999787
 31
0.0
  0
LINE
  5
7C
100
AcDbEntity
100
AcDbLine
  8
0
 62
7
420
16777215
370
-1
  6
CONTINUOUS
 10
34.3375042672000745
 20
26.4999999999999929
 30
0.0
 11
33.0537925542000721
 21
26.5000000000000213
 31
0.0
  0
LINE
  5
7D
100
AcDbEntity
100
AcDbLine
  8
0
 62
7
420
16777215
370
-1
  6
CONTINUOUS
 10
33.0537925542000721
 20
26.5000000000000213
 30
0.0
 11
31.4159265000000687
 21
22.0000000000000071
 31
0.0
  0
LINE
  5
7E
100
AcDbEntity
100
AcDbLine
  8
0
 62
7
420
16777215
370
-1
  6
CONTINUOUS
 10
35.975370321400078
 20
21.9999999999999964
 30
0.0
 11
37.6991118000000824
 21
22.0000000000000178
 31
0.0
  0
LINE
  5
7F
100
AcDbEntity
100
AcDbLine
  8
0
 62
7
420
16777215
370
-1
  6
CONTINUOUS
 10
35.975370321400078
 20
21.9999999999999964
 30
0.0
 11
34.3375042672000745
 21
26.4999999999999929
 31
0.0
  0
LINE
  5
80
100
AcDbEntity
100
AcDbLine
  8
0
 62
7
420
16777215
370
-1
  6
CONTINUOUS
 10
40.6206895672000812
 20
26.4999999999999858
 30
0.0
 11
39.3369778542000859
 21
26.5000000000000213
 31
0.0
  0
LINE
  5
81
100
AcDbEntity
100
AcDbLine
  8
0
 62
7
420
16777215
370
-1
  6
CONTINUOUS
 10
39.3369778542000859
 20
26.5000000000000213
 30
0.0
 11
37.6991118000000824
 21
22.0000000000000178
 31
0.0
  0
LINE
  5
82
100
AcDbEntity
100
AcDbLine
  8
0
 62
7
420
16777215
370
-1
  6
CONTINUOUS
 10
42.2585556214000917
 20
22.0
 30
0.0
 11
43.9822971000000962
 21
22.0000000000000142
 31
0.0
  0
LINE
  5
83
100
AcDbEntity
100
AcDbLine
  8
0
 62
7
420
16777215
370
-1
  6
CONTINUOUS
 10
42.2585556214000917
 20
22.0
 30
0.0
 11
40.6206895672000812
 21
26.4999999999999858
 31
0.0
  0
LINE
  5
84
100
AcDbEntity
100
AcDbLine
  8
0
 62
7
420
16777215
370
-1
  6
CONTINUOUS
 10
46.903874867200102
 20
26.5000000000000071
 30
0.0
 11
45.6201631542000925
 21
26.4999999999999929
 31
0.0
  0
LINE
  5
85
100
AcDbEntity
100
AcDbLine
  8
0
 62
7
420
16777215
370
-1
  6
CONTINUOUS
 10
45.6201631542000925
 20
26.4999999999999929
 30
0.0
 11
43.9822971000000962
 21
22.0000000000000142
 31
0.0
  0
LINE
  5
86
100
AcDbEntity
100
AcDbLine
  8
0
 62
7
420
16777215
370
-1
  6
CONTINUOUS
 10
48.5417409214001054
 20
22.0000000000000142
 30
0.0
 11
50.2654824000001099
 21
22.0000000000000142
 31
0.0
  0
LINE
  5
87
100
AcDbEntity
100
AcDbLine
  8
0
 62
7
420
16777215
370
-1
  6
CONTINUOUS
 10
48.5417409214001054
 20
22.0000000000000142
 30
0.0
 11
46.903874867200102
 21
26.5000000000000071
 31
0.0
  0
LINE
  5
88
100
AcDbEntity
100
AcDbLine
  8
0
 62
7
420
16777215
370
-1
  6
CONTINUOUS
 10
53.1870601672001158
 20
26.5000000000000142
 30
0.0
 11
51.9033484542001133
 21
26.5000000000000071
 31
0.0
  0
LINE
  5
89
100
AcDbEntity
100
AcDbLine
  8
0
 62
7
420
16777215
370
-1
  6
CONTINUOUS
 10
51.9033484542001133
 20
26.5000000000000071
 30
0.0
 11
50.2654824000001099
 21
22.0000000000000142
 31
0.0
  0
LINE
  5
8A
100
AcDbEntity
100
AcDbLine
  8
0
 62
7
420
16777215
370
-1
  6
CONTINUOUS
 10
54.8249262214001192
 20
22.0000000000000071
 30
0.0
 11
56.5486677000001237
 21
22.0000000000000142
 31
0.0
  0
LINE
  5
8B
100
AcDbEntity
100
AcDbLine
  8
0
 62
7
420
16777215
370
-1
  6
CONTINUOUS
 10
54.8249262214001192
 20
22.0000000000000071
 30
0.0
 11
53.1870601672001158
 21
26.5000000000000142
 31
0.0
  0
LINE
  5
8C
100
AcDbEntity
100
AcDbLine
  8
0
 62
7
420
16777215
370
-1
  6
CONTINUOUS
 10
59.4702454672001295
 20
26.5000000000000071
 30
0.0
 11
58.1865337542001271
 21
26.5000000000000071
 31
0.0
  0
LINE
  5
8D
100
AcDbEntity
100
AcDbLine
  8
0
 62
7
420
16777215
370
-1
  6
CONTINUOUS
 10
58.1865337542001271
 20
26.5000000000000071
 30
0.0
 11
56.5486677000001237
 21
22.0000000000000142
 31
0.0
  0
LINE
  5
8E
100
AcDbEntity
100
AcDbLine
  8
0
 62
7
420
16777215
370
-1
  6
CONTINUOUS
 10
61.1081115214001329
 20
22.0000000000000142
 30
0.0
 11
62.8318530000001374
 21
22.0000000000000071
 31
0.0
  0
LINE
  5
8F
100
AcDbEntity
100
AcDbLine
  8
0
 62
7
420
16777215
370
-1
  6
CONTINUOUS
 10
61.1081115214001329
 20
22.0000000000000142
 30
0.0
 11
59.4702454672001295
 21
26.5000000000000071
 31
0.0
  0
LINE
  5
90
100
AcDbEntity
100
AcDbLine
  8
0
 62
7
420
16777215
370
-1
  6
CONTINUOUS
 10
65.7534307672001432
 20
26.5000000000000142
 30
0.0
 11
64.4697190542001408
 21
26.5000000000000071
 31
0.0
  0
LINE
  5
91
100
AcDbEntity
100
AcDbLine
  8
0
 62
7
420
16777215
370
-1
  6
CONTINUOUS
 10
64.4697190542001408
 20
26.5000000000000071
 30
0.0
 11
62.8318530000001374
 21
22.0000000000000071
 31
0.0
  0
LINE
  5
92
100
AcDbEntity
100
AcDbLine
  8
0
 62
7
420
16777215
370
-1
  6
CONTINUOUS
 10
67.3912968214001467
 20
22.0000000000000071
 30
0.0
 11
69.1150383000001511
 21
22.0000000000000107
 31
0.0
  0
LINE
  5
93
100
AcDbEntity
100
AcDbLine
  8
0
 62
7
420
16777215
370
-1
  6
CONTINUOUS
 10
67.3912968214001467
 20
22.0000000000000071
 30
0.0
 11
65.7534307672001432
 21
26.5000000000000142
 31
0.0
  0
LINE
  5
94
100
AcDbEntity
100
AcDbLine
  8
0
 62
7
420
16777215
370
-1
  6
CONTINUOUS
 10
72.036616067200157
 20
26.5000000000000142
 30
0.0
 11
70.7529043542001546
 21
26.5000000000000142
 31
0.0
  0
LINE
  5
95
100
AcDbEntity
100
AcDbLine
  8
0
 62
7
420
16777215
370
-1
  6
CONTINUOUS
 10
70.7529043542001546
 20
26.5000000000000142
 30
0.0
 11
69.1150383000001511
 21
22.0000000000000107
 31
0.0
  0
LINE
  5
96
100
AcDbEntity
100
AcDbLine
  8
0
 62
7
420
16777215
370
-1
  6
CONTINUOUS
 10
73.6744821214001604
 20
22.0000000000000107
 30
0.0
 11
75.3982236000001649
 21
22.0000000000000107
 31
0.0
  0
LINE
  5
97
100
AcDbEntity
100
AcDbLine
  8
0
 62
7
420
16777215
370
-1
  6
CONTINUOUS
 10
73.6744821214001604
 20
22.0000000000000107
 30
0.0
 11
72.036616067200157
 21
26.5000000000000142
 31
0.0
  0
LINE
  5
98
100
AcDbEntity
100
AcDbLine
  8
0
 62
7
420
16777215
370
-1
  6
CONTINUOUS
 10
78.3198013672001707
 20
26.5000000000000071
 30
0.0
 11
77.0360896542001683
 21
26.5000000000000071
 31
0.0
  0
LINE
  5
99
100
AcDbEntity
100
AcDbLine
  8
0
 62
7
420
16777215
370
-1
  6
CONTINUOUS
 10
77.0360896542001683
 20
26.5000000000000071
 30
0.0
 11
75.3982236000001649
 21
22.0000000000000107
 31
0.0
  0
LINE
  5
9A
100
AcDbEntity
100
AcDbLine
  8
0
 62
7
420
16777215
370
-1
  6
CONTINUOUS
 10
79.9576674214001741
 20
22.0000000000000107
 30
0.0
 11
81.6814089000001786
 21
22.0000000000000142
 31
0.0
  0
LINE
  5
9B
100
AcDbEntity
100
AcDbLine
  8
0
 62
7
420
16777215
370
-1
  6
CONTINUOUS
 10
79.9576674214001741
 20
22.0000000000000107
 30
0.0
 11
78.3198013672001707
 21
26.5000000000000071
 31
0.0
  0
LINE
  5
9C
100
AcDbEntity
100
AcDbLine
  8
0
 62
7
420
16777215
370
-1
  6
CONTINUOUS
 10
84.6029866672001845
 20
26.5000000000000071
 30
0.0
 11
83.319274954200182
 21
26.5000000000000071
 31
0.0
  0
LINE
  5
9D
100
AcDbEntity
100
AcDbLine
  8
0
 62
7
420
16777215
370
-1
  6
CONTINUOUS
 10
83.319274954200182
 20
26.5000000000000071
 30
0.0
 11
81.6814089000001786
 21
22.0000000000000142
 31
0.0
  0
LINE
  5
9E
100
AcDbEntity
100
AcDbLine
  8
0
 62
7
420
16777215
370
-1
  6
CONTINUOUS
 10
86.2408527214001879
 20
22.0000000000000071
 30
0.0
 11
87.9645942000001924
 21
22.0000000000000107
 31
0.0
  0
LINE
  5
9F
100
AcDbEntity
100
AcDbLine
  8
0
 62
7
420
16777215
370
-1
  6
CONTINUOUS
 10
86.2408527214001879
 20
22.0000000000000071
 30
0.0
 11
84.6029866672001845
 21
26.5000000000000071
 31
0.0
  0
LINE
  5
A0
100
AcDbEntity
100
AcDbLine
  8
0
 62
7
420
16777215
370
-1
  6
CONTINUOUS
 10
90.8861719672001982
 20
26.5000000000000071
 30
0.0
 11
89.6024602542001958
 21
26.5000000000000142
 31
0.0
  0
LINE
  5
A1
100
AcDbEntity
100
AcDbLine
  8
0
 62
7
420
16777215
370
-1
  6
CONTINUOUS
 10
89.6024602542001958
 20
26.5000000000000142
 30
0.0
 11
87.9645942000001924
 21
22.0000000000000107
 31
0.0
  0
LINE
  5
A2
100
AcDbEntity
100
AcDbLine
  8
0
 62
7
420
16777215
370
-1
  6
CONTINUOUS
 10
92.5240380214002016
 20
22.0000000000000071
 30
0.0
 11
94.2477795000002061
 21
22.0000000000000107
 31
0.0
  0
LINE
  5
A3
100
AcDbEntity
100
AcDbLine
  8
0
 62
7
420
16777215
370
-1
  6
CONTINUOUS
 10
92.5240380214002016
 20
22.0000000000000071
 30
0.0
 11
90.8861719672001982
 21
26.5000000000000071
 31
0.0
  0
LINE
  5
A4
100
AcDbEntity
100
AcDbLine
  8
0
 62
7
420
16777215
370
-1
  6
CONTINUOUS
 10
97.1693572672002119
 20
26.5000000000000142
 30
0.0
 11
95.8856455542002095
 21
26.5000000000000071
 31
0.0
  0
LINE
  5
A5
100
AcDbEntity
100
AcDbLine
  8
0
 62
7
420
16777215
370
-1
  6
CONTINUOUS
 10
95.8856455542002095
 20
26.5000000000000071
 30
0.0
 11
94.2477795000002061
 21
22.0000000000000107
 31
0.0
  0
LINE
  5
A6
100
AcDbEntity
100
AcDbLine
  8
0
 62
7
420
16777215
370
-1
  6
CONTINUOUS
 10
98.8072233214002154
 20
22.0000000000000071
 30
0.0
 11
100.5309648000002198
 21
22.0000000000000071
 31
0.0
  0
LINE
  5
A7
100
AcDbEntity
100
AcDbLine
  8
0
 62
7
420
16777215
370
-1
  6
CONTINUOUS
 10
98.8072233214002154
 20
22.0000000000000071
 30
0.0
 11
97.1693572672002119
 21
26.5000000000000142
 31
0.0
  0
LINE
  5
A8
100
AcDbEntity
100
AcDbLine
  8
0
 62
7
420
16777215
370
-1
  6
CONTINUOUS
 10
103.4525425672002257
 20
26.5000000000000071
 30
0.0
 11
102.1688308542002233
 21
26.5000000000000142
 31
0.0
  0
LINE
  5
A9
100
AcDbEntity
100
AcDbLine
  8
0
 62
7
420
16777215
370
-1
  6
CONTINUOUS
 10
102.1688308542002233
 20
26.5000000000000142
 30
0.0
 11
100.5309648000002198
 21
22.0000000000000071
 31
0.0
  0
LINE
  5
AA
100
AcDbEntity
100
AcDbLine
  8
0
 62
7
420
16777215
370
-1
  6
CONTINUOUS
 10
105.0904086214002291
 20
22.0000000000000071
 30
0.0
 11
106.8141501000002336
 21
22.0000000000000142
 31
0.0
  0
LINE
  5
AB
100
AcDbEntity
100
AcDbLine
  8
0
 62
7
420
16777215
370
-1
  6
CONTINUOUS
 10
105.0904086214002291
 20
22.0000000000000071
 30
0.0
 11
103.4525425672002257
 21
26.5000000000000071
 31
0.0
  0
LINE
  5
AC
100
AcDbEntity
100
AcDbLine
  8
0
 62
7
420
16777215
370
-1
  6
CONTINUOUS
 10
109.7357278672002394
 20
26.5
 30
0.0
 11
108.452016154200237
 21
26.5000000000000071
 31
0.0
  0
LINE
  5
AD
100
AcDbEntity
100
AcDbLine
  8
0
 62
7
420
16777215
370
-1
  6
CONTINUOUS
 10
108.452016154200237
 20
26.5000000000000071
 30
0.0
 11
106.8141501000002336
 21
22.0000000000000142
 31
0.0
  0
LINE
  5
AE
100
AcDbEntity
100
AcDbLine
  8
0
 62
7
420
16777215
370
-1
  6
CONTINUOUS
 10
111.3735939214002428
 20
22.0000000000000142
 30
0.0
 11
113.0973354000002473
 21
22.0000000000000071
 31
0.0
  0
LINE
  5
AF
100
AcDbEntity
100
AcDbLine
  8
0
 62
7
420
16777215
370
-1
  6
CONTINUOUS
 10
111.3735939214002428
 20
22.0000000000000142
 30
0.0
 11
109.7357278672002394
 21
26.5
 31
0.0
  0
LINE
  5
B0
100
AcDbEntity
100
AcDbLine
  8
0
 62
7
420
16777215
370
-1
  6
CONTINUOUS
 10
116.0189131672002532
 20
26.5000000000000213
 30
0.0
 11
114.7352014542002507
 21
26.4999999999999929
 31
0.0
  0
LINE
  5
B1
100
AcDbEntity
100
AcDbLine
  8
0
 62
7
420
16777215
370
-1
  6
CONTINUOUS
 10
114.7352014542002507
 20
26.4999999999999929
 30
0.0
 11
113.0973354000002473
 21
22.0000000000000071
 31
0.0
  0
LINE
  5
B2
100
AcDbEntity
100
AcDbLine
  8
0
 62
7
420
16777215
370
-1
  6
CONTINUOUS
 10
117.6567792214002566
 20
22.0000000000000142
 30
0.0
 11
119.3805207000002611
 21
21.9999999999999893
 31
0.0
  0
LINE
  5
B3
100
AcDbEntity
100
AcDbLine
  8
0
 62
7
420
16777215
370
-1
  6
CONTINUOUS
 10
117.6567792214002566
 20
22.0000000000000142
 30
0.0
 11
116.0189131672002532
 21
26.5000000000000213
 31
0.0
  0
LINE
  5
B4
100
AcDbEntity
100
AcDbLine
  8
0
 62
7
420
16777215
370
-1
  6
CONTINUOUS
 10
122.3020984672002669
 20
26.5000000000000213
 30
0.0
 11
121.0183867542002645
 21
26.4999999999999929
 31
0.0
  0
LINE
  5
B5
100
AcDbEntity
100
AcDbLine
  8
0
 62
7
420
16777215
370
-1
  6
CONTINUOUS
 10
121.0183867542002645
 20
26.4999999999999929
 30
0.0
 11
119.3805207000002611
 21
21.9999999999999893
 31
0.0
  0
LINE
  5
B6
100
AcDbEntity
100
AcDbLine
  8
0
 62
7
420
16777215
370
-1
  6
CONTINUOUS
 10
123.9399645214002703
 20
22.0000000000000142
 30
0.0
 11
125.6637060000002748
 21
22.0000000000000142
 31
0.0
  0
LINE
  5
B7
100
AcDbEntity
100
AcDbLine
  8
0
 62
7
420
16777215
370
-1
  6
CONTINUOUS
 10
123.9399645214002703
 20
22.0000000000000142
 30
0.0
 11
122.3020984672002669
 21
26.5000000000000213
 31
0.0
  0
LINE
  5
B8
100
AcDbEntity
100
AcDbLine
  8
0
 62
7
420
16777215
370
-1
  6
CONTINUOUS
 10
128.5852837672002806
 20
26.4999999999999929
 30
0.0
 11
127.3015720542002782
 21
26.4999999999999858
 31
0.0
  0
LINE
  5
B9
100
AcDbEntity
100
AcDbLine
  8
0
 62
7
420
16777215
370
-1
  6
CONTINUOUS
 10
127.3015720542002782
 20
26.4999999999999858
 30
0.0
 11
125.6637060000002748
 21
22.0000000000000142
 31
0.0
  0
LINE
  5
BA
100
AcDbEntity
100
AcDbLine
  8
0
 62
7
420
16777215
370
-1
  6
CONTINUOUS
 10
130.2231498214002841
 20
21.9999999999999929
 30
0.0
 11
131.9468913000002885
 21
21.9999999999999929
 31
0.0
  0
LINE
  5
BB
100
AcDbEntity
100
AcDbLine
  8
0
 62
7
420
16777215
370
-1
  6
CONTINUOUS
 10
130.2231498214002841
 20
21.9999999999999929
 30
0.0
 11
128.5852837672002806
 21
26.4999999999999929
 31
0.0
  0
LINE
  5
BC
100
AcDbEntity
100
AcDbLine
  8
0
 62
7
420
16777215
370
-1
  6
CONTINUOUS
 10
134.8684690672002944
 20
26.5000000000000355
 30
0.0
 11
133.584757354200292
 21
26.5000000000000213
 31
0.0
  0
LINE
  5
BD
100
AcDbEntity
100
AcDbLine
  8
0
 62
7
420
16777215
370
-1
  6
CONTINUOUS
 10
133.584757354200292
 20
26.5000000000000213
 30
0.0
 11
131.9468913000002885
 21
21.9999999999999929
 31
0.0
  0
LINE
  5
BE
100
AcDbEntity
100
AcDbLine
  8
0
 62
7
420
16777215
370
-1
  6
CONTINUOUS
 10
136.5063351214002978
 20
22.0000000000000036
 30
0.0
 11
138.2300766000003023
 21
22.0000000000000355
 31
0.0
  0
LINE
  5
BF
100
AcDbEntity
100
AcDbLine
  8
0
 62
7
420
16777215
370
-1
  6
CONTINUOUS
 10
136.5063351214002978
 20
22.0000000000000036
 30
0.0
 11
134.8684690672002944
 21
26.5000000000000355
 31
0.0
  0
LINE
  5
C0
100
AcDbEntity
100
AcDbLine
  8
0
 62
7
420
16777215
370
-1
  6
CONTINUOUS
 10
141.1516543672003081
 20
26.5000000000000355
 30
0.0
 11
139.8679426542003057
 21
26.4999999999999929
 31
0.0
  0
LINE
  5
C1
100
AcDbEntity
100
AcDbLine
  8
0
 62
7
420
16777215
370
-1
  6
CONTINUOUS
 10
139.8679426542003057
 20
26.4999999999999929
 30
0.0
 11
138.2300766000003023
 21
22.0000000000000355
 31
0.0
  0
LINE
  5
C2
100
AcDbEntity
100
AcDbLine
  8
0
 62
7
420
16777215
370
-1
  6
CONTINUOUS
 10
142.7895204214003115
 20
22.0000000000000639
 30
0.0
 11
144.513261900000316
 21
21.9999999999999751
 31
0.0
  0
LINE
  5
C3
100
AcDbEntity
100
AcDbLine
  8
0
 62
7
420
16777215
370
-1
  6
CONTINUOUS
 10
142.7895204214003115
 20
22.0000000000000639
 30
0.0
 11
141.1516543672003081
 21
26.5000000000000355
 31
0.0
  0
LINE
  5
C4
100
AcDbEntity
100
AcDbLine
  8
0
 62
7
420
16777215
370
-1
  6
CONTINUOUS
 10
147.4348396672003219
 20
26.5000000000000071
 30
0.0
 11
146.1511279542003194
 21
26.5000000000000426
 31
0.0
  0
LINE
  5
C5
100
AcDbEntity
100
AcDbLine
  8
0
 62
7
420
16777215
370
-1
  6
CONTINUOUS
 10
146.1511279542003194
 20
26.5000000000000426
 30
0.0
 11
144.513261900000316
 21
21.9999999999999751
 31
0.0
  0
LINE
  5
C6
100
AcDbEntity
100
AcDbLine
  8
0
 62
7
420
16777215
370
-1
  6
CONTINUOUS
 10
149.0727057214003253
 20
22.0000000000000213
 30
0.0
 11
150.7964472000003298
 21
22.0000000000000675
 31
0.0
  0
LINE
  5
C7
100
AcDbEntity
100
AcDbLine
  8
0
 62
7
420
16777215
370
-1
  6
CONTINUOUS
 10
149.0727057214003253
 20
22.0000000000000213
 30
0.0
 11
147.4348396672003219
 21
26.5000000000000071
 31
0.0
  0
LINE
  5
C8
100
AcDbEntity
100
AcDbLine
  8
0
 62
7
420
16777215
370
-1
  6
CONTINUOUS
 10
153.7180249672003356
 20
26.4999999999999929
 30
0.0
 11
152.4343132542003332
 21
26.4999999999999929
 31
0.0
  0
LINE
  5
C9
100
AcDbEntity
100
AcDbLine
  8
0
 62
7
420
16777215
370
-1
  6
CONTINUOUS
 10
152.4343132542003332
 20
26.4999999999999929
 30
0.0
 11
150.7964472000003298
 21
22.0000000000000675
 31
0.0
  0
LINE
  5
CA
100
AcDbEntity
100
AcDbLine
  8
0
 62
7
420
16777215
370
-1
  6
CONTINUOUS
 10
155.355891021400339
 20
21.9999999999999858
 30
0.0
 11
153.7180249672003356
 21
26.4999999999999929
 31
0.0
  0
LINE
  5
CB
100
AcDbEntity
100
AcDbLine
  8
0
 62
256
370
-1
  6
ByLayer
 10
155.355891021400339
 20
21.9999999999999858
 30
0.0
 11
155.355891021400339
 21
2.9999999999999378
 31
0.0
  0
LINE
  5
CC
100
AcDbEntity
100
AcDbLine
  8
0
 62
256
370
-1
  6
ByLayer
 10
0.0
 20
21.9999999999999893
 30
0.0
 11
0.0
 21
3.0
 31
0.0
  0
LINE
  5
CD
100
AcDbEntity
100
AcDbLine
  8
0
 62
256
370
-1
  6
ByLayer
 10
0.0
 20
3.0
 30
0.0
 11
1.1504440999999588
 21
3.0000000000000568
 31
0.0
  0
LINE
  5
CE
100
AcDbEntity
100
AcDbLine
  8
0
 62
256
370
-1
  6
ByLayer
 10
1.1504440999999588
 20
32.0000000000000568
 30
0.0
 11
1.1504440999999588
 21
29.0000000000000426
 31
0.0
  0
LINE
  5
CF
100
AcDbEntity
100
AcDbLine
  8
0
 62
256
370
-1
  6
ByLayer
 10
1.1504440999999588
 20
29.0000000000000426
 30
0.0
 11
21.1504440999999588
 21
29.0
 31
0.0
  0
LINE
  5
D0
100
AcDbEntity
100
AcDbLine
  8
0
 62
256
370
-1
  6
ByLayer
 10
21.1504440999999588
 20
29.0
 30
0.0
 11
21.1504440999999588
 21
32.0000000000000142
 31
0.0
  0
LINE
  5
D1
100
AcDbEntity
100
AcDbLine
  8
0
 62
256
370
-1
  6
ByLayer
 10
155.355891021400339
 20
31.9999999999999361
 30
0.0
 11
135.355891021400339
 21
31.9999999999999645
 31
0.0
  0
LINE
  5
D2
100
AcDbEntity
100
AcDbLine
  8
0
 62
256
370
-1
  6
ByLayer
 10
135.355891021400339
 20
31.9999999999999645
 30
0.0
 11
135.355891021400339
 21
29.0000000000000071
 31
0.0
  0
LINE
  5
D3
100
AcDbEntity
100
AcDbLine
  8
0
 62
256
370
-1
  6
ByLayer
 10
135.355891021400339
 20
29.0000000000000071
 30
0.0
 11
115.355891021400339
 21
29.0000000000000036
 31
0.0
  0
LINE
  5
D4
100
AcDbEntity
100
AcDbLine
  8
0
 62
256
370
-1
  6
ByLayer
 10
115.355891021400339
 20
29.0000000000000036
 30
0.0
 11
115.355891021400339
 21
32.0000000000000142
 31
0.0
  0
LINE
  5
D5
100
AcDbEntity
100
AcDbLine
  8
0
 62
256
370
-1
  6
ByLayer
 10
58.2531675607001489
 20
32.0000000000000142
 30
0.0
 11
58.2531675607001418
 21
29.0000000000000142
 31
0.0
  0
LINE
  5
D6
100
AcDbEntity
100
AcDbLine
  8
0
 62
256
370
-1
  6
ByLayer
 10
58.2531675607001418
 20
29.0000000000000142
 30
0.0
 11
78.2531675607001489
 21
29.0
 31
0.0
  0
LINE
  5
D7
100
AcDbEntity
100
AcDbLine
  8
0
 62
256
370
-1
  6
ByLayer
 10
78.2531675607001489
 20
29.0
 30
0.0
 11
78.2531675607001489
 21
32.0
 31
0.0
  0
LINE
  5
D8
100
AcDbEntity
100
AcDbLine
  8
0
 62
256
370
-1
  6
ByLayer
 10
21.1504440999999588
 20
32.0000000000000142
 30
0.0
 11
58.2531675607001489
 21
32.0000000000000142
 31
0.0
  0
LINE
  5
D9
100
AcDbEntity
100
AcDbLine
  8
0
 62
256
370
-1
  6
ByLayer
 10
78.2531675607001489
 20
32.0
 30
0.0
 11
115.355891021400339
 21
32.0000000000000142
 31
0.0
  0
LINE
  5
DA
100
AcDbEntity
100
AcDbLine
  8
0
 62
7
420
16777215
370
-1
  6
CONTINUOUS
 10
2.9215777672000058
 20
55.5000000000000071
 30
0.0
 11
1.6378660542000034
 21
55.4999999999999929
 31
0.0
  0
LINE
  5
DB
100
AcDbEntity
100
AcDbLine
  8
0
 62
7
420
16777215
370
-1
  6
CONTINUOUS
 10
1.6378660542000034
 20
55.4999999999999929
 30
0.0
 11
0.0
 21
50.9999999999999858
 31
0.0
  0
LINE
  5
DC
100
AcDbEntity
100
AcDbLine
  8
0
 62
7
420
16777215
370
-1
  6
CONTINUOUS
 10
4.5594438214000093
 20
51.0000000000000639
 30
0.0
 11
6.2831853000000137
 21
51.0000000000000213
 31
0.0
  0
LINE
  5
DD
100
AcDbEntity
100
AcDbLine
  8
0
 62
7
420
16777215
370
-1
  6
CONTINUOUS
 10
4.5594438214000093
 20
51.0000000000000639
 30
0.0
 11
2.9215777672000058
 21
55.5000000000000071
 31
0.0
  0
LINE
  5
DE
100
AcDbEntity
100
AcDbLine
  8
0
 62
7
420
16777215
370
-1
  6
CONTINUOUS
 10
9.2047630672000196
 20
55.5000000000000497
 30
0.0
 11
7.9210513542000172
 21
55.5
 31
0.0
  0
LINE
  5
DF
100
AcDbEntity
100
AcDbLine
  8
0
 62
7
420
16777215
370
-1
  6
CONTINUOUS
 10
7.9210513542000172
 20
55.5
 30
0.0
 11
6.2831853000000137
 21
51.0000000000000213
 31
0.0
  0
LINE
  5
E0
100
AcDbEntity
100
AcDbLine
  8
0
 62
7
420
16777215
370
-1
  6
CONTINUOUS
 10
10.842629121400023
 20
50.9999999999999716
 30
0.0
 11
12.5663706000000275
 21
51.0000000000000497
 31
0.0
  0
LINE
  5
E1
100
AcDbEntity
100
AcDbLine
  8
0
 62
7
420
16777215
370
-1
  6
CONTINUOUS
 10
10.842629121400023
 20
50.9999999999999716
 30
0.0
 11
9.2047630672000196
 21
55.5000000000000497
 31
0.0
  0
LINE
  5
E2
100
AcDbEntity
100
AcDbLine
  8
0
 62
7
420
16777215
370
-1
  6
CONTINUOUS
 10
15.4879483672000333
 20
55.4999999999999787
 30
0.0
 11
14.2042366542000309
 21
55.5000000000000355
 31
0.0
  0
LINE
  5
E3
100
AcDbEntity
100
AcDbLine
  8
0
 62
7
420
16777215
370
-1
  6
CONTINUOUS
 10
14.2042366542000309
 20
55.5000000000000355
 30
0.0
 11
12.5663706000000275
 21
51.0000000000000497
 31
0.0
  0
LINE
  5
E4
100
AcDbEntity
100
AcDbLine
  8
0
 62
7
420
16777215
370
-1
  6
CONTINUOUS
 10
17.1258144214000367
 20
51.0000000000000284
 30
0.0
 11
18.8495559000000412
 21
51.0000000000000142
 31
0.0
  0
LINE
  5
E5
100
AcDbEntity
100
AcDbLine
  8
0
 62
7
420
16777215
370
-1
  6
CONTINUOUS
 10
17.1258144214000367
 20
51.0000000000000284
 30
0.0
 11
15.4879483672000333
 21
55.4999999999999787
 31
0.0
  0
LINE
  5
E6
100
AcDbEntity
100
AcDbLine
  8
0
 62
7
420
16777215
370
-1
  6
CONTINUOUS
 10
21.7711336672000471
 20
55.5000000000000213
 30
0.0
 11
20.4874219542000446
 21
55.5000000000000213
 31
0.0
  0
LINE
  5
E7
100
AcDbEntity
100
AcDbLine
  8
0
 62
7
420
16777215
370
-1
  6
CONTINUOUS
 10
20.4874219542000446
 20
55.5000000000000213
 30
0.0
 11
18.8495559000000412
 21
51.0000000000000142
 31
0.0
  0
LINE
  5
E8
100
AcDbEntity
100
AcDbLine
  8
0
 62
7
420
16777215
370
-1
  6
CONTINUOUS
 10
23.4089997214000505
 20
50.9999999999999858
 30
0.0
 11
25.132741200000055
 21
50.9999999999999858
 31
0.0
  0
LINE
  5
E9
100
AcDbEntity
100
AcDbLine
  8
0
 62
7
420
16777215
370
-1
  6
CONTINUOUS
 10
23.4089997214000505
 20
50.9999999999999858
 30
0.0
 11
21.7711336672000471
 21
55.5000000000000213
 31
0.0
  0
LINE
  5
EA
100
AcDbEntity
100
AcDbLine
  8
0
 62
7
420
16777215
370
-1
  6
CONTINUOUS
 10
28.0543189672000608
 20
55.4999999999999787
 30
0.0
 11
26.7706072542000584
 21
55.4999999999999929
 31
0.0
  0
LINE
  5
EB
100
AcDbEntity
100
AcDbLine
  8
0
 62
7
420
16777215
370
-1
  6
CONTINUOUS
 10
26.7706072542000584
 20
55.4999999999999929
 30
0.0
 11
25.132741200000055
 21
50.9999999999999858
 31
0.0
  0
LINE
  5
EC
100
AcDbEntity
100
AcDbLine
  8
0
 62
7
420
16777215
370
-1
  6
CONTINUOUS
 10
29.6921850214000642
 20
51.0000000000000071
 30
0.0
 11
31.4159265000000687
 21
51.0000000000000071
 31
0.0
  0
LINE
  5
ED
100
AcDbEntity
100
AcDbLine
  8
0
 62
7
420
16777215
370
-1
  6
CONTINUOUS
 10
29.6921850214000642
 20
51.0000000000000071
 30
0.0
 11
28.0543189672000608
 21
55.4999999999999787
 31
0.0
  0
LINE
  5
EE
100
AcDbEntity
100
AcDbLine
  8
0
 62
7
420
16777215
370
-1
  6
CONTINUOUS
 10
34.3375042672000745
 20
55.4999999999999929
 30
0.0
 11
33.0537925542000721
 21
55.5000000000000213
 31
0.0
  0
LINE
  5
EF
100
AcDbEntity
100
AcDbLine
  8
0
 62
7
420
16777215
370
-1
  6
CONTINUOUS
 10
33.0537925542000721
 20
55.5000000000000213
 30
0.0
 11
31.4159265000000687
 21
51.0000000000000071
 31
0.0
  0
LINE
  5
F0
100
AcDbEntity
100
AcDbLine
  8
0
 62
7
420
16777215
370
-1
  6
CONTINUOUS
 10
35.975370321400078
 20
51.0
 30
0.0
 11
37.6991118000000824
 21
51.0000000000000142
 31
0.0
  0
LINE
  5
F1
100
AcDbEntity
100
AcDbLine
  8
0
 62
7
420
16777215
370
-1
  6
CONTINUOUS
 10
35.975370321400078
 20
51.0
 30
0.0
 11
34.3375042672000745
 21
55.4999999999999929
 31
0.0
  0
LINE
  5
F2
100
AcDbEntity
100
AcDbLine
  8
0
 62
7
420
16777215
370
-1
  6
CONTINUOUS
 10
40.6206895672000812
 20
55.4999999999999858
 30
0.0
 11
39.3369778542000859
 21
55.5000000000000213
 31
0.0
  0
LINE
  5
F3
100
AcDbEntity
100
AcDbLine
  8
0
 62
7
420
16777215
370
-1
  6
CONTINUOUS
 10
39.3369778542000859
 20
55.5000000000000213
 30
0.0
 11
37.6991118000000824
 21
51.0000000000000142
 31
0.0
  0
LINE
  5
F4
100
AcDbEntity
100
AcDbLine
  8
0
 62
7
420
16777215
370
-1
  6
CONTINUOUS
 10
42.2585556214000917
 20
51.0
 30
0.0
 11
43.9822971000000962
 21
51.0000000000000142
 31
0.0
  0
LINE
  5
F5
100
AcDbEntity
100
AcDbLine
  8
0
 62
7
420
16777215
370
-1
  6
CONTINUOUS
 10
42.2585556214000917
 20
51.0
 30
0.0
 11
40.6206895672000812
 21
55.4999999999999858
 31
0.0
  0
LINE
  5
F6
100
AcDbEntity
100
AcDbLine
  8
0
 62
7
420
16777215
370
-1
  6
CONTINUOUS
 10
46.903874867200102
 20
55.5000000000000071
 30
0.0
 11
45.6201631542000925
 21
55.4999999999999929
 31
0.0
  0
LINE
  5
F7
100
AcDbEntity
100
AcDbLine
  8
0
 62
7
420
16777215
370
-1
  6
CONTINUOUS
 10
45.6201631542000925
 20
55.4999999999999929
 30
0.0
 11
43.9822971000000962
 21
51.0000000000000142
 31
0.0
  0
LINE
  5
F8
100
AcDbEntity
100
AcDbLine
  8
0
 62
7
420
16777215
370
-1
  6
CONTINUOUS
 10
48.5417409214001054
 20
51.0000000000000142
 30
0.0
 11
50.2654824000001099
 21
51.0000000000000142
 31
0.0
  0
LINE
  5
F9
100
AcDbEntity
100
AcDbLine
  8
0
 62
7
420
16777215
370
-1
  6
CONTINUOUS
 10
48.5417409214001054
 20
51.0000000000000142
 30
0.0
 11
46.903874867200102
 21
55.5000000000000071
 31
0.0
  0
LINE
  5
FA
100
AcDbEntity
100
AcDbLine
  8
0
 62
7
420
16777215
370
-1
  6
CONTINUOUS
 10
53.1870601672001158
 20
55.5000000000000142
 30
0.0
 11
51.9033484542001133
 21
55.5000000000000071
 31
0.0
  0
LINE
  5
FB
100
AcDbEntity
100
AcDbLine
  8
0
 62
7
420
16777215
370
-1
  6
CONTINUOUS
 10
51.9033484542001133
 20
55.5000000000000071
 30
0.0
 11
50.2654824000001099
 21
51.0000000000000142
 31
0.0
  0
LINE
  5
FC
100
AcDbEntity
100
AcDbLine
  8
0
 62
7
420
16777215
370
-1
  6
CONTINUOUS
 10
54.8249262214001192
 20
51.0000000000000071
 30
0.0
 11
56.5486677000001237
 21
51.0000000000000142
 31
0.0
  0
LINE
  5
FD
100
AcDbEntity
100
AcDbLine
  8
0
 62
7
420
16777215
370
-1
  6
CONTINUOUS
 10
54.8249262214001192
 20
51.0000000000000071
 30
0.0
 11
53.1870601672001158
 21
55.5000000000000142
 31
0.0
  0
LINE
  5
FE
100
AcDbEntity
100
AcDbLine
  8
0
 62
7
420
16777215
370
-1
  6
CONTINUOUS
 10
59.4702454672001295
 20
55.5000000000000071
 30
0.0
 11
58.1865337542001271
 21
55.5000000000000071
 31
0.0
  0
LINE
  5
FF
100
AcDbEntity
100
AcDbLine
  8
0
 62
7
420
16777215
370
-1
  6
CONTINUOUS
 10
58.1865337542001271
 20
55.5000000000000071
 30
0.0
 11
56.5486677000001237
 21
51.0000000000000142
 31
0.0
  0
LINE
  5
100
100
AcDbEntity
100
AcDbLine
  8
0
 62
7
420
16777215
370
-1
  6
CONTINUOUS
 10
61.1081115214001329
 20
51.0000000000000142
 30
0.0
 11
62.8318530000001374
 21
51.0000000000000071
 31
0.0
  0
LINE
  5
101
100
AcDbEntity
100
AcDbLine
  8
0
 62
7
420
16777215
370
-1
  6
CONTINUOUS
 10
61.1081115214001329
 20
51.0000000000000142
 30
0.0
 11
59.4702454672001295
 21
55.5000000000000071
 31
0.0
  0
LINE
  5
102
100
AcDbEntity
100
AcDbLine
  8
0
 62
7
420
16777215
370
-1
  6
CONTINUOUS
 10
65.7534307672001432
 20
55.5000000000000142
 30
0.0
 11
64.4697190542001408
 21
55.5000000000000071
 31
0.0
  0
LINE
  5
103
100
AcDbEntity
100
AcDbLine
  8
0
 62
7
420
16777215
370
-1
  6
CONTINUOUS
 10
64.4697190542001408
 20
55.5000000000000071
 30
0.0
 11
62.8318530000001374
 21
51.0000000000000071
 31
0.0
  0
LINE
  5
104
100
AcDbEntity
100
AcDbLine
  8
0
 62
7
420
16777215
370
-1
  6
CONTINUOUS
 10
67.3912968214001467
 20
51.0000000000000071
 30
0.0
 11
69.1150383000001511
 21
51.0000000000000142
 31
0.0
  0
LINE
  5
105
100
AcDbEntity
100
AcDbLine
  8
0
 62
7
420
16777215
370
-1
  6
CONTINUOUS
 10
67.3912968214001467
 20
51.0000000000000071
 30
0.0
 11
65.7534307672001432
 21
55.5000000000000142
 31
0.0
  0
LINE
  5
106
100
AcDbEntity
100
AcDbLine
  8
0
 62
7
420
16777215
370
-1
  6
CONTINUOUS
 10
72.036616067200157
 20
55.5000000000000142
 30
0.0
 11
70.7529043542001546
 21
55.5000000000000142
 31
0.0
  0
LINE
  5
107
100
AcDbEntity
100
AcDbLine
  8
0
 62
7
420
16777215
370
-1
  6
CONTINUOUS
 10
70.7529043542001546
 20
55.5000000000000142
 30
0.0
 11
69.1150383000001511
 21
51.0000000000000142
 31
0.0
  0
LINE
  5
108
100
AcDbEntity
100
AcDbLine
  8
0
 62
7
420
16777215
370
-1
  6
CONTINUOUS
 10
73.6744821214001604
 20
51.0000000000000142
 30
0.0
 11
75.3982236000001649
 21
51.0000000000000142
 31
0.0
  0
LINE
  5
109
100
AcDbEntity
100
AcDbLine
  8
0
 62
7
420
16777215
370
-1
  6
CONTINUOUS
 10
73.6744821214001604
 20
51.0000000000000142
 30
0.0
 11
72.036616067200157
 21
55.5000000000000142
 31
0.0
  0
LINE
  5
10A
100
AcDbEntity
100
AcDbLine
  8
0
 62
7
420
16777215
370
-1
  6
CONTINUOUS
 10
78.3198013672001707
 20
55.5000000000000071
 30
0.0
 11
77.0360896542001683
 21
55.5000000000000071
 31
0.0
  0
LINE
  5
10B
100
AcDbEntity
100
AcDbLine
  8
0
 62
7
420
16777215
370
-1
  6
CONTINUOUS
 10
77.0360896542001683
 20
55.5000000000000071
 30
0.0
 11
75.3982236000001649
 21
51.0000000000000142
 31
0.0
  0
LINE
  5
10C
100
AcDbEntity
100
AcDbLine
  8
0
 62
7
420
16777215
370
-1
  6
CONTINUOUS
 10
79.9576674214001741
 20
51.0000000000000142
 30
0.0
 11
81.6814089000001786
 21
51.0000000000000142
 31
0.0
  0
LINE
  5
10D
100
AcDbEntity
100
AcDbLine
  8
0
 62
7
420
16777215
370
-1
  6
CONTINUOUS
 10
79.9576674214001741
 20
51.0000000000000142
 30
0.0
 11
78.3198013672001707
 21
55.5000000000000071
 31
0.0
  0
LINE
  5
10E
100
AcDbEntity
100
AcDbLine
  8
0
 62
7
420
16777215
370
-1
  6
CONTINUOUS
 10
84.6029866672001845
 20
55.5000000000000071
 30
0.0
 11
83.319274954200182
 21
55.5000000000000071
 31
0.0
  0
LINE
  5
10F
100
AcDbEntity
100
AcDbLine
  8
0
 62
7
420
16777215
370
-1
  6
CONTINUOUS
 10
83.319274954200182
 20
55.5000000000000071
 30
0.0
 11
81.6814089000001786
 21
51.0000000000000142
 31
0.0
  0
LINE
  5
110
100
AcDbEntity
100
AcDbLine
  8
0
 62
7
420
16777215
370
-1
  6
CONTINUOUS
 10
86.2408527214001879
 20
51.0000000000000071
 30
0.0
 11
87.9645942000001924
 21
51.0000000000000142
 31
0.0
  0
LINE
  5
111
100
AcDbEntity
100
AcDbLine
  8
0
 62
7
420
16777215
370
-1
  6
CONTINUOUS
 10
86.2408527214001879
 20
51.0000000000000071
 30
0.0
 11
84.6029866672001845
 21
55.5000000000000071
 31
0.0
  0
LINE
  5
112
100
AcDbEntity
100
AcDbLine
  8
0
 62
7
420
16777215
370
-1
  6
CONTINUOUS
 10
90.8861719672001982
 20
55.5000000000000071
 30
0.0
 11
89.6024602542001958
 21
55.5000000000000142
 31
0.0
  0
LINE
  5
113
100
AcDbEntity
100
AcDbLine
  8
0
 62
7
420
16777215
370
-1
  6
CONTINUOUS
 10
89.6024602542001958
 20
55.5000000000000142
 30
0.0
 11
87.9645942000001924
 21
51.0000000000000142
 31
0.0
  0
LINE
  5
114
100
AcDbEntity
100
AcDbLine
  8
0
 62
7
420
16777215
370
-1
  6
CONTINUOUS
 10
92.5240380214002016
 20
51.0000000000000071
 30
0.0
 11
94.2477795000002061
 21
51.0000000000000142
 31
0.0
  0
LINE
  5
115
100
AcDbEntity
100
AcDbLine
  8
0
 62
7
420
16777215
370
-1
  6
CONTINUOUS
 10
92.5240380214002016
 20
51.0000000000000071
 30
0.0
 11
90.8861719672001982
 21
55.5000000000000071
 31
0.0
  0
LINE
  5
116
100
AcDbEntity
100
AcDbLine
  8
0
 62
7
420
16777215
370
-1
  6
CONTINUOUS
 10
97.1693572672002119
 20
55.5000000000000142
 30
0.0
 11
95.8856455542002095
 21
55.5000000000000071
 31
0.0
  0
LINE
  5
117
100
AcDbEntity
100
AcDbLine
  8
0
 62
7
420
16777215
370
-1
  6
CONTINUOUS
 10
95.8856455542002095
 20
55.5000000000000071
 30
0.0
 11
94.2477795000002061
 21
51.0000000000000142
 31
0.0
  0
LINE
  5
118
100
AcDbEntity
100
AcDbLine
  8
0
 62
7
420
16777215
370
-1
  6
CONTINUOUS
 10
98.8072233214002154
 20
51.0000000000000071
 30
0.0
 11
100.5309648000002198
 21
51.0000000000000071
 31
0.0
  0
LINE
  5
119
100
AcDbEntity
100
AcDbLine
  8
0
 62
7
420
16777215
370
-1
  6
CONTINUOUS
 10
98.8072233214002154
 20
51.0000000000000071
 30
0.0
 11
97.1693572672002119
 21
55.5000000000000142
 31
0.0
  0
LINE
  5
11A
100
AcDbEntity
100
AcDbLine
  8
0
 62
7
420
16777215
370
-1
  6
CONTINUOUS
 10
103.4525425672002257
 20
55.5000000000000071
 30
0.0
 11
102.1688308542002233
 21
55.5000000000000142
 31
0.0
  0
LINE
  5
11B
100
AcDbEntity
100
AcDbLine
  8
0
 62
7
420
16777215
370
-1
  6
CONTINUOUS
 10
102.1688308542002233
 20
55.5000000000000142
 30
0.0
 11
100.5309648000002198
 21
51.0000000000000071
 31
0.0
  0
LINE
  5
11C
100
AcDbEntity
100
AcDbLine
  8
0
 62
7
420
16777215
370
-1
  6
CONTINUOUS
 10
105.0904086214002291
 20
51.0000000000000071
 30
0.0
 11
106.8141501000002336
 21
51.0000000000000142
 31
0.0
  0
LINE
  5
11D
100
AcDbEntity
100
AcDbLine
  8
0
 62
7
420
16777215
370
-1
  6
CONTINUOUS
 10
105.0904086214002291
 20
51.0000000000000071
 30
0.0
 11
103.4525425672002257
 21
55.5000000000000071
 31
0.0
  0
LINE
  5
11E
100
AcDbEntity
100
AcDbLine
  8
0
 62
7
420
16777215
370
-1
  6
CONTINUOUS
 10
109.7357278672002394
 20
55.5
 30
0.0
 11
108.452016154200237
 21
55.5000000000000071
 31
0.0
  0
LINE
  5
11F
100
AcDbEntity
100
AcDbLine
  8
0
 62
7
420
16777215
370
-1
  6
CONTINUOUS
 10
108.452016154200237
 20
55.5000000000000071
 30
0.0
 11
106.8141501000002336
 21
51.0000000000000142
 31
0.0
  0
LINE
  5
120
100
AcDbEntity
100
AcDbLine
  8
0
 62
7
420
16777215
370
-1
  6
CONTINUOUS
 10
111.3735939214002428
 20
51.0000000000000142
 30
0.0
 11
113.0973354000002473
 21
51.0000000000000071
 31
0.0
  0
LINE
  5
121
100
AcDbEntity
100
AcDbLine
  8
0
 62
7
420
16777215
370
-1
  6
CONTINUOUS
 10
111.3735939214002428
 20
51.0000000000000142
 30
0.0
 11
109.7357278672002394
 21
55.5
 31
0.0
  0
LINE
  5
122
100
AcDbEntity
100
AcDbLine
  8
0
 62
7
420
16777215
370
-1
  6
CONTINUOUS
 10
116.0189131672002532
 20
55.5000000000000213
 30
0.0
 11
114.7352014542002507
 21
55.4999999999999929
 31
0.0
  0
LINE
  5
123
100
AcDbEntity
100
AcDbLine
  8
0
 62
7
420
16777215
370
-1
  6
CONTINUOUS
 10
114.7352014542002507
 20
55.4999999999999929
 30
0.0
 11
113.0973354000002473
 21
51.0000000000000071
 31
0.0
  0
LINE
  5
124
100
AcDbEntity
100
AcDbLine
  8
0
 62
7
420
16777215
370
-1
  6
CONTINUOUS
 10
117.6567792214002566
 20
51.0000000000000142
 30
0.0
 11
119.3805207000002611
 21
50.9999999999999858
 31
0.0
  0
LINE
  5
125
100
AcDbEntity
100
AcDbLine
  8
0
 62
7
420
16777215
370
-1
  6
CONTINUOUS
 10
117.6567792214002566
 20
51.0000000000000142
 30
0.0
 11
116.0189131672002532
 21
55.5000000000000213
 31
0.0
  0
LINE
  5
126
100
AcDbEntity
100
AcDbLine
  8
0
 62
7
420
16777215
370
-1
  6
CONTINUOUS
 10
122.3020984672002669
 20
55.5000000000000213
 30
0.0
 11
121.0183867542002645
 21
55.4999999999999929
 31
0.0
  0
LINE
  5
127
100
AcDbEntity
100
AcDbLine
  8
0
 62
7
420
16777215
370
-1
  6
CONTINUOUS
 10
121.0183867542002645
 20
55.4999999999999929
 30
0.0
 11
119.3805207000002611
 21
50.9999999999999858
 31
0.0
  0
LINE
  5
128
100
AcDbEntity
100
AcDbLine
  8
0
 62
7
420
16777215
370
-1
  6
CONTINUOUS
 10
123.9399645214002703
 20
51.0000000000000142
 30
0.0
 11
125.6637060000002748
 21
51.0000000000000142
 31
0.0
  0
LINE
  5
129
100
AcDbEntity
100
AcDbLine
  8
0
 62
7
420
16777215
370
-1
  6
CONTINUOUS
 10
123.9399645214002703
 20
51.0000000000000142
 30
0.0
 11
122.3020984672002669
 21
55.5000000000000213
 31
0.0
  0
LINE
  5
12A
100
AcDbEntity
100
AcDbLine
  8
0
 62
7
420
16777215
370
-1
  6
CONTINUOUS
 10
128.5852837672002806
 20
55.4999999999999929
 30
0.0
 11
127.3015720542002782
 21
55.4999999999999858
 31
0.0
  0
LINE
  5
12B
100
AcDbEntity
100
AcDbLine
  8
0
 62
7
420
16777215
370
-1
  6
CONTINUOUS
 10
127.3015720542002782
 20
55.4999999999999858
 30
0.0
 11
125.6637060000002748
 21
51.0000000000000142
 31
0.0
  0
LINE
  5
12C
100
AcDbEntity
100
AcDbLine
  8
0
 62
7
420
16777215
370
-1
  6
CONTINUOUS
 10
130.2231498214002841
 20
50.9999999999999929
 30
0.0
 11
131.9468913000002885
 21
50.9999999999999929
 31
0.0
  0
LINE
  5
12D
100
AcDbEntity
100
AcDbLine
  8
0
 62
7
420
16777215
370
-1
  6
CONTINUOUS
 10
130.2231498214002841
 20
50.9999999999999929
 30
0.0
 11
128.5852837672002806
 21
55.4999999999999929
 31
0.0
  0
LINE
  5
12E
100
AcDbEntity
100
AcDbLine
  8
0
 62
7
420
16777215
370
-1
  6
CONTINUOUS
 10
134.8684690672002944
 20
55.5000000000000355
 30
0.0
 11
133.584757354200292
 21
55.5000000000000213
 31
0.0
  0
LINE
  5
12F
100
AcDbEntity
100
AcDbLine
  8
0
 62
7
420
16777215
370
-1
  6
CONTINUOUS
 10
133.584757354200292
 20
55.5000000000000213
 30
0.0
 11
131.9468913000002885
 21
50.9999999999999929
 31
0.0
  0
LINE
  5
130
100
AcDbEntity
100
AcDbLine
  8
0
 62
7
420
16777215
370
-1
  6
CONTINUOUS
 10
136.5063351214002978
 20
51.0
 30
0.0
 11
138.2300766000003023
 21
51.0000000000000355
 31
0.0
  0
LINE
  5
131
100
AcDbEntity
100
AcDbLine
  8
0
 62
7
420
16777215
370
-1
  6
CONTINUOUS
 10
136.5063351214002978
 20
51.0
 30
0.0
 11
134.8684690672002944
 21
55.5000000000000355
 31
0.0
  0
LINE
  5
132
100
AcDbEntity
100
AcDbLine
  8
0
 62
7
420
16777215
370
-1
  6
CONTINUOUS
 10
141.1516543672003081
 20
55.5000000000000355
 30
0.0
 11
139.8679426542003057
 21
55.4999999999999929
 31
0.0
  0
LINE
  5
133
100
AcDbEntity
100
AcDbLine
  8
0
 62
7
420
16777215
370
-1
  6
CONTINUOUS
 10
139.8679426542003057
 20
55.4999999999999929
 30
0.0
 11
138.2300766000003023
 21
51.0000000000000355
 31
0.0
  0
LINE
  5
134
100
AcDbEntity
100
AcDbLine
  8
0
 62
7
420
16777215
370
-1
  6
CONTINUOUS
 10
142.7895204214003115
 20
51.0000000000000639
 30
0.0
 11
144.513261900000316
 21
50.9999999999999716
 31
0.0
  0
LINE
  5
135
100
AcDbEntity
100
AcDbLine
  8
0
 62
7
420
16777215
370
-1
  6
CONTINUOUS
 10
142.7895204214003115
 20
51.0000000000000639
 30
0.0
 11
141.1516543672003081
 21
55.5000000000000355
 31
0.0
  0
LINE
  5
136
100
AcDbEntity
100
AcDbLine
  8
0
 62
7
420
16777215
370
-1
  6
CONTINUOUS
 10
147.4348396672003219
 20
55.5000000000000071
 30
0.0
 11
146.1511279542003194
 21
55.5000000000000426
 31
0.0
  0
LINE
  5
137
100
AcDbEntity
100
AcDbLine
  8
0
 62
7
420
16777215
370
-1
  6
CONTINUOUS
 10
146.1511279542003194
 20
55.5000000000000426
 30
0.0
 11
144.513261900000316
 21
50.9999999999999716
 31
0.0
  0
LINE
  5
138
100
AcDbEntity
100
AcDbLine
  8
0
 62
7
420
16777215
370
-1
  6
CONTINUOUS
 10
149.0727057214003253
 20
51.0000000000000213
 30
0.0
 11
150.7964472000003298
 21
51.0000000000000711
 31
0.0
  0
LINE
  5
139
100
AcDbEntity
100
AcDbLine
  8
0
 62
7
420
16777215
370
-1
  6
CONTINUOUS
 10
149.0727057214003253
 20
51.0000000000000213
 30
0.0
 11
147.4348396672003219
 21
55.5000000000000071
 31
0.0
  0
LINE
  5
13A
100
AcDbEntity
100
AcDbLine
  8
0
 62
7
420
16777215
370
-1
  6
CONTINUOUS
 10
153.7180249672003356
 20
55.4999999999999929
 30
0.0
 11
152.4343132542003332
 21
55.4999999999999929
 31
0.0
  0
LINE
  5
13B
100
AcDbEntity
100
AcDbLine
  8
0
 62
7
420
16777215
370
-1
  6
CONTINUOUS
 10
152.4343132542003332
 20
55.4999999999999929
 30
0.0
 11
150.7964472000003298
 21
51.0000000000000711
 31
0.0
  0
LINE
  5
13C
100
AcDbEntity
100
AcDbLine
  8
0
 62
7
420
16777215
370
-1
  6
CONTINUOUS
 10
155.355891021400339
 20
50.9999999999999858
 30
0.0
 11
153.7180249672003356
 21
55.4999999999999929
 31
0.0
  0
LINE
  5
13D
100
AcDbEntity
100
AcDbLine
  8
0
 62
256
370
-1
  6
ByLayer
 10
155.355891021400339
 20
50.9999999999999858
 30
0.0
 11
155.355891021400339
 21
31.9999999999999361
 31
0.0
  0
LINE
  5
13E
100
AcDbEntity
100
AcDbLine
  8
0
 62
256
370
-1
  6
ByLayer
 10
0.0
 20
50.9999999999999858
 30
0.0
 11
0.0
 21
32.0
 31
0.0
  0
LINE
  5
13F
100
AcDbEntity
100
AcDbLine
  8
0
 62
256
370
-1
  6
ByLayer
 10
0.0
 20
32.0
 30
0.0
 11
1.1504440999999588
 21
32.0000000000000568
 31
0.0
  0
ENDSEC
  0
SECTION
  2
OBJECTS
  0
DICTIONARY
  5
C
100
AcDbDictionary
280
0
281
1
  3
ACAD_GROUP
350
D
  3
ACAD_LAYOUT
350
1A
  3
ACAD_MLINESTYLE
350
17
  3
ACAD_PLOTSETTINGS
350
19
  3
ACAD_PLOTSTYLENAME
350
E
  3
AcDbVariableDictionary
350
140
  0
DICTIONARY
  5
D
100
AcDbDictionary
280
0
281
1
  0
ACDBDICTIONARYWDFLT
  5
E
100
AcDbDictionary
281
1
  3
Normal
350
F
100
AcDbDictionaryWithDefault
340
F
  0
ACDBPLACEHOLDER
  5
F
  0
DICTIONARY
  5
17
100
AcDbDictionary
280
0
281
1
  3
Standard
350
18
  0
MLINESTYLE
  5
18
100
AcDbMlineStyle
  2
STANDARD
 70
0
  3

 62
256
 51
90.0
 52
90.0
 71
2
 49
0.5
 62
256
  6
BYLAYER
 49
-0.5
 62
256
  6
BYLAYER
  0
DICTIONARY
  5
19
100
AcDbDictionary
280
0
281
1
  0
DICTIONARY
  5
1A
100
AcDbDictionary
281
1
  3
Layout1
350
1E
  3
Layout2
350
26
  3
Model
350
22
  0
LAYOUT
  5
1E
100
AcDbPlotSettings
  1

  2
C:\Program Files\AutoCAD 2002\plotters\DWF ePlot (optimized for plotting).pc3
  4

  6

 40
0.0
 41
0.0
 42
0.0
 43
0.0
 44
0.0
 45
0.0
 46
0.0
 47
0.0
 48
0.0
 49
0.0
140
0.0
141
0.0
142
1.0
143
1.0
 70
688
 72
0
 73
0
 74
5
  7

 75
16
147
1.0
148
0.0
149
0.0
100
AcDbLayout
  1
Layout1
 70
1
 71
1
 10
0.0
 20
0.0
 11
420.0
 21
297.0
 12
0.0
 22
0.0
 32
0.0
 14
100000000000000000000.0
 24
100000000000000000000.0
 34
100000000000000000000.0
 15
-100000000000000000000.0
 25
-100000000000000000000.0
 35
-100000000000000000000.0
146
0.0
 13
0.0
 23
0.0
 33
0.0
 16
1.0
 26
0.0
 36
0.0
 17
0.0
 27
1.0
 37
0.0
 76
0
330
1B
  0
LAYOUT
  5
22
100
AcDbPlotSettings
  1

  2
C:\Program Files\AutoCAD 2002\plotters\DWF ePlot (optimized for plotting).pc3
  4

  6

 40
0.0
 41
0.0
 42
0.0
 43
0.0
 44
0.0
 45
0.0
 46
0.0
 47
0.0
 48
0.0
 49
0.0
140
0.0
141
0.0
142
1.0
143
1.0
 70
1712
 72
0
 73
0
 74
0
  7

 75
0
147
1.0
148
0.0
149
0.0
100
AcDbLayout
  1
Model
 70
1
 71
0
 10
0.0
 20
0.0
 11
12.0
 21
9.0
 12
0.0
 22
0.0
 32
0.0
 14
0.0
 24
0.0
 34
0.0
 15
0.0
 25
0.0
 35
0.0
146
0.0
 13
0.0
 23
0.0
 33
0.0
 16
1.0
 26
0.0
 36
0.0
 17
0.0
 27
1.0
 37
0.0
 76
0
330
1F
  0
LAYOUT
  5
26
100
AcDbPlotSettings
  1

  2
C:\Program Files\AutoCAD 2002\plotters\DWF ePlot (optimized for plotting).pc3
  4

  6

 40
0.0
 41
0.0
 42
0.0
 43
0.0
 44
0.0
 45
0.0
 46
0.0
 47
0.0
 48
0.0
 49
0.0
140
0.0
141
0.0
142
1.0
143
1.0
 70
688
 72
0
 73
0
 74
5
  7

 75
16
147
1.0
148
0.0
149
0.0
100
AcDbLayout
  1
Layout2
 70
1
 71
2
 10
0.0
 20
0.0
 11
12.0
 21
9.0
 12
0.0
 22
0.0
 32
0.0
 14
0.0
 24
0.0
 34
0.0
 15
0.0
 25
0.0
 35
0.0
146
0.0
 13
0.0
 23
0.0
 33
0.0
 16
1.0
 26
0.0
 36
0.0
 17
0.0
 27
1.0
 37
0.0
 76
0
330
23
  0
DICTIONARY
  5
140
100
AcDbDictionary
281
1
  3
DIMASSOC
350
142
  3
HIDETEXT
350
141
  0
DICTIONARYVAR
  5
141
100
DictionaryVariables
280
0
  1
2
  0
DICTIONARYVAR
  5
142
100
DictionaryVariables
280
0
  1
1
  0
ENDSEC
  0
EOF
