999
dxflib 2.2.0.0
  0
SECTION
  2
HEADER
  9
$ACADVER
  1
AC1015
  9
$HANDSEED
  5
FFFF
  9
$DIMASZ
 40
2.5
  9
$PLIMMIN
 10
0.0
 20
0.0
  9
$DIMEXE
 40
1.25
  9
$DIMGAP
 40
0.625
  9
$PLIMMAX
 10
210.0
 20
297.0
  9
$INSUNITS
 70
4
  9
$DIMEXO
 40
0.625
  9
$DIMTXT
 40
2.5
  9
$CLAYER
  8
0
  0
ENDSEC
  0
SECTION
  2
TABLES
  0
TABLE
  2
VPORT
  5
8
100
AcDbSymbolTable
 70
1
  0
VPORT
  5
30
100
AcDbSymbolTableRecord
100
AcDbViewportTableRecord
  2
*Active
 70
0
 10
0.0
 20
0.0
 11
1.0
 21
1.0
 12
286.3055555555554861
 22
148.5
 13
0.0
 23
0.0
 14
10.0
 24
10.0
 15
10.0
 25
10.0
 16
0.0
 26
0.0
 36
1.0
 17
0.0
 27
0.0
 37
0.0
 40
297.0
 41
1.92798353909465
 42
50.0
 43
0.0
 44
0.0
 50
0.0
 51
0.0
 71
0
 72
100
 73
1
 74
3
 75
1
 76
1
 77
0
 78
0
281
0
 65
1
110
0.0
120
0.0
130
0.0
111
1.0
121
0.0
131
0.0
112
0.0
122
1.0
132
0.0
 79
0
146
0.0
  0
ENDTAB
  0
TABLE
  2
LTYPE
  5
5
100
AcDbSymbolTable
 70
21
  0
LTYPE
  5
14
100
AcDbSymbolTableRecord
100
AcDbLinetypeTableRecord
  2
ByBlock
 70
0
  3

 72
65
 73
0
 40
0.0
  0
LTYPE
  5
15
100
AcDbSymbolTableRecord
100
AcDbLinetypeTableRecord
  2
ByLayer
 70
0
  3

 72
65
 73
0
 40
0.0
  0
LTYPE
  5
16
100
AcDbSymbolTableRecord
100
AcDbLinetypeTableRecord
  2
CONTINUOUS
 70
0
  3
Solid line
 72
65
 73
0
 40
0.0
  0
LTYPE
  5
31
100
AcDbSymbolTableRecord
100
AcDbLinetypeTableRecord
  2
DOT
 70
0
  3
Dot . . . . . . . . . . . . . . . . . . . . . .
 72
65
 73
2
 40
6.3499999999999996
 49
0.0
 74
0
 49
-6.3499999999999996
 74
0
  0
LTYPE
  5
32
100
AcDbSymbolTableRecord
100
AcDbLinetypeTableRecord
  2
DOT2
 70
0
  3
Dot (.5x) .....................................
 72
65
 73
2
 40
3.1749999999999998
 49
0.0
 74
0
 49
-3.1749999999999998
 74
0
  0
LTYPE
  5
33
100
AcDbSymbolTableRecord
100
AcDbLinetypeTableRecord
  2
DOTX2
 70
0
  3
Dot (2x) .  .  .  .  .  .  .  .  .  .  .  .  .
 72
65
 73
2
 40
12.6999999999999993
 49
0.0
 74
0
 49
-12.6999999999999993
 74
0
  0
LTYPE
  5
34
100
AcDbSymbolTableRecord
100
AcDbLinetypeTableRecord
  2
DASHED
 70
0
  3
Dashed __ __ __ __ __ __ __ __ __ __ __ __ __ _
 72
65
 73
2
 40
19.0500000000000007
 49
12.6999999999999993
 74
0
 49
-6.3499999999999996
 74
0
  0
LTYPE
  5
35
100
AcDbSymbolTableRecord
100
AcDbLinetypeTableRecord
  2
DASHED2
 70
0
  3
Dashed (.5x) _ _ _ _ _ _ _ _ _ _ _ _ _ _ _ _ _
 72
65
 73
2
 40
9.5250000000000004
 49
6.3499999999999996
 74
0
 49
-3.1749999999999998
 74
0
  0
LTYPE
  5
36
100
AcDbSymbolTableRecord
100
AcDbLinetypeTableRecord
  2
DASHEDX2
 70
0
  3
Dashed (2x) ____  ____  ____  ____  ____  ___
 72
65
 73
2
 40
38.1000000000000014
 49
25.3999999999999986
 74
0
 49
-12.6999999999999993
 74
0
  0
LTYPE
  5
37
100
AcDbSymbolTableRecord
100
AcDbLinetypeTableRecord
  2
DASHDOT
 70
0
  3
Dash dot __ . __ . __ . __ . __ . __ . __ . __
 72
65
 73
4
 40
25.3999999999999986
 49
12.6999999999999993
 74
0
 49
-6.3499999999999996
 74
0
 49
0.0
 74
0
 49
-6.3499999999999996
 74
0
  0
LTYPE
  5
38
100
AcDbSymbolTableRecord
100
AcDbLinetypeTableRecord
  2
DASHDOT2
 70
0
  3
Dash dot (.5x) _._._._._._._._._._._._._._._.
 72
65
 73
4
 40
12.6999999999999993
 49
6.3499999999999996
 74
0
 49
-3.1749999999999998
 74
0
 49
0.0
 74
0
 49
-3.1749999999999998
 74
0
  0
LTYPE
  5
39
100
AcDbSymbolTableRecord
100
AcDbLinetypeTableRecord
  2
DASHDOTX2
 70
0
  3
Dash dot (2x) ____  .  ____  .  ____  .  ___
 72
65
 73
4
 40
50.7999999999999972
 49
25.3999999999999986
 74
0
 49
-12.6999999999999993
 74
0
 49
0.0
 74
0
 49
-12.6999999999999993
 74
0
  0
LTYPE
  5
3A
100
AcDbSymbolTableRecord
100
AcDbLinetypeTableRecord
  2
DIVIDE
 70
0
  3
Divide ____ . . ____ . . ____ . . ____ . . ____
 72
65
 73
6
 40
31.75
 49
12.6999999999999993
 74
0
 49
-6.3499999999999996
 74
0
 49
0.0
 74
0
 49
-6.3499999999999996
 74
0
 49
0.0
 74
0
 49
-6.3499999999999996
 74
0
  0
LTYPE
  5
3B
100
AcDbSymbolTableRecord
100
AcDbLinetypeTableRecord
  2
DIVIDE2
 70
0
  3
Divide (.5x) __..__..__..__..__..__..__..__.._
 72
65
 73
6
 40
15.875
 49
6.3499999999999996
 74
0
 49
-3.1749999999999998
 74
0
 49
0.0
 74
0
 49
-3.1749999999999998
 74
0
 49
0.0
 74
0
 49
-3.1749999999999998
 74
0
  0
LTYPE
  5
3C
100
AcDbSymbolTableRecord
100
AcDbLinetypeTableRecord
  2
DIVIDEX2
 70
0
  3
Divide (2x) ________  .  .  ________  .  .  _
 72
65
 73
6
 40
63.5
 49
25.3999999999999986
 74
0
 49
-12.6999999999999993
 74
0
 49
0.0
 74
0
 49
-12.6999999999999993
 74
0
 49
0.0
 74
0
 49
-12.6999999999999993
 74
0
  0
LTYPE
  5
3D
100
AcDbSymbolTableRecord
100
AcDbLinetypeTableRecord
  2
CENTER
 70
0
  3
Center ____ _ ____ _ ____ _ ____ _ ____ _ ____
 72
65
 73
4
 40
50.7999999999999972
 49
31.75
 74
0
 49
-6.3499999999999996
 74
0
 49
6.3499999999999996
 74
0
 49
-6.3499999999999996
 74
0
  0
LTYPE
  5
3E
100
AcDbSymbolTableRecord
100
AcDbLinetypeTableRecord
  2
CENTER2
 70
0
  3
Center (.5x) ___ _ ___ _ ___ _ ___ _ ___ _ ___
 72
65
 73
4
 40
28.5749999999999993
 49
19.0500000000000007
 74
0
 49
-3.1749999999999998
 74
0
 49
3.1749999999999998
 74
0
 49
-3.1749999999999998
 74
0
  0
LTYPE
  5
3F
100
AcDbSymbolTableRecord
100
AcDbLinetypeTableRecord
  2
CENTERX2
 70
0
  3
Center (2x) ________  __  ________  __  _____
 72
65
 73
4
 40
101.5999999999999943
 49
63.5
 74
0
 49
-12.6999999999999993
 74
0
 49
12.6999999999999993
 74
0
 49
-12.6999999999999993
 74
0
  0
LTYPE
  5
40
100
AcDbSymbolTableRecord
100
AcDbLinetypeTableRecord
  2
BORDER
 70
0
  3
Border __ __ . __ __ . __ __ . __ __ . __ __ .
 72
65
 73
6
 40
44.4500000000000028
 49
12.6999999999999993
 74
0
 49
-6.3499999999999996
 74
0
 49
12.6999999999999993
 74
0
 49
-6.3499999999999996
 74
0
 49
0.0
 74
0
 49
-6.3499999999999996
 74
0
  0
LTYPE
  5
41
100
AcDbSymbolTableRecord
100
AcDbLinetypeTableRecord
  2
BORDER2
 70
0
  3
Border (.5x) __.__.__.__.__.__.__.__.__.__.__.
 72
65
 73
6
 40
22.2250000000000014
 49
6.3499999999999996
 74
0
 49
-3.1749999999999998
 74
0
 49
6.3499999999999996
 74
0
 49
-3.1749999999999998
 74
0
 49
0.0
 74
0
 49
-3.1749999999999998
 74
0
  0
LTYPE
  5
42
100
AcDbSymbolTableRecord
100
AcDbLinetypeTableRecord
  2
BORDERX2
 70
0
  3
Border (2x) ____  ____  .  ____  ____  .  ___
 72
65
 73
6
 40
88.9000000000000057
 49
25.3999999999999986
 74
0
 49
-12.6999999999999993
 74
0
 49
25.3999999999999986
 74
0
 49
-12.6999999999999993
 74
0
 49
0.0
 74
0
 49
-12.6999999999999993
 74
0
  0
ENDTAB
  0
TABLE
  2
LAYER
  5
2
100
AcDbSymbolTable
 70
2
  0
LAYER
  5
10
100
AcDbSymbolTableRecord
100
AcDbLayerTableRecord
  2
0
 70
0
 62
7
420
0
  6
CONTINUOUS
370
25
390
F
  0
LAYER
  5
43
100
AcDbSymbolTableRecord
100
AcDbLayerTableRecord
  2
Dimension
 70
1
 62
-5
420
255
  6
CONTINUOUS
370
0
390
F
  0
ENDTAB
  0
TABLE
  2
STYLE
  5
3
100
AcDbSymbolTable
 70
1
  0
STYLE
  5
11
100
AcDbSymbolTableRecord
100
AcDbTextStyleTableRecord
  2
Standard
 70
0
 40
0.0
 41
0.75
 50
0.0
 71
0
 42
2.5
  3
txt
  4

  0
ENDTAB
  0
TABLE
  2
VIEW
  5
6
100
AcDbSymbolTable
 70
0
  0
ENDTAB
  0
TABLE
  2
UCS
  5
7
100
AcDbSymbolTable
 70
0
  0
ENDTAB
  0
TABLE
  2
APPID
  5
9
100
AcDbSymbolTable
 70
1
  0
APPID
  5
12
100
AcDbSymbolTableRecord
100
AcDbRegAppTableRecord
  2
ACAD
 70
0
  0
ENDTAB
  0
TABLE
  2
DIMSTYLE
  5
A
100
AcDbSymbolTable
 70
1
100
AcDbDimStyleTable
 71
0
  0
DIMSTYLE
105
27
100
AcDbSymbolTableRecord
100
AcDbDimStyleTableRecord
  2
Standard
 41
2.5
 42
0.625
 43
3.75
 44
1.25
 70
0
 73
0
 74
0
 77
1
 78
8
140
2.5
141
2.5
143
0.03937007874016
147
0.625
171
3
172
1
271
2
272
2
274
3
278
44
283
0
284
8
340
11
  0
ENDTAB
  0
TABLE
  2
BLOCK_RECORD
  5
1
100
AcDbSymbolTable
 70
1
  0
BLOCK_RECORD
  5
1F
100
AcDbSymbolTableRecord
100
AcDbBlockTableRecord
  2
*Model_Space
340
22
  0
BLOCK_RECORD
  5
1B
100
AcDbSymbolTableRecord
100
AcDbBlockTableRecord
  2
*Paper_Space
340
1E
  0
BLOCK_RECORD
  5
23
100
AcDbSymbolTableRecord
100
AcDbBlockTableRecord
  2
*Paper_Space0
340
26
  0
ENDTAB
  0
ENDSEC
  0
SECTION
  2
BLOCKS
  0
BLOCK
  5
20
100
AcDbEntity
  8
0
100
AcDbBlockBegin
  2
*Model_Space
 70
0
 10
0.0
 20
0.0
 30
0.0
  3
*Model_Space
  1

  0
ENDBLK
  5
21
100
AcDbEntity
  8
0
100
AcDbBlockEnd
  0
BLOCK
  5
1C
100
AcDbEntity
 67
1
  8
0
100
AcDbBlockBegin
  2
*Paper_Space
 70
0
 10
0.0
 20
0.0
 30
0.0
  3
*Paper_Space
  1

  0
ENDBLK
  5
1D
100
AcDbEntity
 67
1
  8
0
100
AcDbBlockEnd
  0
BLOCK
  5
24
100
AcDbEntity
  8
0
100
AcDbBlockBegin
  2
*Paper_Space0
 70
0
 10
0.0
 20
0.0
 30
0.0
  3
*Paper_Space0
  1

  0
ENDBLK
  5
25
100
AcDbEntity
  8
0
100
AcDbBlockEnd
  0
ENDSEC
  0
SECTION
  2
ENTITIES
  0
CIRCLE
  5
44
100
AcDbEntity
100
AcDbCircle
  8
Dimension
 62
256
370
-1
  6
ByLayer
 10
120.0
 20
120.0
 30
0.0
 40
82.5
  0
ARC
  5
45
100
AcDbEntity
  8
0
 62
256
370
-1
  6
CONTINUOUS
100
AcDbCircle
 10
120.0
 20
120.0
 30
0.0
 40
82.5010000000000048
100
AcDbArc
 50
93.9969385251000062
 51
95.0030614748999938
  0
ARC
  5
46
100
AcDbEntity
  8
0
 62
256
370
-1
  6
CONTINUOUS
100
AcDbCircle
 10
150.5374801844000103
 20
188.9098915812000143
 30
0.0
 40
40.0
100
AcDbArc
 50
160.6146728164999899
 51
167.5504840032000118
  0
ARC
  5
47
100
AcDbEntity
  8
0
 62
256
370
-1
  6
CONTINUOUS
100
AcDbCircle
 10
74.2195781105000378
 20
179.8770726186000104
 30
0.0
 40
40.0
100
AcDbArc
 50
25.9495159967999989
 51
32.8853271835000029
  0
ARC
  5
48
100
AcDbEntity
  8
0
 62
256
370
-1
  6
CONTINUOUS
100
AcDbCircle
 10
120.0
 20
120.0
 30
0.0
 40
82.5010000000000048
100
AcDbArc
 50
98.4969385251000062
 51
99.5030614748999938
  0
ARC
  5
49
100
AcDbEntity
  8
0
 62
256
370
-1
  6
CONTINUOUS
100
AcDbCircle
 10
145.0367355442000417
 20
191.0934084640999799
 30
0.0
 40
40.0
100
AcDbArc
 50
165.1146728164999899
 51
172.0504840032000118
  0
ARC
  5
4A
100
AcDbEntity
  8
0
 62
256
370
-1
  6
CONTINUOUS
100
AcDbCircle
 10
120.0
 20
120.0
 30
0.0
 40
78.0
100
AcDbArc
 50
100.7724328918999959
 51
101.7275671081000041
  0
ARC
  5
4B
100
AcDbEntity
  8
0
 62
256
370
-1
  6
CONTINUOUS
100
AcDbCircle
 10
69.6628029001999494
 20
176.1006010831999902
 30
0.0
 40
40.0
100
AcDbArc
 50
30.4495159968000024
 51
37.3853271835000029
  0
ARC
  5
4C
100
AcDbEntity
  8
0
 62
256
370
-1
  6
CONTINUOUS
100
AcDbCircle
 10
120.0
 20
120.0
 30
0.0
 40
82.5010000000000048
100
AcDbArc
 50
102.9969385251000062
 51
104.0030614748999938
  0
ARC
  5
4D
100
AcDbEntity
  8
0
 62
256
370
-1
  6
CONTINUOUS
100
AcDbCircle
 10
139.3816311038000322
 20
192.8386108428000227
 30
0.0
 40
40.0
100
AcDbArc
 50
169.6146728164999899
 51
176.5504840032000118
  0
ARC
  5
4E
100
AcDbEntity
  8
0
 62
256
370
-1
  6
CONTINUOUS
100
AcDbCircle
 10
120.0
 20
120.0
 30
0.0
 40
78.0
100
AcDbArc
 50
105.2724328918999959
 51
106.2275671081000041
  0
ARC
  5
4F
100
AcDbEntity
  8
0
 62
256
370
-1
  6
CONTINUOUS
100
AcDbCircle
 10
65.4163732488999727
 20
171.9782506867000507
 30
0.0
 40
40.0
100
AcDbArc
 50
34.9495159968000024
 51
41.8853271835000029
  0
ARC
  5
50
100
AcDbEntity
  8
0
 62
256
370
-1
  6
CONTINUOUS
100
AcDbCircle
 10
120.0
 20
120.0
 30
0.0
 40
82.5010000000000048
100
AcDbArc
 50
107.4969385251000062
 51
108.5030614748999938
  0
ARC
  5
51
100
AcDbEntity
  8
0
 62
256
370
-1
  6
CONTINUOUS
100
AcDbCircle
 10
133.6070324626000456
 20
194.1347389644000145
 30
0.0
 40
40.0
100
AcDbArc
 50
174.1146728164999899
 51
181.0504840032000118
  0
ARC
  5
52
100
AcDbEntity
  8
0
 62
256
370
-1
  6
CONTINUOUS
100
AcDbCircle
 10
120.0
 20
120.0
 30
0.0
 40
78.0
100
AcDbArc
 50
109.7724328918999959
 51
110.7275671081000041
  0
ARC
  5
53
100
AcDbEntity
  8
0
 62
256
370
-1
  6
CONTINUOUS
100
AcDbCircle
 10
61.5064698073999878
 20
167.5354370903000074
 30
0.0
 40
40.0
100
AcDbArc
 50
39.4495159968000024
 51
46.3853271835000029
  0
ARC
  5
54
100
AcDbEntity
  8
0
 62
256
370
-1
  6
CONTINUOUS
100
AcDbCircle
 10
120.0
 20
120.0
 30
0.0
 40
82.5010000000000048
100
AcDbArc
 50
111.9969385251000062
 51
113.0030614748999938
  0
ARC
  5
55
100
AcDbEntity
  8
0
 62
256
370
-1
  6
CONTINUOUS
100
AcDbCircle
 10
127.7485419414999797
 20
194.9738017679000279
 30
0.0
 40
40.0
100
AcDbArc
 50
178.6146728164999899
 51
185.5504840032000118
  0
ARC
  5
56
100
AcDbEntity
  8
0
 62
256
370
-1
  6
CONTINUOUS
100
AcDbCircle
 10
120.0
 20
120.0
 30
0.0
 40
78.0
100
AcDbArc
 50
114.2724328918999959
 51
115.2275671081000041
  0
ARC
  5
57
100
AcDbEntity
  8
0
 62
256
370
-1
  6
CONTINUOUS
100
AcDbCircle
 10
57.9571984305999877
 20
162.7995517170000142
 30
0.0
 40
40.0
100
AcDbArc
 50
43.9495159968000024
 51
50.8853271835000029
  0
ARC
  5
58
100
AcDbEntity
  8
0
 62
256
370
-1
  6
CONTINUOUS
100
AcDbCircle
 10
120.0
 20
120.0
 30
0.0
 40
82.5010000000000048
100
AcDbArc
 50
116.496938525099992
 51
117.503061474900008
  0
ARC
  5
59
100
AcDbEntity
  8
0
 62
256
370
-1
  6
CONTINUOUS
100
AcDbCircle
 10
121.8422790826000437
 20
195.3506261522000216
 30
0.0
 40
40.0
100
AcDbArc
 50
183.1146728164999899
 51
190.0504840032000118
  0
ARC
  5
5A
100
AcDbEntity
  8
0
 62
256
370
-1
  6
CONTINUOUS
100
AcDbCircle
 10
120.0
 20
120.0
 30
0.0
 40
78.0
100
AcDbArc
 50
118.7724328918999817
 51
119.7275671081000041
  0
ARC
  5
5B
100
AcDbEntity
  8
0
 62
256
370
-1
  6
CONTINUOUS
100
AcDbCircle
 10
54.7904415568999639
 20
157.7997928751999837
 30
0.0
 40
40.0
100
AcDbArc
 50
48.4495159968000024
 51
55.3853271835000029
  0
ARC
  5
5C
100
AcDbEntity
  8
0
 62
256
370
-1
  6
CONTINUOUS
100
AcDbCircle
 10
120.0
 20
120.0
 30
0.0
 40
82.5010000000000048
100
AcDbArc
 50
120.996938525099992
 51
122.003061474900008
  0
ARC
  5
5D
100
AcDbEntity
  8
0
 62
256
370
-1
  6
CONTINUOUS
100
AcDbCircle
 10
115.9246579606000296
 20
195.2628888697000207
 30
0.0
 40
40.0
100
AcDbArc
 50
187.6146728164999899
 51
194.5504840032000118
  0
ARC
  5
5E
100
AcDbEntity
  8
0
 62
256
370
-1
  6
CONTINUOUS
100
AcDbCircle
 10
120.0
 20
120.0
 30
0.0
 40
78.0
100
AcDbArc
 50
123.2724328918999817
 51
124.2275671081000041
  0
ARC
  5
5F
100
AcDbEntity
  8
0
 62
256
370
-1
  6
CONTINUOUS
100
AcDbCircle
 10
52.025723295299926
 20
152.56698574050003
 30
0.0
 40
40.0
100
AcDbArc
 50
52.9495159968000024
 51
59.8853271835000029
  0
ARC
  5
60
100
AcDbEntity
  8
0
 62
256
370
-1
  6
CONTINUOUS
100
AcDbCircle
 10
120.0
 20
120.0
 30
0.0
 40
82.5010000000000048
100
AcDbArc
 50
125.496938525099992
 51
126.503061474900008
  0
ARC
  5
61
100
AcDbEntity
  8
0
 62
256
370
-1
  6
CONTINUOUS
100
AcDbCircle
 10
110.0321626774999686
 20
194.7111308499000017
 30
0.0
 40
40.0
100
AcDbArc
 50
192.1146728164999899
 51
199.0504840032000118
  0
ARC
  5
62
100
AcDbEntity
  8
0
 62
256
370
-1
  6
CONTINUOUS
100
AcDbCircle
 10
120.0
 20
120.0
 30
0.0
 40
78.0
100
AcDbArc
 50
127.7724328918999817
 51
128.7275671081000041
  0
ARC
  5
63
100
AcDbEntity
  8
0
 62
256
370
-1
  6
CONTINUOUS
100
AcDbCircle
 10
49.6800890532999944
 20
147.1333923092000475
 30
0.0
 40
40.0
100
AcDbArc
 50
57.4495159968000024
 51
64.3853271834999958
  0
ARC
  5
64
100
AcDbEntity
  8
0
 62
256
370
-1
  6
CONTINUOUS
100
AcDbCircle
 10
120.0
 20
120.0
 30
0.0
 40
82.5010000000000048
100
AcDbArc
 50
129.9969385251000062
 51
131.0030614748999938
  0
ARC
  5
65
100
AcDbEntity
  8
0
 62
256
370
-1
  6
CONTINUOUS
100
AcDbCircle
 10
104.2011224261000422
 20
193.6987538643000448
 30
0.0
 40
40.0
100
AcDbArc
 50
196.6146728164999899
 51
203.5504840032000118
  0
ARC
  5
66
100
AcDbEntity
  8
0
 62
256
370
-1
  6
CONTINUOUS
100
AcDbCircle
 10
120.0
 20
120.0
 30
0.0
 40
78.0
100
AcDbArc
 50
132.2724328918999959
 51
133.2275671081000041
  0
ARC
  5
67
100
AcDbEntity
  8
0
 62
256
370
-1
  6
CONTINUOUS
100
AcDbCircle
 10
47.7680004461000181
 20
141.5325124914000412
 30
0.0
 40
40.0
100
AcDbArc
 50
61.9495159968000024
 51
68.8853271834999958
  0
ARC
  5
68
100
AcDbEntity
  8
0
 62
256
370
-1
  6
CONTINUOUS
100
AcDbCircle
 10
120.0
 20
120.0
 30
0.0
 40
82.5010000000000048
100
AcDbArc
 50
134.4969385251000062
 51
135.5030614748999938
  0
ARC
  5
69
100
AcDbEntity
  8
0
 62
256
370
-1
  6
CONTINUOUS
100
AcDbCircle
 10
98.4674875084999712
 20
192.2319995539000388
 30
0.0
 40
40.0
100
AcDbArc
 50
201.1146728164999899
 51
208.0504840032000118
  0
ARC
  5
6A
100
AcDbEntity
  8
0
 62
256
370
-1
  6
CONTINUOUS
100
AcDbCircle
 10
120.0
 20
120.0
 30
0.0
 40
78.0
100
AcDbArc
 50
136.7724328918999959
 51
137.7275671081000041
  0
ARC
  5
6B
100
AcDbEntity
  8
0
 62
256
370
-1
  6
CONTINUOUS
100
AcDbCircle
 10
46.3012461355999676
 20
135.7988775739000289
 30
0.0
 40
40.0
100
AcDbArc
 50
66.4495159968000024
 51
73.3853271834999958
  0
ARC
  5
6C
100
AcDbEntity
  8
0
 62
256
370
-1
  6
CONTINUOUS
100
AcDbCircle
 10
120.0
 20
120.0
 30
0.0
 40
82.5010000000000048
100
AcDbArc
 50
138.9969385251000062
 51
140.0030614748999938
  0
ARC
  5
6D
100
AcDbEntity
  8
0
 62
256
370
-1
  6
CONTINUOUS
100
AcDbCircle
 10
92.8666076908000377
 20
190.3199109467000198
 30
0.0
 40
40.0
100
AcDbArc
 50
205.6146728164999899
 51
212.5504840032000118
  0
ARC
  5
6E
100
AcDbEntity
  8
0
 62
256
370
-1
  6
CONTINUOUS
100
AcDbCircle
 10
120.0
 20
120.0
 30
0.0
 40
78.0
100
AcDbArc
 50
141.2724328918999959
 51
142.2275671081000041
  0
ARC
  5
6F
100
AcDbEntity
  8
0
 62
256
370
-1
  6
CONTINUOUS
100
AcDbCircle
 10
45.2888691501000267
 20
129.9678373225000314
 30
0.0
 40
40.0
100
AcDbArc
 50
70.9495159968000024
 51
77.8853271834999958
  0
ARC
  5
70
100
AcDbEntity
  8
0
 62
256
370
-1
  6
CONTINUOUS
100
AcDbCircle
 10
120.0
 20
120.0
 30
0.0
 40
82.5010000000000048
100
AcDbArc
 50
143.4969385251000062
 51
144.5030614748999938
  0
ARC
  5
71
100
AcDbEntity
  8
0
 62
256
370
-1
  6
CONTINUOUS
100
AcDbCircle
 10
87.4330142594999415
 20
187.9742767047000029
 30
0.0
 40
40.0
100
AcDbArc
 50
210.1146728164999899
 51
217.0504840032000118
  0
ARC
  5
72
100
AcDbEntity
  8
0
 62
256
370
-1
  6
CONTINUOUS
100
AcDbCircle
 10
120.0
 20
120.0
 30
0.0
 40
78.0
100
AcDbArc
 50
145.7724328918999959
 51
146.7275671081000041
  0
ARC
  5
73
100
AcDbEntity
  8
0
 62
256
370
-1
  6
CONTINUOUS
100
AcDbCircle
 10
44.7371111303000362
 20
124.0753420393000681
 30
0.0
 40
40.0
100
AcDbArc
 50
75.4495159968000024
 51
82.3853271834999958
  0
ARC
  5
74
100
AcDbEntity
  8
0
 62
256
370
-1
  6
CONTINUOUS
100
AcDbCircle
 10
120.0
 20
120.0
 30
0.0
 40
82.5010000000000048
100
AcDbArc
 50
147.9969385251000062
 51
149.0030614748999938
  0
ARC
  5
75
100
AcDbEntity
  8
0
 62
256
370
-1
  6
CONTINUOUS
100
AcDbCircle
 10
82.2002071248000448
 20
185.2095584431000361
 30
0.0
 40
40.0
100
AcDbArc
 50
214.6146728164999899
 51
221.5504840032000118
  0
ARC
  5
76
100
AcDbEntity
  8
0
 62
256
370
-1
  6
CONTINUOUS
100
AcDbCircle
 10
120.0
 20
120.0
 30
0.0
 40
78.0
100
AcDbArc
 50
150.2724328918999959
 51
151.2275671081000041
  0
ARC
  5
77
100
AcDbEntity
  8
0
 62
256
370
-1
  6
CONTINUOUS
100
AcDbCircle
 10
44.6493738476999624
 20
118.1577209172999261
 30
0.0
 40
40.0
100
AcDbArc
 50
79.9495159968000024
 51
86.8853271834999958
  0
ARC
  5
78
100
AcDbEntity
  8
0
 62
256
370
-1
  6
CONTINUOUS
100
AcDbCircle
 10
120.0
 20
120.0
 30
0.0
 40
82.5010000000000048
100
AcDbArc
 50
152.4969385251000062
 51
153.5030614748999938
  0
ARC
  5
79
100
AcDbEntity
  8
0
 62
256
370
-1
  6
CONTINUOUS
100
AcDbCircle
 10
77.2004482828999699
 20
182.0428015693000248
 30
0.0
 40
40.0
100
AcDbArc
 50
219.1146728164999899
 51
226.0504840032000118
  0
ARC
  5
7A
100
AcDbEntity
  8
0
 62
256
370
-1
  6
CONTINUOUS
100
AcDbCircle
 10
120.0
 20
120.0
 30
0.0
 40
78.0
100
AcDbArc
 50
154.7724328918999959
 51
155.7275671081000041
  0
ARC
  5
7B
100
AcDbEntity
  8
0
 62
256
370
-1
  6
CONTINUOUS
100
AcDbCircle
 10
45.0261982321000005
 20
112.2514580584999919
 30
0.0
 40
40.0
100
AcDbArc
 50
84.4495159968000024
 51
91.3853271834999958
  0
ARC
  5
7C
100
AcDbEntity
  8
0
 62
256
370
-1
  6
CONTINUOUS
100
AcDbCircle
 10
120.0
 20
120.0
 30
0.0
 40
82.5010000000000048
100
AcDbArc
 50
156.9969385251000062
 51
158.0030614748999938
  0
ARC
  5
7D
100
AcDbEntity
  8
0
 62
256
370
-1
  6
CONTINUOUS
100
AcDbCircle
 10
72.464562909700021
 20
178.4935301926000477
 30
0.0
 40
40.0
100
AcDbArc
 50
223.6146728164999899
 51
230.5504840032000402
  0
ARC
  5
7E
100
AcDbEntity
  8
0
 62
256
370
-1
  6
CONTINUOUS
100
AcDbCircle
 10
120.0
 20
120.0
 30
0.0
 40
78.0
100
AcDbArc
 50
159.2724328918999959
 51
160.2275671081000041
  0
ARC
  5
7F
100
AcDbEntity
  8
0
 62
256
370
-1
  6
CONTINUOUS
100
AcDbCircle
 10
45.8652610356000423
 20
106.392967537399997
 30
0.0
 40
40.0
100
AcDbArc
 50
88.9495159968000024
 51
95.8853271834999958
  0
ARC
  5
80
100
AcDbEntity
  8
0
 62
256
370
-1
  6
CONTINUOUS
100
AcDbCircle
 10
120.0
 20
120.0
 30
0.0
 40
82.5010000000000048
100
AcDbArc
 50
161.4969385251000062
 51
162.5030614748999938
  0
ARC
  5
81
100
AcDbEntity
  8
0
 62
256
370
-1
  6
CONTINUOUS
100
AcDbCircle
 10
68.0217493133000062
 20
174.5836267510999846
 30
0.0
 40
40.0
100
AcDbArc
 50
228.1146728164999899
 51
235.0504840032000118
  0
ARC
  5
82
100
AcDbEntity
  8
0
 62
256
370
-1
  6
CONTINUOUS
100
AcDbCircle
 10
120.0
 20
120.0
 30
0.0
 40
78.0
100
AcDbArc
 50
163.7724328918999959
 51
164.7275671081000041
  0
ARC
  5
83
100
AcDbEntity
  8
0
 62
256
370
-1
  6
CONTINUOUS
100
AcDbCircle
 10
47.1613891572000057
 20
100.6183688961999962
 30
0.0
 40
40.0
100
AcDbArc
 50
93.4495159968000024
 51
100.3853271834999958
  0
ARC
  5
84
100
AcDbEntity
  8
0
 62
256
370
-1
  6
CONTINUOUS
100
AcDbCircle
 10
120.0
 20
120.0
 30
0.0
 40
82.5010000000000048
100
AcDbArc
 50
165.9969385251000062
 51
167.0030614748999938
  0
ARC
  5
85
100
AcDbEntity
  8
0
 62
256
370
-1
  6
CONTINUOUS
100
AcDbCircle
 10
63.8993989167999956
 20
170.3371970997999938
 30
0.0
 40
40.0
100
AcDbArc
 50
232.6146728164999615
 51
239.5504840032000402
  0
ARC
  5
86
100
AcDbEntity
  8
0
 62
256
370
-1
  6
CONTINUOUS
100
AcDbCircle
 10
120.0
 20
120.0
 30
0.0
 40
78.0
100
AcDbArc
 50
168.2724328918999959
 51
169.2275671081000041
  0
ARC
  5
87
100
AcDbEntity
  8
0
 62
256
370
-1
  6
CONTINUOUS
100
AcDbCircle
 10
48.9065915359000201
 20
94.963264455800072
 30
0.0
 40
40.0
100
AcDbArc
 50
97.9495159968000024
 51
104.8853271834999958
  0
ARC
  5
88
100
AcDbEntity
  8
0
 62
256
370
-1
  6
CONTINUOUS
100
AcDbCircle
 10
120.0
 20
120.0
 30
0.0
 40
82.5010000000000048
100
AcDbArc
 50
170.4969385251000062
 51
171.5030614748999938
  0
ARC
  5
89
100
AcDbEntity
  8
0
 62
256
370
-1
  6
CONTINUOUS
100
AcDbCircle
 10
60.1229273814000038
 20
165.7804218894999906
 30
0.0
 40
40.0
100
AcDbArc
 50
237.1146728164999899
 51
244.0504840032000118
  0
ARC
  5
8A
100
AcDbEntity
  8
0
 62
256
370
-1
  6
CONTINUOUS
100
AcDbCircle
 10
120.0
 20
120.0
 30
0.0
 40
78.0
100
AcDbArc
 50
172.7724328918999959
 51
173.7275671081000041
  0
ARC
  5
8B
100
AcDbEntity
  8
0
 62
256
370
-1
  6
CONTINUOUS
100
AcDbCircle
 10
51.0901084186999555
 20
89.4625198155000589
 30
0.0
 40
40.0
100
AcDbArc
 50
102.4495159968000024
 51
109.3853271834999958
  0
ARC
  5
8C
100
AcDbEntity
  8
0
 62
256
370
-1
  6
CONTINUOUS
100
AcDbCircle
 10
120.0
 20
120.0
 30
0.0
 40
82.5010000000000048
100
AcDbArc
 50
174.9969385251000062
 51
176.0030614748999938
  0
ARC
  5
8D
100
AcDbEntity
  8
0
 62
256
370
-1
  6
CONTINUOUS
100
AcDbCircle
 10
56.7156179098000095
 20
160.9413951547999773
 30
0.0
 40
40.0
100
AcDbArc
 50
241.6146728164999615
 51
248.5504840032000402
  0
ARC
  5
8E
100
AcDbEntity
  8
0
 62
256
370
-1
  6
CONTINUOUS
100
AcDbCircle
 10
120.0
 20
120.0
 30
0.0
 40
78.0
100
AcDbArc
 50
177.2724328918999959
 51
178.2275671081000041
  0
ARC
  5
8F
100
AcDbEntity
  8
0
 62
256
370
-1
  6
CONTINUOUS
100
AcDbCircle
 10
53.6984776980000191
 20
84.1500488954000616
 30
0.0
 40
40.0
100
AcDbArc
 50
106.9495159968000024
 51
113.8853271834999958
  0
ARC
  5
90
100
AcDbEntity
  8
0
 62
256
370
-1
  6
CONTINUOUS
100
AcDbCircle
 10
120.0
 20
120.0
 30
0.0
 40
82.5010000000000048
100
AcDbArc
 50
179.4969385251000062
 51
180.5030614748999938
  0
ARC
  5
91
100
AcDbEntity
  8
0
 62
256
370
-1
  6
CONTINUOUS
100
AcDbCircle
 10
53.6984776980000476
 20
155.8499511045000077
 30
0.0
 40
40.0
100
AcDbArc
 50
246.1146728164999899
 51
253.0504840032000118
  0
ARC
  5
92
100
AcDbEntity
  8
0
 62
256
370
-1
  6
CONTINUOUS
100
AcDbCircle
 10
120.0
 20
120.0
 30
0.0
 40
78.0
100
AcDbArc
 50
181.7724328918999959
 51
182.7275671081000041
  0
ARC
  5
93
100
AcDbEntity
  8
0
 62
256
370
-1
  6
CONTINUOUS
100
AcDbCircle
 10
56.7156179098000024
 20
79.0586048452000227
 30
0.0
 40
40.0
100
AcDbArc
 50
111.4495159968000024
 51
118.3853271834999958
  0
ARC
  5
94
100
AcDbEntity
  8
0
 62
256
370
-1
  6
CONTINUOUS
100
AcDbCircle
 10
120.0
 20
120.0
 30
0.0
 40
82.5010000000000048
100
AcDbArc
 50
183.9969385251000062
 51
185.0030614748999938
  0
ARC
  5
95
100
AcDbEntity
  8
0
 62
256
370
-1
  6
CONTINUOUS
100
AcDbCircle
 10
51.0901084186999697
 20
150.5374801844000103
 30
0.0
 40
40.0
100
AcDbArc
 50
250.6146728164999615
 51
257.5504840031999834
  0
ARC
  5
96
100
AcDbEntity
  8
0
 62
256
370
-1
  6
CONTINUOUS
100
AcDbCircle
 10
120.0
 20
120.0
 30
0.0
 40
78.0
100
AcDbArc
 50
186.2724328918999959
 51
187.2275671081000041
  0
ARC
  5
97
100
AcDbEntity
  8
0
 62
256
370
-1
  6
CONTINUOUS
100
AcDbCircle
 10
60.1229273814000038
 20
74.2195781104000503
 30
0.0
 40
40.0
100
AcDbArc
 50
115.9495159968000166
 51
122.8853271834999958
  0
ARC
  5
98
100
AcDbEntity
  8
0
 62
256
370
-1
  6
CONTINUOUS
100
AcDbCircle
 10
120.0
 20
120.0
 30
0.0
 40
82.5010000000000048
100
AcDbArc
 50
188.4969385251000062
 51
189.5030614748999938
  0
ARC
  5
99
100
AcDbEntity
  8
0
 62
256
370
-1
  6
CONTINUOUS
100
AcDbCircle
 10
48.9065915359000201
 20
145.0367355442000132
 30
0.0
 40
40.0
100
AcDbArc
 50
255.1146728164999899
 51
262.0504840031999834
  0
ARC
  5
9A
100
AcDbEntity
  8
0
 62
256
370
-1
  6
CONTINUOUS
100
AcDbCircle
 10
120.0
 20
120.0
 30
0.0
 40
78.0
100
AcDbArc
 50
190.7724328918999959
 51
191.7275671081000041
  0
ARC
  5
9B
100
AcDbEntity
  8
0
 62
256
370
-1
  6
CONTINUOUS
100
AcDbCircle
 10
63.8993989167999956
 20
69.6628029002000346
 30
0.0
 40
40.0
100
AcDbArc
 50
120.4495159968000166
 51
127.3853271834999958
  0
ARC
  5
9C
100
AcDbEntity
  8
0
 62
256
370
-1
  6
CONTINUOUS
100
AcDbCircle
 10
120.0
 20
120.0
 30
0.0
 40
82.5010000000000048
100
AcDbArc
 50
192.9969385251000062
 51
194.0030614748999938
  0
ARC
  5
9D
100
AcDbEntity
  8
0
 62
256
370
-1
  6
CONTINUOUS
100
AcDbCircle
 10
47.1613891572000057
 20
139.3816311038000606
 30
0.0
 40
40.0
100
AcDbArc
 50
259.6146728164999899
 51
266.5504840031999834
  0
ARC
  5
9E
100
AcDbEntity
  8
0
 62
256
370
-1
  6
CONTINUOUS
100
AcDbCircle
 10
120.0
 20
120.0
 30
0.0
 40
78.0
100
AcDbArc
 50
195.2724328918999959
 51
196.2275671081000041
  0
ARC
  5
9F
100
AcDbEntity
  8
0
 62
256
370
-1
  6
CONTINUOUS
100
AcDbCircle
 10
68.0217493132999778
 20
65.4163732489000722
 30
0.0
 40
40.0
100
AcDbArc
 50
124.9495159968000166
 51
131.8853271835000101
  0
ARC
  5
A0
100
AcDbEntity
  8
0
 62
256
370
-1
  6
CONTINUOUS
100
AcDbCircle
 10
120.0
 20
120.0
 30
0.0
 40
82.5010000000000048
100
AcDbArc
 50
197.4969385251000062
 51
198.5030614748999938
  0
ARC
  5
A1
100
AcDbEntity
  8
0
 62
256
370
-1
  6
CONTINUOUS
100
AcDbCircle
 10
45.8652610356000423
 20
133.6070324626001309
 30
0.0
 40
40.0
100
AcDbArc
 50
264.1146728164999899
 51
271.0504840031999834
  0
ARC
  5
A2
100
AcDbEntity
  8
0
 62
256
370
-1
  6
CONTINUOUS
100
AcDbCircle
 10
120.0
 20
120.0
 30
0.0
 40
78.0
100
AcDbArc
 50
199.7724328918999959
 51
200.7275671081000041
  0
ARC
  5
A3
100
AcDbEntity
  8
0
 62
256
370
-1
  6
CONTINUOUS
100
AcDbCircle
 10
72.4645629097000494
 20
61.5064698074000162
 30
0.0
 40
40.0
100
AcDbArc
 50
129.4495159967999882
 51
136.3853271835000101
  0
ARC
  5
A4
100
AcDbEntity
  8
0
 62
256
370
-1
  6
CONTINUOUS
100
AcDbCircle
 10
120.0
 20
120.0
 30
0.0
 40
82.5010000000000048
100
AcDbArc
 50
201.9969385251000062
 51
203.0030614748999938
  0
ARC
  5
A5
100
AcDbEntity
  8
0
 62
256
370
-1
  6
CONTINUOUS
100
AcDbCircle
 10
45.0261982321000005
 20
127.7485419415000223
 30
0.0
 40
40.0
100
AcDbArc
 50
268.6146728164999899
 51
275.5504840031999834
  0
ARC
  5
A6
100
AcDbEntity
  8
0
 62
256
370
-1
  6
CONTINUOUS
100
AcDbCircle
 10
120.0
 20
120.0
 30
0.0
 40
78.0
100
AcDbArc
 50
204.2724328918999959
 51
205.2275671081000041
  0
ARC
  5
A7
100
AcDbEntity
  8
0
 62
256
370
-1
  6
CONTINUOUS
100
AcDbCircle
 10
77.2004482828999699
 20
57.9571984306000303
 30
0.0
 40
40.0
100
AcDbArc
 50
133.9495159967999882
 51
140.8853271835000101
  0
ARC
  5
A8
100
AcDbEntity
  8
0
 62
256
370
-1
  6
CONTINUOUS
100
AcDbCircle
 10
120.0
 20
120.0
 30
0.0
 40
82.5010000000000048
100
AcDbArc
 50
206.4969385251000062
 51
207.5030614748999938
  0
ARC
  5
A9
100
AcDbEntity
  8
0
 62
256
370
-1
  6
CONTINUOUS
100
AcDbCircle
 10
44.6493738476999624
 20
121.8422790826000863
 30
0.0
 40
40.0
100
AcDbArc
 50
273.1146728164999899
 51
280.0504840031999834
  0
ARC
  5
AA
100
AcDbEntity
  8
0
 62
256
370
-1
  6
CONTINUOUS
100
AcDbCircle
 10
120.0
 20
120.0
 30
0.0
 40
78.0
100
AcDbArc
 50
208.7724328918999959
 51
209.7275671081000041
  0
ARC
  5
AB
100
AcDbEntity
  8
0
 62
256
370
-1
  6
CONTINUOUS
100
AcDbCircle
 10
82.2002071247999311
 20
54.7904415568000474
 30
0.0
 40
40.0
100
AcDbArc
 50
138.4495159967999882
 51
145.3853271835000101
  0
ARC
  5
AC
100
AcDbEntity
  8
0
 62
256
370
-1
  6
CONTINUOUS
100
AcDbCircle
 10
120.0
 20
120.0
 30
0.0
 40
82.5010000000000048
100
AcDbArc
 50
210.9969385251000062
 51
212.0030614748999938
  0
ARC
  5
AD
100
AcDbEntity
  8
0
 62
256
370
-1
  6
CONTINUOUS
100
AcDbCircle
 10
44.7371111303000362
 20
115.9246579605998306
 30
0.0
 40
40.0
100
AcDbArc
 50
277.6146728164999899
 51
284.5504840031999834
  0
ARC
  5
AE
100
AcDbEntity
  8
0
 62
256
370
-1
  6
CONTINUOUS
100
AcDbCircle
 10
120.0
 20
120.0
 30
0.0
 40
78.0
100
AcDbArc
 50
213.2724328918999959
 51
214.2275671081000041
  0
ARC
  5
AF
100
AcDbEntity
  8
0
 62
256
370
-1
  6
CONTINUOUS
100
AcDbCircle
 10
87.43301425949997
 20
52.0257232951999811
 30
0.0
 40
40.0
100
AcDbArc
 50
142.9495159967999882
 51
149.8853271835000101
  0
ARC
  5
B0
100
AcDbEntity
  8
0
 62
256
370
-1
  6
CONTINUOUS
100
AcDbCircle
 10
120.0
 20
120.0
 30
0.0
 40
82.5010000000000048
100
AcDbArc
 50
215.4969385251000062
 51
216.5030614748999938
  0
ARC
  5
B1
100
AcDbEntity
  8
0
 62
256
370
-1
  6
CONTINUOUS
100
AcDbCircle
 10
45.2888691501000267
 20
110.0321626775000681
 30
0.0
 40
40.0
100
AcDbArc
 50
282.1146728164999899
 51
289.0504840031999834
  0
ARC
  5
B2
100
AcDbEntity
  8
0
 62
256
370
-1
  6
CONTINUOUS
100
AcDbCircle
 10
120.0
 20
120.0
 30
0.0
 40
78.0
100
AcDbArc
 50
217.7724328918999959
 51
218.7275671081000041
  0
ARC
  5
B3
100
AcDbEntity
  8
0
 62
256
370
-1
  6
CONTINUOUS
100
AcDbCircle
 10
92.8666076907998956
 20
49.680089053300037
 30
0.0
 40
40.0
100
AcDbArc
 50
147.4495159967999882
 51
154.3853271835000101
  0
ARC
  5
B4
100
AcDbEntity
  8
0
 62
256
370
-1
  6
CONTINUOUS
100
AcDbCircle
 10
120.0
 20
120.0
 30
0.0
 40
82.5010000000000048
100
AcDbArc
 50
219.9969385251000062
 51
221.0030614748999938
  0
ARC
  5
B5
100
AcDbEntity
  8
0
 62
256
370
-1
  6
CONTINUOUS
100
AcDbCircle
 10
46.3012461355999534
 20
104.2011224260000688
 30
0.0
 40
40.0
100
AcDbArc
 50
286.6146728164999899
 51
293.5504840031999834
  0
ARC
  5
B6
100
AcDbEntity
  8
0
 62
256
370
-1
  6
CONTINUOUS
100
AcDbCircle
 10
120.0
 20
120.0
 30
0.0
 40
78.0
100
AcDbArc
 50
222.2724328918999959
 51
223.2275671081000041
  0
ARC
  5
B7
100
AcDbEntity
  8
0
 62
256
370
-1
  6
CONTINUOUS
100
AcDbCircle
 10
98.4674875084999712
 20
47.7680004460000163
 30
0.0
 40
40.0
100
AcDbArc
 50
151.9495159967999882
 51
158.8853271835000101
  0
ARC
  5
B8
100
AcDbEntity
  8
0
 62
256
370
-1
  6
CONTINUOUS
100
AcDbCircle
 10
120.0
 20
120.0
 30
0.0
 40
82.5010000000000048
100
AcDbArc
 50
224.4969385251000062
 51
225.5030614748999938
  0
ARC
  5
B9
100
AcDbEntity
  8
0
 62
256
370
-1
  6
CONTINUOUS
100
AcDbCircle
 10
47.7680004461000181
 20
98.4674875085000139
 30
0.0
 40
40.0
100
AcDbArc
 50
291.1146728164999899
 51
298.0504840031999834
  0
ARC
  5
BA
100
AcDbEntity
  8
0
 62
256
370
-1
  6
CONTINUOUS
100
AcDbCircle
 10
120.0
 20
120.0
 30
0.0
 40
78.0
100
AcDbArc
 50
226.7724328918999959
 51
227.7275671081000041
  0
ARC
  5
BB
100
AcDbEntity
  8
0
 62
256
370
-1
  6
CONTINUOUS
100
AcDbCircle
 10
104.2011224261000564
 20
46.3012461356000244
 30
0.0
 40
40.0
100
AcDbArc
 50
156.4495159967999882
 51
163.3853271835000101
  0
ARC
  5
BC
100
AcDbEntity
  8
0
 62
256
370
-1
  6
CONTINUOUS
100
AcDbCircle
 10
120.0
 20
120.0
 30
0.0
 40
82.5010000000000048
100
AcDbArc
 50
228.9969385251000062
 51
230.0030614748999653
  0
ARC
  5
BD
100
AcDbEntity
  8
0
 62
256
370
-1
  6
CONTINUOUS
100
AcDbCircle
 10
49.6800890532999802
 20
92.8666076908000662
 30
0.0
 40
40.0
100
AcDbArc
 50
295.6146728164999899
 51
302.5504840031999834
  0
ARC
  5
BE
100
AcDbEntity
  8
0
 62
256
370
-1
  6
CONTINUOUS
100
AcDbCircle
 10
120.0
 20
120.0
 30
0.0
 40
78.0
100
AcDbArc
 50
231.2724328919000243
 51
232.2275671081000041
  0
ARC
  5
BF
100
AcDbEntity
  8
0
 62
256
370
-1
  6
CONTINUOUS
100
AcDbCircle
 10
110.0321626774999686
 20
45.2888691501000125
 30
0.0
 40
40.0
100
AcDbArc
 50
160.9495159967999882
 51
167.8853271835000101
  0
ARC
  5
C0
100
AcDbEntity
  8
0
 62
256
370
-1
  6
CONTINUOUS
100
AcDbCircle
 10
120.0
 20
120.0
 30
0.0
 40
82.5010000000000048
100
AcDbArc
 50
233.4969385251000062
 51
234.5030614748999938
  0
ARC
  5
C1
100
AcDbEntity
  8
0
 62
256
370
-1
  6
CONTINUOUS
100
AcDbCircle
 10
52.0257232952999402
 20
87.4330142594000392
 30
0.0
 40
40.0
100
AcDbArc
 50
300.1146728164999899
 51
307.0504840031999834
  0
ARC
  5
C2
100
AcDbEntity
  8
0
 62
256
370
-1
  6
CONTINUOUS
100
AcDbCircle
 10
120.0
 20
120.0
 30
0.0
 40
78.0
100
AcDbArc
 50
235.7724328918999959
 51
236.7275671080999757
  0
ARC
  5
C3
100
AcDbEntity
  8
0
 62
256
370
-1
  6
CONTINUOUS
100
AcDbCircle
 10
115.924657960599987
 20
44.7371111302000202
 30
0.0
 40
40.0
100
AcDbArc
 50
165.4495159967999882
 51
172.3853271835000101
  0
ARC
  5
C4
100
AcDbEntity
  8
0
 62
256
370
-1
  6
CONTINUOUS
100
AcDbCircle
 10
120.0
 20
120.0
 30
0.0
 40
82.5010000000000048
100
AcDbArc
 50
237.9969385251000062
 51
239.0030614748999653
  0
ARC
  5
C5
100
AcDbEntity
  8
0
 62
256
370
-1
  6
CONTINUOUS
100
AcDbCircle
 10
54.7904415568999497
 20
82.2002071248000732
 30
0.0
 40
40.0
100
AcDbArc
 50
304.6146728164999899
 51
311.5504840031999834
  0
ARC
  5
C6
100
AcDbEntity
  8
0
 62
256
370
-1
  6
CONTINUOUS
100
AcDbCircle
 10
120.0
 20
120.0
 30
0.0
 40
78.0
100
AcDbArc
 50
240.2724328919000243
 51
241.2275671081000041
  0
ARC
  5
C7
100
AcDbEntity
  8
0
 62
256
370
-1
  6
CONTINUOUS
100
AcDbCircle
 10
121.8422790825998874
 20
44.6493738477000051
 30
0.0
 40
40.0
100
AcDbArc
 50
169.9495159967999882
 51
176.8853271835000101
  0
ARC
  5
C8
100
AcDbEntity
  8
0
 62
256
370
-1
  6
CONTINUOUS
100
AcDbCircle
 10
120.0
 20
120.0
 30
0.0
 40
82.5010000000000048
100
AcDbArc
 50
242.4969385251000062
 51
243.5030614748999938
  0
ARC
  5
C9
100
AcDbEntity
  8
0
 62
256
370
-1
  6
CONTINUOUS
100
AcDbCircle
 10
57.9571984305999806
 20
77.2004482829000125
 30
0.0
 40
40.0
100
AcDbArc
 50
309.1146728164999899
 51
316.0504840031999834
  0
ARC
  5
CA
100
AcDbEntity
  8
0
 62
256
370
-1
  6
CONTINUOUS
100
AcDbCircle
 10
120.0
 20
120.0
 30
0.0
 40
78.0
100
AcDbArc
 50
244.7724328918999959
 51
245.7275671080999757
  0
ARC
  5
CB
100
AcDbEntity
  8
0
 62
256
370
-1
  6
CONTINUOUS
100
AcDbCircle
 10
127.7485419414999654
 20
45.0261982321000147
 30
0.0
 40
40.0
100
AcDbArc
 50
174.4495159967999882
 51
181.3853271835000101
  0
ARC
  5
CC
100
AcDbEntity
  8
0
 62
256
370
-1
  6
CONTINUOUS
100
AcDbCircle
 10
120.0
 20
120.0
 30
0.0
 40
82.5010000000000048
100
AcDbArc
 50
246.9969385251000062
 51
248.0030614748999653
  0
ARC
  5
CD
100
AcDbEntity
  8
0
 62
256
370
-1
  6
CONTINUOUS
100
AcDbCircle
 10
61.5064698073999807
 20
72.4645629097000494
 30
0.0
 40
40.0
100
AcDbArc
 50
313.6146728164999899
 51
320.5504840031999834
  0
ARC
  5
CE
100
AcDbEntity
  8
0
 62
256
370
-1
  6
CONTINUOUS
100
AcDbCircle
 10
120.0
 20
120.0
 30
0.0
 40
78.0
100
AcDbArc
 50
249.2724328919000243
 51
250.2275671081000041
  0
ARC
  5
CF
100
AcDbEntity
  8
0
 62
256
370
-1
  6
CONTINUOUS
100
AcDbCircle
 10
133.6070324625999035
 20
45.8652610355999997
 30
0.0
 40
40.0
100
AcDbArc
 50
178.9495159967999882
 51
185.8853271835000101
  0
ARC
  5
D0
100
AcDbEntity
  8
0
 62
256
370
-1
  6
CONTINUOUS
100
AcDbCircle
 10
120.0
 20
120.0
 30
0.0
 40
82.5010000000000048
100
AcDbArc
 50
251.4969385251000062
 51
252.5030614748999938
  0
ARC
  5
D1
100
AcDbEntity
  8
0
 62
256
370
-1
  6
CONTINUOUS
100
AcDbCircle
 10
65.4163732488999443
 20
68.0217493132000612
 30
0.0
 40
40.0
100
AcDbArc
 50
318.1146728164999899
 51
325.0504840031999834
  0
ARC
  5
D2
100
AcDbEntity
  8
0
 62
256
370
-1
  6
CONTINUOUS
100
AcDbCircle
 10
120.0
 20
120.0
 30
0.0
 40
78.0
100
AcDbArc
 50
253.7724328918999959
 51
254.7275671080999757
  0
ARC
  5
D3
100
AcDbEntity
  8
0
 62
256
370
-1
  6
CONTINUOUS
100
AcDbCircle
 10
139.3816311038000038
 20
47.1613891572000199
 30
0.0
 40
40.0
100
AcDbArc
 50
183.4495159967999882
 51
190.3853271835000101
  0
ARC
  5
D4
100
AcDbEntity
  8
0
 62
256
370
-1
  6
CONTINUOUS
100
AcDbCircle
 10
120.0
 20
120.0
 30
0.0
 40
82.5010000000000048
100
AcDbArc
 50
255.9969385251000062
 51
257.0030614748999938
  0
ARC
  5
D5
100
AcDbEntity
  8
0
 62
256
370
-1
  6
CONTINUOUS
100
AcDbCircle
 10
69.6628029001999352
 20
63.8993989168000311
 30
0.0
 40
40.0
100
AcDbArc
 50
322.6146728164999899
 51
329.5504840031999834
  0
ARC
  5
D6
100
AcDbEntity
  8
0
 62
256
370
-1
  6
CONTINUOUS
100
AcDbCircle
 10
120.0
 20
120.0
 30
0.0
 40
78.0
100
AcDbArc
 50
258.2724328918999959
 51
259.2275671081000041
  0
ARC
  5
D7
100
AcDbEntity
  8
0
 62
256
370
-1
  6
CONTINUOUS
100
AcDbCircle
 10
145.0367355441998996
 20
48.9065915359000059
 30
0.0
 40
40.0
100
AcDbArc
 50
187.9495159967999882
 51
194.8853271835000101
  0
ARC
  5
D8
100
AcDbEntity
  8
0
 62
256
370
-1
  6
CONTINUOUS
100
AcDbCircle
 10
120.0
 20
120.0
 30
0.0
 40
82.5010000000000048
100
AcDbArc
 50
260.4969385251000062
 51
261.5030614748999938
  0
ARC
  5
D9
100
AcDbEntity
  8
0
 62
256
370
-1
  6
CONTINUOUS
100
AcDbCircle
 10
74.2195781105000236
 20
60.1229273814000393
 30
0.0
 40
40.0
100
AcDbArc
 50
327.1146728164999899
 51
334.0504840031999834
  0
ARC
  5
DA
100
AcDbEntity
  8
0
 62
256
370
-1
  6
CONTINUOUS
100
AcDbCircle
 10
120.0
 20
120.0
 30
0.0
 40
78.0
100
AcDbArc
 50
262.7724328918999959
 51
263.7275671081000041
  0
ARC
  5
DB
100
AcDbEntity
  8
0
 62
256
370
-1
  6
CONTINUOUS
100
AcDbCircle
 10
150.5374801843998682
 20
51.0901084186999981
 30
0.0
 40
40.0
100
AcDbArc
 50
192.4495159967999882
 51
199.3853271835000101
  0
ARC
  5
DC
100
AcDbEntity
  8
0
 62
256
370
-1
  6
CONTINUOUS
100
AcDbCircle
 10
120.0
 20
120.0
 30
0.0
 40
82.5010000000000048
100
AcDbArc
 50
264.9969385251000062
 51
266.0030614748999938
  0
ARC
  5
DD
100
AcDbEntity
  8
0
 62
256
370
-1
  6
CONTINUOUS
100
AcDbCircle
 10
79.0586048451999659
 20
56.7156179098000166
 30
0.0
 40
40.0
100
AcDbArc
 50
331.6146728164999899
 51
338.5504840031999834
  0
ARC
  5
DE
100
AcDbEntity
  8
0
 62
256
370
-1
  6
CONTINUOUS
100
AcDbCircle
 10
120.0
 20
120.0
 30
0.0
 40
78.0
100
AcDbArc
 50
267.2724328918999959
 51
268.2275671081000041
  0
ARC
  5
DF
100
AcDbEntity
  8
0
 62
256
370
-1
  6
CONTINUOUS
100
AcDbCircle
 10
155.8499511045999952
 20
53.6984776980000191
 30
0.0
 40
40.0
100
AcDbArc
 50
196.9495159967999882
 51
203.8853271835000101
  0
ARC
  5
E0
100
AcDbEntity
  8
0
 62
256
370
-1
  6
CONTINUOUS
100
AcDbCircle
 10
120.0
 20
120.0
 30
0.0
 40
82.5010000000000048
100
AcDbArc
 50
269.4969385251000062
 51
270.5030614748999938
  0
ARC
  5
E1
100
AcDbEntity
  8
0
 62
256
370
-1
  6
CONTINUOUS
100
AcDbCircle
 10
84.1500488953999763
 20
53.6984776980000476
 30
0.0
 40
40.0
100
AcDbArc
 50
336.1146728164999899
 51
343.0504840031999834
  0
ARC
  5
E2
100
AcDbEntity
  8
0
 62
256
370
-1
  6
CONTINUOUS
100
AcDbCircle
 10
120.0
 20
120.0
 30
0.0
 40
78.0
100
AcDbArc
 50
271.7724328918999959
 51
272.7275671081000041
  0
ARC
  5
E3
100
AcDbEntity
  8
0
 62
256
370
-1
  6
CONTINUOUS
100
AcDbCircle
 10
160.9413951547999204
 20
56.7156179098000237
 30
0.0
 40
40.0
100
AcDbArc
 50
201.4495159967999882
 51
208.3853271835000101
  0
ARC
  5
E4
100
AcDbEntity
  8
0
 62
256
370
-1
  6
CONTINUOUS
100
AcDbCircle
 10
120.0
 20
120.0
 30
0.0
 40
82.5010000000000048
100
AcDbArc
 50
273.9969385251000062
 51
275.0030614748999938
  0
ARC
  5
E5
100
AcDbEntity
  8
0
 62
256
370
-1
  6
CONTINUOUS
100
AcDbCircle
 10
89.4625198155999897
 20
51.0901084187000549
 30
0.0
 40
40.0
100
AcDbArc
 50
340.6146728164999899
 51
347.5504840031999834
  0
ARC
  5
E6
100
AcDbEntity
  8
0
 62
256
370
-1
  6
CONTINUOUS
100
AcDbCircle
 10
120.0
 20
120.0
 30
0.0
 40
78.0
100
AcDbArc
 50
276.2724328918999959
 51
277.2275671081000041
  0
ARC
  5
E7
100
AcDbEntity
  8
0
 62
256
370
-1
  6
CONTINUOUS
100
AcDbCircle
 10
165.7804218894999622
 20
60.1229273813999896
 30
0.0
 40
40.0
100
AcDbArc
 50
205.9495159967999882
 51
212.8853271835000101
  0
ARC
  5
E8
100
AcDbEntity
  8
0
 62
256
370
-1
  6
CONTINUOUS
100
AcDbCircle
 10
120.0
 20
120.0
 30
0.0
 40
82.5010000000000048
100
AcDbArc
 50
278.4969385251000062
 51
279.5030614748999938
  0
ARC
  5
E9
100
AcDbEntity
  8
0
 62
256
370
-1
  6
CONTINUOUS
100
AcDbCircle
 10
94.9632644557999441
 20
48.9065915359000485
 30
0.0
 40
40.0
100
AcDbArc
 50
345.1146728164999899
 51
352.0504840031999834
  0
ARC
  5
EA
100
AcDbEntity
  8
0
 62
256
370
-1
  6
CONTINUOUS
100
AcDbCircle
 10
120.0
 20
120.0
 30
0.0
 40
78.0
100
AcDbArc
 50
280.7724328918999959
 51
281.7275671081000041
  0
ARC
  5
EB
100
AcDbEntity
  8
0
 62
256
370
-1
  6
CONTINUOUS
100
AcDbCircle
 10
170.3371970997999085
 20
63.899398916799953
 30
0.0
 40
40.0
100
AcDbArc
 50
210.4495159967999882
 51
217.3853271835000101
  0
ARC
  5
EC
100
AcDbEntity
  8
0
 62
256
370
-1
  6
CONTINUOUS
100
AcDbCircle
 10
120.0
 20
120.0
 30
0.0
 40
82.5010000000000048
100
AcDbArc
 50
282.9969385251000062
 51
284.0030614748999938
  0
ARC
  5
ED
100
AcDbEntity
  8
0
 62
256
370
-1
  6
CONTINUOUS
100
AcDbCircle
 10
100.618368896199982
 20
47.1613891572000341
 30
0.0
 40
40.0
100
AcDbArc
 50
349.6146728164999899
 51
356.5504840031999834
  0
ARC
  5
EE
100
AcDbEntity
  8
0
 62
256
370
-1
  6
CONTINUOUS
100
AcDbCircle
 10
120.0
 20
120.0
 30
0.0
 40
78.0
100
AcDbArc
 50
285.2724328918999959
 51
286.2275671081000041
  0
ARC
  5
EF
100
AcDbEntity
  8
0
 62
256
370
-1
  6
CONTINUOUS
100
AcDbCircle
 10
174.5836267511000415
 20
68.0217493132000186
 30
0.0
 40
40.0
100
AcDbArc
 50
214.9495159967999882
 51
221.8853271835000101
  0
ARC
  5
F0
100
AcDbEntity
  8
0
 62
256
370
-1
  6
CONTINUOUS
100
AcDbCircle
 10
120.0
 20
120.0
 30
0.0
 40
82.5010000000000048
100
AcDbArc
 50
287.4969385251000062
 51
288.5030614748999938
  0
ARC
  5
F1
100
AcDbEntity
  8
0
 62
256
370
-1
  6
CONTINUOUS
100
AcDbCircle
 10
106.3929675373999402
 20
45.8652610356000281
 30
0.0
 40
40.0
100
AcDbArc
 50
354.1146728164999899
 51
1.0504840032
  0
ARC
  5
F2
100
AcDbEntity
  8
0
 62
256
370
-1
  6
CONTINUOUS
100
AcDbCircle
 10
120.0
 20
120.0
 30
0.0
 40
78.0
100
AcDbArc
 50
289.7724328918999959
 51
290.7275671081000041
  0
ARC
  5
F3
100
AcDbEntity
  8
0
 62
256
370
-1
  6
CONTINUOUS
100
AcDbCircle
 10
178.4935301925999909
 20
72.4645629096999357
 30
0.0
 40
40.0
100
AcDbArc
 50
219.4495159967999882
 51
226.3853271835000101
  0
ARC
  5
F4
100
AcDbEntity
  8
0
 62
256
370
-1
  6
CONTINUOUS
100
AcDbCircle
 10
120.0
 20
120.0
 30
0.0
 40
82.5010000000000048
100
AcDbArc
 50
291.9969385251000062
 51
293.0030614748999938
  0
ARC
  5
F5
100
AcDbEntity
  8
0
 62
256
370
-1
  6
CONTINUOUS
100
AcDbCircle
 10
112.2514580584998782
 20
45.0261982321000147
 30
0.0
 40
40.0
100
AcDbArc
 50
358.6146728164999899
 51
5.5504840032000002
  0
ARC
  5
F6
100
AcDbEntity
  8
0
 62
256
370
-1
  6
CONTINUOUS
100
AcDbCircle
 10
120.0
 20
120.0
 30
0.0
 40
78.0
100
AcDbArc
 50
294.2724328918999959
 51
295.2275671081000041
  0
ARC
  5
F7
100
AcDbEntity
  8
0
 62
256
370
-1
  6
CONTINUOUS
100
AcDbCircle
 10
182.0428015694000123
 20
77.2004482828999556
 30
0.0
 40
40.0
100
AcDbArc
 50
223.9495159967999882
 51
230.8853271835000101
  0
ARC
  5
F8
100
AcDbEntity
  8
0
 62
256
370
-1
  6
CONTINUOUS
100
AcDbCircle
 10
120.0
 20
120.0
 30
0.0
 40
82.5010000000000048
100
AcDbArc
 50
296.4969385251000062
 51
297.5030614748999938
  0
ARC
  5
F9
100
AcDbEntity
  8
0
 62
256
370
-1
  6
CONTINUOUS
100
AcDbCircle
 10
118.1577209173999421
 20
44.6493738477000193
 30
0.0
 40
40.0
100
AcDbArc
 50
3.1146728165000002
 51
10.0504840031999993
  0
ARC
  5
FA
100
AcDbEntity
  8
0
 62
256
370
-1
  6
CONTINUOUS
100
AcDbCircle
 10
120.0
 20
120.0
 30
0.0
 40
78.0
100
AcDbArc
 50
298.7724328918999959
 51
299.7275671081000041
  0
ARC
  5
FB
100
AcDbEntity
  8
0
 62
256
370
-1
  6
CONTINUOUS
100
AcDbCircle
 10
185.2095584430999224
 20
82.2002071247999595
 30
0.0
 40
40.0
100
AcDbArc
 50
228.4495159967999882
 51
235.3853271835000385
  0
ARC
  5
FC
100
AcDbEntity
  8
0
 62
256
370
-1
  6
CONTINUOUS
100
AcDbCircle
 10
120.0
 20
120.0
 30
0.0
 40
82.5010000000000048
100
AcDbArc
 50
300.9969385251000062
 51
302.0030614748999938
  0
ARC
  5
FD
100
AcDbEntity
  8
0
 62
256
370
-1
  6
CONTINUOUS
100
AcDbCircle
 10
124.0753420393999846
 20
44.7371111302000202
 30
0.0
 40
40.0
100
AcDbArc
 50
7.6146728165000006
 51
14.5504840031999976
  0
ARC
  5
FE
100
AcDbEntity
  8
0
 62
256
370
-1
  6
CONTINUOUS
100
AcDbCircle
 10
120.0
 20
120.0
 30
0.0
 40
78.0
100
AcDbArc
 50
303.2724328918999959
 51
304.2275671081000041
  0
ARC
  5
FF
100
AcDbEntity
  8
0
 62
256
370
-1
  6
CONTINUOUS
100
AcDbCircle
 10
187.9742767047000598
 20
87.4330142593999824
 30
0.0
 40
40.0
100
AcDbArc
 50
232.9495159967999882
 51
239.8853271835000101
  0
ARC
  5
100
100
AcDbEntity
  8
0
 62
256
370
-1
  6
CONTINUOUS
100
AcDbCircle
 10
120.0
 20
120.0
 30
0.0
 40
82.5010000000000048
100
AcDbArc
 50
305.4969385251000062
 51
306.5030614748999938
  0
ARC
  5
101
100
AcDbEntity
  8
0
 62
256
370
-1
  6
CONTINUOUS
100
AcDbCircle
 10
129.967837322500003
 20
45.2888691501000125
 30
0.0
 40
40.0
100
AcDbArc
 50
12.1146728165000006
 51
19.0504840032000011
  0
ARC
  5
102
100
AcDbEntity
  8
0
 62
256
370
-1
  6
CONTINUOUS
100
AcDbCircle
 10
120.0
 20
120.0
 30
0.0
 40
78.0
100
AcDbArc
 50
307.7724328918999959
 51
308.7275671081000041
  0
ARC
  5
103
100
AcDbEntity
  8
0
 62
256
370
-1
  6
CONTINUOUS
100
AcDbCircle
 10
190.3199109467000198
 20
92.8666076908000093
 30
0.0
 40
40.0
100
AcDbArc
 50
237.4495159967999598
 51
244.3853271835000385
  0
ARC
  5
104
100
AcDbEntity
  8
0
 62
256
370
-1
  6
CONTINUOUS
100
AcDbCircle
 10
120.0
 20
120.0
 30
0.0
 40
82.5010000000000048
100
AcDbArc
 50
309.9969385251000062
 51
311.0030614748999938
  0
ARC
  5
105
100
AcDbEntity
  8
0
 62
256
370
-1
  6
CONTINUOUS
100
AcDbCircle
 10
135.7988775738999152
 20
46.3012461356000244
 30
0.0
 40
40.0
100
AcDbArc
 50
16.6146728165000006
 51
23.5504840032000011
  0
ARC
  5
106
100
AcDbEntity
  8
0
 62
256
370
-1
  6
CONTINUOUS
100
AcDbCircle
 10
120.0
 20
120.0
 30
0.0
 40
78.0
100
AcDbArc
 50
312.2724328918999959
 51
313.2275671081000041
  0
ARC
  5
107
100
AcDbEntity
  8
0
 62
256
370
-1
  6
CONTINUOUS
100
AcDbCircle
 10
192.2319995538999819
 20
98.467487508499957
 30
0.0
 40
40.0
100
AcDbArc
 50
241.9495159967999882
 51
248.8853271835000101
  0
ARC
  5
108
100
AcDbEntity
  8
0
 62
256
370
-1
  6
CONTINUOUS
100
AcDbCircle
 10
120.0
 20
120.0
 30
0.0
 40
82.5010000000000048
100
AcDbArc
 50
314.4969385251000062
 51
315.5030614748999938
  0
ARC
  5
109
100
AcDbEntity
  8
0
 62
256
370
-1
  6
CONTINUOUS
100
AcDbCircle
 10
141.5325124915000004
 20
47.7680004460000021
 30
0.0
 40
40.0
100
AcDbArc
 50
21.1146728165000006
 51
28.0504840032000011
  0
ARC
  5
10A
100
AcDbEntity
  8
0
 62
256
370
-1
  6
CONTINUOUS
100
AcDbCircle
 10
120.0
 20
120.0
 30
0.0
 40
78.0
100
AcDbArc
 50
316.7724328918999959
 51
317.7275671081000041
  0
ARC
  5
10B
100
AcDbEntity
  8
0
 62
256
370
-1
  6
CONTINUOUS
100
AcDbCircle
 10
193.6987538644000324
 20
104.201122426000012
 30
0.0
 40
40.0
100
AcDbArc
 50
246.4495159967999598
 51
253.3853271835000385
  0
ARC
  5
10C
100
AcDbEntity
  8
0
 62
256
370
-1
  6
CONTINUOUS
100
AcDbCircle
 10
120.0
 20
120.0
 30
0.0
 40
82.5010000000000048
100
AcDbArc
 50
318.9969385251000062
 51
320.0030614748999938
  0
ARC
  5
10D
100
AcDbEntity
  8
0
 62
256
370
-1
  6
CONTINUOUS
100
AcDbCircle
 10
147.1333923091999338
 20
49.6800890533000228
 30
0.0
 40
40.0
100
AcDbArc
 50
25.6146728165000006
 51
32.5504840031999976
  0
ARC
  5
10E
100
AcDbEntity
  8
0
 62
256
370
-1
  6
CONTINUOUS
100
AcDbCircle
 10
120.0
 20
120.0
 30
0.0
 40
78.0
100
AcDbArc
 50
321.2724328918999959
 51
322.2275671081000041
  0
ARC
  5
10F
100
AcDbEntity
  8
0
 62
256
370
-1
  6
CONTINUOUS
100
AcDbCircle
 10
194.7111308498999733
 20
110.0321626775000396
 30
0.0
 40
40.0
100
AcDbArc
 50
250.9495159967999882
 51
257.8853271835000101
  0
ARC
  5
110
100
AcDbEntity
  8
0
 62
256
370
-1
  6
CONTINUOUS
100
AcDbCircle
 10
120.0
 20
120.0
 30
0.0
 40
82.5010000000000048
100
AcDbArc
 50
323.4969385251000062
 51
324.5030614748999938
  0
ARC
  5
111
100
AcDbEntity
  8
0
 62
256
370
-1
  6
CONTINUOUS
100
AcDbCircle
 10
152.5669857405000016
 20
52.0257232951999811
 30
0.0
 40
40.0
100
AcDbArc
 50
30.1146728164999971
 51
37.0504840031999976
  0
ARC
  5
112
100
AcDbEntity
  8
0
 62
256
370
-1
  6
CONTINUOUS
100
AcDbCircle
 10
120.0
 20
120.0
 30
0.0
 40
78.0
100
AcDbArc
 50
325.7724328918999959
 51
326.7275671081000041
  0
ARC
  5
113
100
AcDbEntity
  8
0
 62
256
370
-1
  6
CONTINUOUS
100
AcDbCircle
 10
195.2628888696999638
 20
115.9246579606001006
 30
0.0
 40
40.0
100
AcDbArc
 50
255.4495159967999598
 51
262.3853271835000101
  0
ARC
  5
114
100
AcDbEntity
  8
0
 62
256
370
-1
  6
CONTINUOUS
100
AcDbCircle
 10
120.0
 20
120.0
 30
0.0
 40
82.5010000000000048
100
AcDbArc
 50
327.9969385251000062
 51
329.0030614748999938
  0
ARC
  5
115
100
AcDbEntity
  8
0
 62
256
370
-1
  6
CONTINUOUS
100
AcDbCircle
 10
120.0
 20
120.0
 30
0.0
 40
78.0
100
AcDbArc
 50
330.2724328918999959
 51
331.2275671081000041
  0
ARC
  5
116
100
AcDbEntity
  8
0
 62
256
370
-1
  6
CONTINUOUS
100
AcDbCircle
 10
195.3506261523000376
 20
121.8422790826000863
 30
0.0
 40
40.0
100
AcDbArc
 50
259.9495159968000166
 51
266.8853271835000101
  0
ARC
  5
117
100
AcDbEntity
  8
0
 62
256
370
-1
  6
CONTINUOUS
100
AcDbCircle
 10
120.0
 20
120.0
 30
0.0
 40
82.5010000000000048
100
AcDbArc
 50
332.4969385251000062
 51
333.5030614748999938
  0
ARC
  5
118
100
AcDbEntity
  8
0
 62
256
370
-1
  6
CONTINUOUS
100
AcDbCircle
 10
162.7995517171000017
 20
57.957198430600009
 30
0.0
 40
40.0
100
AcDbArc
 50
39.1146728164999971
 51
46.0504840031999976
  0
ARC
  5
119
100
AcDbEntity
  8
0
 62
256
370
-1
  6
CONTINUOUS
100
AcDbCircle
 10
120.0
 20
120.0
 30
0.0
 40
78.0
100
AcDbArc
 50
334.7724328918999959
 51
335.7275671081000041
  0
ARC
  5
11A
100
AcDbEntity
  8
0
 62
256
370
-1
  6
CONTINUOUS
100
AcDbCircle
 10
194.9738017678999995
 20
127.7485419415000081
 30
0.0
 40
40.0
100
AcDbArc
 50
264.4495159968000166
 51
271.3853271835000101
  0
ARC
  5
11B
100
AcDbEntity
  8
0
 62
256
370
-1
  6
CONTINUOUS
100
AcDbCircle
 10
120.0
 20
120.0
 30
0.0
 40
82.5010000000000048
100
AcDbArc
 50
336.9969385251000062
 51
338.0030614748999938
  0
ARC
  5
11C
100
AcDbEntity
  8
0
 62
256
370
-1
  6
CONTINUOUS
100
AcDbCircle
 10
167.535437090299979
 20
61.5064698073999665
 30
0.0
 40
40.0
100
AcDbArc
 50
43.6146728164999971
 51
50.5504840031999976
  0
ARC
  5
11D
100
AcDbEntity
  8
0
 62
256
370
-1
  6
CONTINUOUS
100
AcDbCircle
 10
120.0
 20
120.0
 30
0.0
 40
78.0
100
AcDbArc
 50
339.2724328918999959
 51
340.2275671081000041
  0
ARC
  5
11E
100
AcDbEntity
  8
0
 62
256
370
-1
  6
CONTINUOUS
100
AcDbCircle
 10
194.1347389643999577
 20
133.6070324626000172
 30
0.0
 40
40.0
100
AcDbArc
 50
268.9495159968000166
 51
275.8853271835000101
  0
ARC
  5
11F
100
AcDbEntity
  8
0
 62
256
370
-1
  6
CONTINUOUS
100
AcDbCircle
 10
120.0
 20
120.0
 30
0.0
 40
82.5010000000000048
100
AcDbArc
 50
341.4969385251000062
 51
342.5030614748999938
  0
ARC
  5
120
100
AcDbEntity
  8
0
 62
256
370
-1
  6
CONTINUOUS
100
AcDbCircle
 10
171.9782506866999938
 20
65.4163732488999869
 30
0.0
 40
40.0
100
AcDbArc
 50
48.1146728164999971
 51
55.0504840031999976
  0
ARC
  5
121
100
AcDbEntity
  8
0
 62
256
370
-1
  6
CONTINUOUS
100
AcDbCircle
 10
120.0
 20
120.0
 30
0.0
 40
78.0
100
AcDbArc
 50
343.7724328918999959
 51
344.7275671081000041
  0
ARC
  5
122
100
AcDbEntity
  8
0
 62
256
370
-1
  6
CONTINUOUS
100
AcDbCircle
 10
192.8386108427999943
 20
139.3816311038000322
 30
0.0
 40
40.0
100
AcDbArc
 50
273.4495159968000166
 51
280.3853271835000101
  0
ARC
  5
123
100
AcDbEntity
  8
0
 62
256
370
-1
  6
CONTINUOUS
100
AcDbCircle
 10
120.0
 20
120.0
 30
0.0
 40
82.5010000000000048
100
AcDbArc
 50
345.9969385251000062
 51
347.0030614748999938
  0
ARC
  5
124
100
AcDbEntity
  8
0
 62
256
370
-1
  6
CONTINUOUS
100
AcDbCircle
 10
176.1006010831999902
 20
69.6628029002000062
 30
0.0
 40
40.0
100
AcDbArc
 50
52.6146728164999971
 51
59.5504840031999976
  0
ARC
  5
125
100
AcDbEntity
  8
0
 62
256
370
-1
  6
CONTINUOUS
100
AcDbCircle
 10
120.0
 20
120.0
 30
0.0
 40
78.0
100
AcDbArc
 50
348.2724328918999959
 51
349.2275671081000041
  0
ARC
  5
126
100
AcDbEntity
  8
0
 62
256
370
-1
  6
CONTINUOUS
100
AcDbCircle
 10
191.0934084640999799
 20
145.0367355442000132
 30
0.0
 40
40.0
100
AcDbArc
 50
277.9495159968000166
 51
284.8853271835000101
  0
ARC
  5
127
100
AcDbEntity
  8
0
 62
256
370
-1
  6
CONTINUOUS
100
AcDbCircle
 10
120.0
 20
120.0
 30
0.0
 40
82.5010000000000048
100
AcDbArc
 50
350.4969385251000062
 51
351.5030614748999938
  0
ARC
  5
128
100
AcDbEntity
  8
0
 62
256
370
-1
  6
CONTINUOUS
100
AcDbCircle
 10
179.877072618599982
 20
74.2195781103999934
 30
0.0
 40
40.0
100
AcDbArc
 50
57.1146728164999971
 51
64.0504840031999976
  0
ARC
  5
129
100
AcDbEntity
  8
0
 62
256
370
-1
  6
CONTINUOUS
100
AcDbCircle
 10
120.0
 20
120.0
 30
0.0
 40
78.0
100
AcDbArc
 50
352.7724328918999959
 51
353.7275671081000041
  0
ARC
  5
12A
100
AcDbEntity
  8
0
 62
256
370
-1
  6
CONTINUOUS
100
AcDbCircle
 10
188.9098915813000303
 20
150.5374801844000103
 30
0.0
 40
40.0
100
AcDbArc
 50
282.4495159968000166
 51
289.3853271835000101
  0
ARC
  5
12B
100
AcDbEntity
  8
0
 62
256
370
-1
  6
CONTINUOUS
100
AcDbCircle
 10
120.0
 20
120.0
 30
0.0
 40
82.5010000000000048
100
AcDbArc
 50
354.9969385251000062
 51
356.0030614748999938
  0
ARC
  5
12C
100
AcDbEntity
  8
0
 62
256
370
-1
  6
CONTINUOUS
100
AcDbCircle
 10
183.2843820901999834
 20
79.0586048451999801
 30
0.0
 40
40.0
100
AcDbArc
 50
61.6146728164999971
 51
68.5504840031999976
  0
ARC
  5
12D
100
AcDbEntity
  8
0
 62
256
370
-1
  6
CONTINUOUS
100
AcDbCircle
 10
120.0
 20
120.0
 30
0.0
 40
78.0
100
AcDbArc
 50
357.2724328918999959
 51
358.2275671081000041
  0
ARC
  5
12E
100
AcDbEntity
  8
0
 62
256
370
-1
  6
CONTINUOUS
100
AcDbCircle
 10
186.3015223018999222
 20
155.8499511045000077
 30
0.0
 40
40.0
100
AcDbArc
 50
286.9495159968000166
 51
293.8853271835000101
  0
ARC
  5
12F
100
AcDbEntity
  8
0
 62
256
370
-1
  6
CONTINUOUS
100
AcDbCircle
 10
120.0
 20
120.0
 30
0.0
 40
82.5010000000000048
100
AcDbArc
 50
359.4969385251000062
 51
0.5030614749
  0
ARC
  5
130
100
AcDbEntity
  8
0
 62
256
370
-1
  6
CONTINUOUS
100
AcDbCircle
 10
186.3015223018998938
 20
84.1500488953999621
 30
0.0
 40
40.0
100
AcDbArc
 50
66.1146728165000042
 51
73.0504840031999976
  0
ARC
  5
131
100
AcDbEntity
  8
0
 62
256
370
-1
  6
CONTINUOUS
100
AcDbCircle
 10
120.0
 20
120.0
 30
0.0
 40
78.0
100
AcDbArc
 50
1.7724328919000001
 51
2.7275671081000001
  0
ARC
  5
132
100
AcDbEntity
  8
0
 62
256
370
-1
  6
CONTINUOUS
100
AcDbCircle
 10
183.2843820901999834
 20
160.9413951548000057
 30
0.0
 40
40.0
100
AcDbArc
 50
291.4495159968000166
 51
298.3853271835000101
  0
ARC
  5
133
100
AcDbEntity
  8
0
 62
256
370
-1
  6
CONTINUOUS
100
AcDbCircle
 10
120.0
 20
120.0
 30
0.0
 40
82.5010000000000048
100
AcDbArc
 50
3.9969385251
 51
5.0030614749
  0
ARC
  5
134
100
AcDbEntity
  8
0
 62
256
370
-1
  6
CONTINUOUS
100
AcDbCircle
 10
188.9098915813000303
 20
89.4625198154999879
 30
0.0
 40
40.0
100
AcDbArc
 50
70.6146728165000042
 51
77.5504840031999976
  0
ARC
  5
135
100
AcDbEntity
  8
0
 62
256
370
-1
  6
CONTINUOUS
100
AcDbCircle
 10
120.0
 20
120.0
 30
0.0
 40
78.0
100
AcDbArc
 50
6.2724328919000003
 51
7.2275671080999988
  0
ARC
  5
136
100
AcDbEntity
  8
0
 62
256
370
-1
  6
CONTINUOUS
100
AcDbCircle
 10
179.877072618599982
 20
165.7804218894999906
 30
0.0
 40
40.0
100
AcDbArc
 50
295.9495159968000166
 51
302.8853271835000101
  0
ARC
  5
137
100
AcDbEntity
  8
0
 62
256
370
-1
  6
CONTINUOUS
100
AcDbCircle
 10
120.0
 20
120.0
 30
0.0
 40
82.5010000000000048
100
AcDbArc
 50
8.4969385250999991
 51
9.5030614749000009
  0
ARC
  5
138
100
AcDbEntity
  8
0
 62
256
370
-1
  6
CONTINUOUS
100
AcDbCircle
 10
191.0934084640999799
 20
94.963264455800001
 30
0.0
 40
40.0
100
AcDbArc
 50
75.1146728165000042
 51
82.0504840031999976
  0
ARC
  5
139
100
AcDbEntity
  8
0
 62
256
370
-1
  6
CONTINUOUS
100
AcDbCircle
 10
120.0
 20
120.0
 30
0.0
 40
78.0
100
AcDbArc
 50
10.7724328918999994
 51
11.7275671081000006
  0
ARC
  5
13A
100
AcDbEntity
  8
0
 62
256
370
-1
  6
CONTINUOUS
100
AcDbCircle
 10
176.1006010831999902
 20
170.3371970998000222
 30
0.0
 40
40.0
100
AcDbArc
 50
300.4495159968000166
 51
307.3853271835000101
  0
ARC
  5
13B
100
AcDbEntity
  8
0
 62
256
370
-1
  6
CONTINUOUS
100
AcDbCircle
 10
120.0
 20
120.0
 30
0.0
 40
82.5010000000000048
100
AcDbArc
 50
12.9969385250999991
 51
14.0030614749000009
  0
ARC
  5
13C
100
AcDbEntity
  8
0
 62
256
370
-1
  6
CONTINUOUS
100
AcDbCircle
 10
192.8386108427999943
 20
100.6183688961999678
 30
0.0
 40
40.0
100
AcDbArc
 50
79.6146728165000042
 51
86.5504840031999976
  0
ARC
  5
13D
100
AcDbEntity
  8
0
 62
256
370
-1
  6
CONTINUOUS
100
AcDbCircle
 10
120.0
 20
120.0
 30
0.0
 40
78.0
100
AcDbArc
 50
15.2724328919000012
 51
16.2275671081000006
  0
ARC
  5
13E
100
AcDbEntity
  8
0
 62
256
370
-1
  6
CONTINUOUS
100
AcDbCircle
 10
171.9782506866999938
 20
174.5836267510999846
 30
0.0
 40
40.0
100
AcDbArc
 50
304.9495159968000166
 51
311.8853271835000101
  0
ARC
  5
13F
100
AcDbEntity
  8
0
 62
256
370
-1
  6
CONTINUOUS
100
AcDbCircle
 10
120.0
 20
120.0
 30
0.0
 40
82.5010000000000048
100
AcDbArc
 50
17.4969385250999991
 51
18.5030614749000009
  0
ARC
  5
140
100
AcDbEntity
  8
0
 62
256
370
-1
  6
CONTINUOUS
100
AcDbCircle
 10
194.1347389643999577
 20
106.3929675374000681
 30
0.0
 40
40.0
100
AcDbArc
 50
84.1146728165000042
 51
91.0504840031999976
  0
ARC
  5
141
100
AcDbEntity
  8
0
 62
256
370
-1
  6
CONTINUOUS
100
AcDbCircle
 10
120.0
 20
120.0
 30
0.0
 40
78.0
100
AcDbArc
 50
19.7724328918999994
 51
20.7275671081000006
  0
ARC
  5
142
100
AcDbEntity
  8
0
 62
256
370
-1
  6
CONTINUOUS
100
AcDbCircle
 10
167.535437090299979
 20
178.4935301926000193
 30
0.0
 40
40.0
100
AcDbArc
 50
309.4495159968000166
 51
316.3853271835000101
  0
ARC
  5
143
100
AcDbEntity
  8
0
 62
256
370
-1
  6
CONTINUOUS
100
AcDbCircle
 10
120.0
 20
120.0
 30
0.0
 40
82.5010000000000048
100
AcDbArc
 50
21.9969385250999991
 51
23.0030614749000009
  0
ARC
  5
144
100
AcDbEntity
  8
0
 62
256
370
-1
  6
CONTINUOUS
100
AcDbCircle
 10
194.9738017678999995
 20
112.2514580585000061
 30
0.0
 40
40.0
100
AcDbArc
 50
88.6146728165000042
 51
95.5504840031999976
  0
ARC
  5
145
100
AcDbEntity
  8
0
 62
256
370
-1
  6
CONTINUOUS
100
AcDbCircle
 10
120.0
 20
120.0
 30
0.0
 40
78.0
100
AcDbArc
 50
24.2724328918999994
 51
25.2275671081000006
  0
ARC
  5
146
100
AcDbEntity
  8
0
 62
256
370
-1
  6
CONTINUOUS
100
AcDbCircle
 10
162.7995517171000301
 20
182.0428015693000248
 30
0.0
 40
40.0
100
AcDbArc
 50
313.9495159968000166
 51
320.8853271835000101
  0
ARC
  5
147
100
AcDbEntity
  8
0
 62
256
370
-1
  6
CONTINUOUS
100
AcDbCircle
 10
120.0
 20
120.0
 30
0.0
 40
82.5010000000000048
100
AcDbArc
 50
26.4969385250999991
 51
27.5030614749000009
  0
ARC
  5
148
100
AcDbEntity
  8
0
 62
256
370
-1
  6
CONTINUOUS
100
AcDbCircle
 10
195.3506261523000376
 20
118.1577209172998977
 30
0.0
 40
40.0
100
AcDbArc
 50
93.1146728165000042
 51
100.0504840031999976
  0
ARC
  5
149
100
AcDbEntity
  8
0
 62
256
370
-1
  6
CONTINUOUS
100
AcDbCircle
 10
120.0
 20
120.0
 30
0.0
 40
78.0
100
AcDbArc
 50
28.7724328918999994
 51
29.7275671081000006
  0
ARC
  5
14A
100
AcDbEntity
  8
0
 62
256
370
-1
  6
CONTINUOUS
100
AcDbCircle
 10
157.7997928751999552
 20
185.2095584430999793
 30
0.0
 40
40.0
100
AcDbArc
 50
318.4495159968000166
 51
325.3853271835000101
  0
ARC
  5
14B
100
AcDbEntity
  8
0
 62
256
370
-1
  6
CONTINUOUS
100
AcDbCircle
 10
120.0
 20
120.0
 30
0.0
 40
82.5010000000000048
100
AcDbArc
 50
30.9969385251000027
 51
32.0030614749000009
  0
ARC
  5
14C
100
AcDbEntity
  8
0
 62
256
370
-1
  6
CONTINUOUS
100
AcDbCircle
 10
195.2628888696999638
 20
124.0753420393000681
 30
0.0
 40
40.0
100
AcDbArc
 50
97.6146728165000042
 51
104.5504840031999976
  0
ARC
  5
14D
100
AcDbEntity
  8
0
 62
256
370
-1
  6
CONTINUOUS
100
AcDbCircle
 10
120.0
 20
120.0
 30
0.0
 40
78.0
100
AcDbArc
 50
33.272432891900003
 51
34.227567108099997
  0
ARC
  5
14E
100
AcDbEntity
  8
0
 62
256
370
-1
  6
CONTINUOUS
100
AcDbCircle
 10
152.5669857405000585
 20
187.9742767047000029
 30
0.0
 40
40.0
100
AcDbArc
 50
322.9495159968000166
 51
329.8853271835000101
  0
ARC
  5
14F
100
AcDbEntity
  8
0
 62
256
370
-1
  6
CONTINUOUS
100
AcDbCircle
 10
120.0
 20
120.0
 30
0.0
 40
82.5010000000000048
100
AcDbArc
 50
35.4969385250999991
 51
36.5030614749000009
  0
ARC
  5
150
100
AcDbEntity
  8
0
 62
256
370
-1
  6
CONTINUOUS
100
AcDbCircle
 10
194.7111308498999733
 20
129.967837322500003
 30
0.0
 40
40.0
100
AcDbArc
 50
102.1146728165000042
 51
109.0504840031999976
  0
ARC
  5
151
100
AcDbEntity
  8
0
 62
256
370
-1
  6
CONTINUOUS
100
AcDbCircle
 10
120.0
 20
120.0
 30
0.0
 40
78.0
100
AcDbArc
 50
37.772432891900003
 51
38.727567108099997
  0
ARC
  5
152
100
AcDbEntity
  8
0
 62
256
370
-1
  6
CONTINUOUS
100
AcDbCircle
 10
147.1333923091999623
 20
190.3199109467000198
 30
0.0
 40
40.0
100
AcDbArc
 50
327.4495159968000166
 51
334.3853271835000101
  0
ARC
  5
153
100
AcDbEntity
  8
0
 62
256
370
-1
  6
CONTINUOUS
100
AcDbCircle
 10
120.0
 20
120.0
 30
0.0
 40
82.5010000000000048
100
AcDbArc
 50
39.9969385250999991
 51
41.0030614749000009
  0
ARC
  5
154
100
AcDbEntity
  8
0
 62
256
370
-1
  6
CONTINUOUS
100
AcDbCircle
 10
193.6987538644000324
 20
135.7988775739000005
 30
0.0
 40
40.0
100
AcDbArc
 50
106.6146728165000042
 51
113.5504840031999976
  0
ARC
  5
155
100
AcDbEntity
  8
0
 62
256
370
-1
  6
CONTINUOUS
100
AcDbCircle
 10
120.0
 20
120.0
 30
0.0
 40
78.0
100
AcDbArc
 50
42.272432891900003
 51
43.227567108099997
  0
ARC
  5
156
100
AcDbEntity
  8
0
 62
256
370
-1
  6
CONTINUOUS
100
AcDbCircle
 10
141.5325124915000288
 20
192.2319995539000388
 30
0.0
 40
40.0
100
AcDbArc
 50
331.9495159968000166
 51
338.8853271835000101
  0
ARC
  5
157
100
AcDbEntity
  8
0
 62
256
370
-1
  6
CONTINUOUS
100
AcDbCircle
 10
120.0
 20
120.0
 30
0.0
 40
82.5010000000000048
100
AcDbArc
 50
44.4969385250999991
 51
45.5030614749000009
  0
ARC
  5
158
100
AcDbEntity
  8
0
 62
256
370
-1
  6
CONTINUOUS
100
AcDbCircle
 10
192.2319995538999819
 20
141.5325124914000412
 30
0.0
 40
40.0
100
AcDbArc
 50
111.1146728165000042
 51
118.0504840032000118
  0
ARC
  5
159
100
AcDbEntity
  8
0
 62
256
370
-1
  6
CONTINUOUS
100
AcDbCircle
 10
120.0
 20
120.0
 30
0.0
 40
78.0
100
AcDbArc
 50
46.772432891900003
 51
47.727567108099997
  0
ARC
  5
15A
100
AcDbEntity
  8
0
 62
256
370
-1
  6
CONTINUOUS
100
AcDbCircle
 10
135.798877573899972
 20
193.6987538643000448
 30
0.0
 40
40.0
100
AcDbArc
 50
336.4495159968000166
 51
343.3853271835000101
  0
ARC
  5
15B
100
AcDbEntity
  8
0
 62
256
370
-1
  6
CONTINUOUS
100
AcDbCircle
 10
120.0
 20
120.0
 30
0.0
 40
82.5010000000000048
100
AcDbArc
 50
48.9969385250999991
 51
50.0030614749000009
  0
ARC
  5
15C
100
AcDbEntity
  8
0
 62
256
370
-1
  6
CONTINUOUS
100
AcDbCircle
 10
190.3199109467000198
 20
147.1333923092000191
 30
0.0
 40
40.0
100
AcDbArc
 50
115.6146728165000042
 51
122.5504840032000118
  0
ARC
  5
15D
100
AcDbEntity
  8
0
 62
256
370
-1
  6
CONTINUOUS
100
AcDbCircle
 10
120.0
 20
120.0
 30
0.0
 40
78.0
100
AcDbArc
 50
51.272432891900003
 51
52.227567108099997
  0
ARC
  5
15E
100
AcDbEntity
  8
0
 62
256
370
-1
  6
CONTINUOUS
100
AcDbCircle
 10
129.9678373225000314
 20
194.7111308499000017
 30
0.0
 40
40.0
100
AcDbArc
 50
340.9495159968000166
 51
347.8853271835000101
  0
ARC
  5
15F
100
AcDbEntity
  8
0
 62
256
370
-1
  6
CONTINUOUS
100
AcDbCircle
 10
120.0
 20
120.0
 30
0.0
 40
82.5010000000000048
100
AcDbArc
 50
53.4969385250999991
 51
54.5030614749000009
  0
ARC
  5
160
100
AcDbEntity
  8
0
 62
256
370
-1
  6
CONTINUOUS
100
AcDbCircle
 10
187.9742767047000598
 20
152.56698574050003
 30
0.0
 40
40.0
100
AcDbArc
 50
120.1146728165000042
 51
127.0504840032000118
  0
ARC
  5
161
100
AcDbEntity
  8
0
 62
256
370
-1
  6
CONTINUOUS
100
AcDbCircle
 10
120.0
 20
120.0
 30
0.0
 40
78.0
100
AcDbArc
 50
55.772432891900003
 51
56.727567108099997
  0
ARC
  5
162
100
AcDbEntity
  8
0
 62
256
370
-1
  6
CONTINUOUS
100
AcDbCircle
 10
124.0753420393999704
 20
195.2628888697000207
 30
0.0
 40
40.0
100
AcDbArc
 50
345.4495159968000166
 51
352.3853271835000101
  0
ARC
  5
163
100
AcDbEntity
  8
0
 62
256
370
-1
  6
CONTINUOUS
100
AcDbCircle
 10
120.0
 20
120.0
 30
0.0
 40
82.5010000000000048
100
AcDbArc
 50
57.996938525099992
 51
59.0030614749000009
  0
ARC
  5
164
100
AcDbEntity
  8
0
 62
256
370
-1
  6
CONTINUOUS
100
AcDbCircle
 10
185.2095584430999224
 20
157.7997928752000121
 30
0.0
 40
40.0
100
AcDbArc
 50
124.6146728165000042
 51
131.5504840032000118
  0
ARC
  5
165
100
AcDbEntity
  8
0
 62
256
370
-1
  6
CONTINUOUS
100
AcDbCircle
 10
120.0
 20
120.0
 30
0.0
 40
78.0
100
AcDbArc
 50
60.272432891900003
 51
61.227567108099997
  0
ARC
  5
166
100
AcDbEntity
  8
0
 62
256
370
-1
  6
CONTINUOUS
100
AcDbCircle
 10
118.1577209173999705
 20
195.3506261522000216
 30
0.0
 40
40.0
100
AcDbArc
 50
349.9495159968000166
 51
356.8853271835000101
  0
ARC
  5
167
100
AcDbEntity
  8
0
 62
256
370
-1
  6
CONTINUOUS
100
AcDbCircle
 10
120.0
 20
120.0
 30
0.0
 40
82.5010000000000048
100
AcDbArc
 50
62.496938525099992
 51
63.5030614749000009
  0
ARC
  5
168
100
AcDbEntity
  8
0
 62
256
370
-1
  6
CONTINUOUS
100
AcDbCircle
 10
182.0428015694000123
 20
162.7995517170000142
 30
0.0
 40
40.0
100
AcDbArc
 50
129.1146728164999899
 51
136.0504840032000118
  0
ARC
  5
169
100
AcDbEntity
  8
0
 62
256
370
-1
  6
CONTINUOUS
100
AcDbCircle
 10
120.0
 20
120.0
 30
0.0
 40
78.0
100
AcDbArc
 50
64.7724328918999959
 51
65.7275671081000041
  0
ARC
  5
16A
100
AcDbEntity
  8
0
 62
256
370
-1
  6
CONTINUOUS
100
AcDbCircle
 10
112.2514580585000203
 20
194.9738017679000563
 30
0.0
 40
40.0
100
AcDbArc
 50
354.4495159968000166
 51
1.3853271835000001
  0
ARC
  5
16B
100
AcDbEntity
  8
0
 62
256
370
-1
  6
CONTINUOUS
100
AcDbCircle
 10
120.0
 20
120.0
 30
0.0
 40
82.5010000000000048
100
AcDbArc
 50
66.9969385251000062
 51
68.0030614748999938
  0
ARC
  5
16C
100
AcDbEntity
  8
0
 62
256
370
-1
  6
CONTINUOUS
100
AcDbCircle
 10
178.4935301926000193
 20
167.5354370903000074
 30
0.0
 40
40.0
100
AcDbArc
 50
133.6146728164999899
 51
140.5504840032000118
  0
ARC
  5
16D
100
AcDbEntity
  8
0
 62
256
370
-1
  6
CONTINUOUS
100
AcDbCircle
 10
120.0
 20
120.0
 30
0.0
 40
78.0
100
AcDbArc
 50
69.2724328918999959
 51
70.2275671081000041
  0
ARC
  5
16E
100
AcDbEntity
  8
0
 62
256
370
-1
  6
CONTINUOUS
100
AcDbCircle
 10
106.3929675373999544
 20
194.1347389644000145
 30
0.0
 40
40.0
100
AcDbArc
 50
358.9495159968000166
 51
5.8853271835000003
  0
ARC
  5
16F
100
AcDbEntity
  8
0
 62
256
370
-1
  6
CONTINUOUS
100
AcDbCircle
 10
120.0
 20
120.0
 30
0.0
 40
82.5010000000000048
100
AcDbArc
 50
71.4969385251000062
 51
72.5030614748999938
  0
ARC
  5
170
100
AcDbEntity
  8
0
 62
256
370
-1
  6
CONTINUOUS
100
AcDbCircle
 10
174.5836267511000415
 20
171.9782506867000222
 30
0.0
 40
40.0
100
AcDbArc
 50
138.1146728164999899
 51
145.0504840032000118
  0
ARC
  5
171
100
AcDbEntity
  8
0
 62
256
370
-1
  6
CONTINUOUS
100
AcDbCircle
 10
120.0
 20
120.0
 30
0.0
 40
78.0
100
AcDbArc
 50
73.7724328918999959
 51
74.7275671081000041
  0
ARC
  5
172
100
AcDbEntity
  8
0
 62
256
370
-1
  6
CONTINUOUS
100
AcDbCircle
 10
100.6183688961999678
 20
192.8386108428000227
 30
0.0
 40
40.0
100
AcDbArc
 50
3.4495159968000002
 51
10.3853271834999994
  0
ARC
  5
173
100
AcDbEntity
  8
0
 62
256
370
-1
  6
CONTINUOUS
100
AcDbCircle
 10
120.0
 20
120.0
 30
0.0
 40
82.5010000000000048
100
AcDbArc
 50
75.9969385251000062
 51
77.0030614748999938
  0
ARC
  5
174
100
AcDbEntity
  8
0
 62
256
370
-1
  6
CONTINUOUS
100
AcDbCircle
 10
170.3371970998000506
 20
176.1006010831000026
 30
0.0
 40
40.0
100
AcDbArc
 50
142.6146728164999899
 51
149.5504840032000118
  0
ARC
  5
175
100
AcDbEntity
  8
0
 62
256
370
-1
  6
CONTINUOUS
100
AcDbCircle
 10
120.0
 20
120.0
 30
0.0
 40
78.0
100
AcDbArc
 50
78.2724328918999959
 51
79.2275671081000041
  0
ARC
  5
176
100
AcDbEntity
  8
0
 62
256
370
-1
  6
CONTINUOUS
100
AcDbCircle
 10
94.9632644557999583
 20
191.0934084641000368
 30
0.0
 40
40.0
100
AcDbArc
 50
7.9495159968000007
 51
14.8853271834999976
  0
ARC
  5
177
100
AcDbEntity
  8
0
 62
256
370
-1
  6
CONTINUOUS
100
AcDbCircle
 10
120.0
 20
120.0
 30
0.0
 40
82.5010000000000048
100
AcDbArc
 50
80.4969385251000062
 51
81.5030614748999938
  0
ARC
  5
178
100
AcDbEntity
  8
0
 62
256
370
-1
  6
CONTINUOUS
100
AcDbCircle
 10
165.7804218894999622
 20
179.8770726186000104
 30
0.0
 40
40.0
100
AcDbArc
 50
147.1146728164999899
 51
154.0504840032000118
  0
ARC
  5
179
100
AcDbEntity
  8
0
 62
256
370
-1
  6
CONTINUOUS
100
AcDbCircle
 10
120.0
 20
120.0
 30
0.0
 40
78.0
100
AcDbArc
 50
82.7724328918999959
 51
83.7275671081000041
  0
ARC
  5
17A
100
AcDbEntity
  8
0
 62
256
370
-1
  6
CONTINUOUS
100
AcDbCircle
 10
89.4625198155999897
 20
188.9098915812000143
 30
0.0
 40
40.0
100
AcDbArc
 50
12.4495159968000007
 51
19.3853271834999994
  0
ARC
  5
17B
100
AcDbEntity
  8
0
 62
256
370
-1
  6
CONTINUOUS
100
AcDbCircle
 10
120.0
 20
120.0
 30
0.0
 40
82.5010000000000048
100
AcDbArc
 50
84.9969385251000062
 51
86.0030614748999938
  0
ARC
  5
17C
100
AcDbEntity
  8
0
 62
256
370
-1
  6
CONTINUOUS
100
AcDbCircle
 10
160.9413951547999204
 20
183.2843820900999958
 30
0.0
 40
40.0
100
AcDbArc
 50
151.6146728164999899
 51
158.5504840032000118
  0
ARC
  5
17D
100
AcDbEntity
  8
0
 62
256
370
-1
  6
CONTINUOUS
100
AcDbCircle
 10
120.0
 20
120.0
 30
0.0
 40
78.0
100
AcDbArc
 50
87.2724328918999959
 51
88.2275671081000041
  0
ARC
  5
17E
100
AcDbEntity
  8
0
 62
256
370
-1
  6
CONTINUOUS
100
AcDbCircle
 10
84.1500488954000048
 20
186.3015223019000359
 30
0.0
 40
40.0
100
AcDbArc
 50
16.9495159967999989
 51
23.8853271834999994
  0
ARC
  5
17F
100
AcDbEntity
  8
0
 62
256
370
-1
  6
CONTINUOUS
100
AcDbCircle
 10
120.0
 20
120.0
 30
0.0
 40
82.5010000000000048
100
AcDbArc
 50
89.4969385251000062
 51
90.5030614748999938
  0
ARC
  5
180
100
AcDbEntity
  8
0
 62
256
370
-1
  6
CONTINUOUS
100
AcDbCircle
 10
155.8499511045999952
 20
186.3015223019000359
 30
0.0
 40
40.0
100
AcDbArc
 50
156.1146728164999899
 51
163.0504840032000118
  0
ARC
  5
181
100
AcDbEntity
  8
0
 62
256
370
-1
  6
CONTINUOUS
100
AcDbCircle
 10
79.0586048451999659
 20
183.2843820901000242
 30
0.0
 40
40.0
100
AcDbArc
 50
21.4495159967999989
 51
28.3853271834999994
  0
ARC
  5
182
100
AcDbEntity
  8
0
 62
256
370
-1
  6
CONTINUOUS
100
AcDbCircle
 10
157.7997928751998984
 20
54.7904415567999905
 30
0.0
 40
40.0
100
AcDbArc
 50
34.6146728164999971
 51
41.5504840031999976
  0
ARC
  5
183
100
AcDbEntity
  8
0
 62
256
370
-1
  6
CONTINUOUS
100
AcDbCircle
 10
120.0
 20
120.0
 30
0.0
 40
78.0
100
AcDbArc
 50
96.2724328918999959
 51
97.2275671081000041
  0
ARC
  5
184
100
AcDbEntity
  8
0
 62
256
370
-1
  6
CONTINUOUS
100
AcDbCircle
 10
120.0
 20
120.0
 30
0.0
 40
78.0
100
AcDbArc
 50
91.7724328918999959
 51
92.7275671081000041
  0
CIRCLE
  5
185
100
AcDbEntity
100
AcDbCircle
  8
0
 62
256
370
-1
  6
ByLayer
 10
10.5
 20
120.0000000000000142
 30
0.0
 40
2.5
  0
CIRCLE
  5
186
100
AcDbEntity
100
AcDbCircle
  8
0
 62
256
370
-1
  6
ByLayer
 10
86.1626391159432359
 20
15.8593114656806762
 30
0.0
 40
2.5
  0
CIRCLE
  5
187
100
AcDbEntity
100
AcDbCircle
  8
0
 62
256
370
-1
  6
ByLayer
 10
208.5873608840566931
 20
55.6375148739741974
 30
0.0
 40
2.5
  0
CIRCLE
  5
188
100
AcDbEntity
100
AcDbCircle
  8
0
 62
256
370
-1
  6
ByLayer
 10
208.5873608840568068
 20
184.3624851260258026
 30
0.0
 40
2.5
  0
CIRCLE
  5
189
100
AcDbEntity
100
AcDbCircle
  8
0
 62
256
370
-1
  6
ByLayer
 10
86.1626391159433069
 20
224.140688534319338
 30
0.0
 40
2.5
  0
CIRCLE
  5
18A
100
AcDbEntity
100
AcDbCircle
  8
0
 62
256
370
-1
  6
ByLayer
 10
100.0
 20
146.0000000000000284
 30
0.0
 40
6.0
  0
CIRCLE
  5
18B
100
AcDbEntity
100
AcDbCircle
  8
0
 62
256
370
-1
  6
ByLayer
 10
100.0
 20
132.0000000000000284
 30
0.0
 40
6.0
  0
CIRCLE
  5
18C
100
AcDbEntity
100
AcDbCircle
  8
0
 62
256
370
-1
  6
ByLayer
 10
100.0
 20
118.0000000000001421
 30
0.0
 40
6.0
  0
CIRCLE
  5
18D
100
AcDbEntity
100
AcDbCircle
  8
0
 62
256
370
-1
  6
ByLayer
 10
100.0
 20
104.0
 30
0.0
 40
6.0
  0
CIRCLE
  5
18E
100
AcDbEntity
100
AcDbCircle
  8
0
 62
256
370
-1
  6
ByLayer
 10
100.0
 20
90.0
 30
0.0
 40
6.0
  0
CIRCLE
  5
18F
100
AcDbEntity
100
AcDbCircle
  8
0
 62
256
370
-1
  6
ByLayer
 10
114.0
 20
146.0000000000000284
 30
0.0
 40
6.0
  0
CIRCLE
  5
190
100
AcDbEntity
100
AcDbCircle
  8
0
 62
256
370
-1
  6
ByLayer
 10
114.0
 20
132.0000000000000284
 30
0.0
 40
6.0
  0
CIRCLE
  5
191
100
AcDbEntity
100
AcDbCircle
  8
0
 62
256
370
-1
  6
ByLayer
 10
114.0
 20
118.0000000000000284
 30
0.0
 40
6.0
  0
CIRCLE
  5
192
100
AcDbEntity
100
AcDbCircle
  8
0
 62
256
370
-1
  6
ByLayer
 10
114.0
 20
104.0000000000000142
 30
0.0
 40
6.0
  0
CIRCLE
  5
193
100
AcDbEntity
100
AcDbCircle
  8
0
 62
256
370
-1
  6
ByLayer
 10
114.0
 20
90.0
 30
0.0
 40
6.0
  0
CIRCLE
  5
194
100
AcDbEntity
100
AcDbCircle
  8
0
 62
256
370
-1
  6
ByLayer
 10
100.0
 20
146.0000000000000284
 30
0.0
 40
1.5
  0
CIRCLE
  5
195
100
AcDbEntity
100
AcDbCircle
  8
0
 62
256
370
-1
  6
ByLayer
 10
114.0
 20
146.0000000000000284
 30
0.0
 40
1.5
  0
CIRCLE
  5
196
100
AcDbEntity
100
AcDbCircle
  8
0
 62
256
370
-1
  6
ByLayer
 10
100.0
 20
132.0000000000000284
 30
0.0
 40
1.5
  0
CIRCLE
  5
197
100
AcDbEntity
100
AcDbCircle
  8
0
 62
256
370
-1
  6
ByLayer
 10
114.0
 20
132.0000000000000284
 30
0.0
 40
1.5
  0
CIRCLE
  5
198
100
AcDbEntity
100
AcDbCircle
  8
0
 62
256
370
-1
  6
ByLayer
 10
100.0
 20
118.0000000000000284
 30
0.0
 40
1.5
  0
CIRCLE
  5
199
100
AcDbEntity
100
AcDbCircle
  8
0
 62
256
370
-1
  6
ByLayer
 10
114.0
 20
118.0000000000000284
 30
0.0
 40
1.5
  0
CIRCLE
  5
19A
100
AcDbEntity
100
AcDbCircle
  8
0
 62
256
370
-1
  6
ByLayer
 10
100.0
 20
104.0000000000000284
 30
0.0
 40
1.5
  0
CIRCLE
  5
19B
100
AcDbEntity
100
AcDbCircle
  8
0
 62
256
370
-1
  6
ByLayer
 10
114.0
 20
104.0000000000000284
 30
0.0
 40
1.5
  0
CIRCLE
  5
19C
100
AcDbEntity
100
AcDbCircle
  8
0
 62
256
370
-1
  6
ByLayer
 10
100.0
 20
90.0000000000000284
 30
0.0
 40
1.5
  0
CIRCLE
  5
19D
100
AcDbEntity
100
AcDbCircle
  8
0
 62
256
370
-1
  6
ByLayer
 10
114.0
 20
90.0000000000000284
 30
0.0
 40
1.5
  0
LINE
  5
19E
100
AcDbEntity
100
AcDbLine
  8
0
 62
256
370
-1
  6
ByLayer
 10
257.1066205908730353
 20
126.9999999999999858
 30
0.0
 11
257.1066205908730353
 21
113.0000000000000142
 31
0.0
  0
CIRCLE
  5
19F
100
AcDbEntity
100
AcDbCircle
  8
0
 62
256
370
-1
  6
ByLayer
 10
251.1066205908730353
 20
120.0
 30
0.0
 40
2.5000000000000284
  0
LINE
  5
1A0
100
AcDbEntity
100
AcDbLine
  8
0
 62
256
370
-1
  6
ByLayer
 10
244.8038460945815586
 20
127.0000000000000853
 30
0.0
 11
257.1066205908730353
 21
126.9999999999999858
 31
0.0
  0
LINE
  5
1A1
100
AcDbEntity
100
AcDbLine
  8
0
 62
256
370
-1
  6
ByLayer
 10
257.1066205908730353
 20
113.0000000000000142
 30
0.0
 11
244.8038460945815586
 21
112.9999999999999005
 31
0.0
  0
LINE
  5
1A2
100
AcDbEntity
100
AcDbLine
  8
0
 62
256
370
-1
  6
ByLayer
 10
45.3845118780725443
 20
235.2378164587307197
 30
0.0
 11
57.5088675310544772
 21
242.237816458730606
 31
0.0
  0
CIRCLE
  5
1A3
100
AcDbEntity
100
AcDbCircle
  8
0
 62
256
370
-1
  6
ByLayer
 10
54.4466897045634823
 20
233.5416640360240308
 30
0.0
 40
2.5000000000000284
  0
LINE
  5
1A4
100
AcDbEntity
100
AcDbLine
  8
0
 62
256
370
-1
  6
ByLayer
 10
51.5358991262182826
 20
224.5833012079110063
 30
0.0
 11
45.3845118780725443
 21
235.2378164587307197
 31
0.0
  0
LINE
  5
1A5
100
AcDbEntity
100
AcDbLine
  8
0
 62
256
370
-1
  6
ByLayer
 10
57.5088675310544772
 20
242.237816458730606
 30
0.0
 11
63.6602547792002156
 21
231.5833012079108926
 31
0.0
  0
LINE
  5
1A6
100
AcDbEntity
100
AcDbLine
  8
0
 62
256
370
-1
  6
ByLayer
 10
57.5088675310543067
 20
-2.2378164587304923
 30
0.0
 11
45.3845118780723169
 21
4.7621835412694367
 31
0.0
  0
CIRCLE
  5
1A7
100
AcDbEntity
100
AcDbCircle
  8
0
 62
256
370
-1
  6
ByLayer
 10
54.4466897045634255
 20
6.4583359639760403
 30
0.0
 40
2.5000000000000284
  0
LINE
  5
1A8
100
AcDbEntity
100
AcDbLine
  8
0
 62
256
370
-1
  6
ByLayer
 10
63.6602547792001019
 20
8.4166987920891643
 30
0.0
 11
57.5088675310543067
 21
-2.2378164587304923
 31
0.0
  0
LINE
  5
1A9
100
AcDbEntity
100
AcDbLine
  8
0
 62
256
370
-1
  6
ByLayer
 10
45.3845118780723169
 20
4.7621835412694367
 30
0.0
 11
51.5358991262181689
 21
15.416698792089079
 31
0.0
  0
ARC
  5
1AA
100
AcDbEntity
  8
0
 62
256
370
-1
  6
ByLayer
100
AcDbCircle
 10
120.0
 20
120.0
 30
0.0
 40
125.0
100
AcDbArc
 50
3.2102430330243106
 51
116.7897569669757019
  0
ARC
  5
1AB
100
AcDbEntity
  8
0
 62
256
370
-1
  6
ByLayer
100
AcDbCircle
 10
120.0
 20
120.0
 30
0.0
 40
125.0
100
AcDbArc
 50
123.2102430330242981
 51
236.7897569669756876
  0
ARC
  5
1AC
100
AcDbEntity
  8
0
 62
256
370
-1
  6
ByLayer
100
AcDbCircle
 10
120.0
 20
120.0
 30
0.0
 40
125.0
100
AcDbArc
 50
243.2102430330242839
 51
356.7897569669756876
  0
LINE
  5
1AD
100
AcDbEntity
100
AcDbLine
  8
0
 62
256
370
-1
  6
ByLayer
 10
280.1066205908730353
 20
127.0000000000000853
 30
0.0
 11
280.1066205908730353
 21
112.9999999999999005
 31
0.0
  0
CIRCLE
  5
1AE
100
AcDbEntity
100
AcDbCircle
  8
0
 62
256
370
-1
  6
ByLayer
 10
274.1066205908730353
 20
120.0
 30
0.0
 40
2.5000000000000284
  0
LINE
  5
1AF
100
AcDbEntity
100
AcDbLine
  8
0
 62
256
370
-1
  6
ByLayer
 10
267.8038460945815586
 20
126.9999999999999005
 30
0.0
 11
280.1066205908730353
 21
127.0000000000000853
 31
0.0
  0
LINE
  5
1B0
100
AcDbEntity
100
AcDbLine
  8
0
 62
256
370
-1
  6
ByLayer
 10
280.1066205908730353
 20
112.9999999999999005
 30
0.0
 11
267.8038460945815586
 21
113.0000000000000711
 31
0.0
  0
ARC
  5
1B1
100
AcDbEntity
  8
0
 62
256
370
-1
  6
ByLayer
100
AcDbCircle
 10
203.0
 20
223.9230484541326405
 30
0.0
 40
2.5
100
AcDbArc
 50
240.0000000000001421
 51
59.999996805471639
  0
ARC
  5
1B2
100
AcDbEntity
  8
0
 62
256
370
-1
  6
ByLayer
100
AcDbCircle
 10
200.5
 20
219.5929214352104282
 30
0.0
 40
2.5
100
AcDbArc
 50
60.0000000000001066
 51
150.6227924760659107
  0
ARC
  5
1B3
100
AcDbEntity
  8
0
 62
256
370
-1
  6
ByLayer
100
AcDbCircle
 10
205.5
 20
228.2531754730548528
 30
0.0
 40
2.5
100
AcDbArc
 50
150.5729673448570054
 51
240.0000031945282899
  0
ARC
  5
1B4
100
AcDbEntity
  8
0
 62
256
370
-1
  6
ByLayer
100
AcDbCircle
 10
202.9999999999999432
 20
16.0769515458673453
 30
0.0
 40
2.5
100
AcDbArc
 50
120.0000000000001421
 51
299.9999968054716533
  0
ARC
  5
1B5
100
AcDbEntity
  8
0
 62
256
370
-1
  6
ByLayer
100
AcDbCircle
 10
200.4999999999999432
 20
20.4070785647895576
 30
0.0
 40
2.5
100
AcDbArc
 50
300.0000000000001137
 51
30.6227924760659072
  0
ARC
  5
1B6
100
AcDbEntity
  8
0
 62
256
370
-1
  6
ByLayer
100
AcDbCircle
 10
205.5000000000000568
 20
11.7468245269452041
 30
0.0
 40
2.5
100
AcDbArc
 50
30.5729673448570196
 51
120.0000031945283041
  0
ARC
  5
1B7
100
AcDbEntity
  8
0
 62
256
370
-1
  6
ByLayer
100
AcDbCircle
 10
143.0
 20
120.0
 30
0.0
 40
125.0
100
AcDbArc
 50
3.2102430330243106
 51
61.1459346897143021
  0
ARC
  5
1B8
100
AcDbEntity
  8
0
 62
256
370
-1
  6
ByLayer
100
AcDbCircle
 10
143.0
 20
120.0
 30
0.0
 40
115.0
100
AcDbArc
 50
301.2455849521325604
 51
61.2455849521324538
  0
ARC
  5
1B9
100
AcDbEntity
  8
0
 62
256
370
-1
  6
ByLayer
100
AcDbCircle
 10
143.0
 20
120.0
 30
0.0
 40
125.0
100
AcDbArc
 50
301.145934689714295
 51
356.7897569669756876
  0
LINE
  5
1BA
100
AcDbEntity
100
AcDbLine
  8
0
 62
256
370
-1
  6
ByLayer
 10
303.1066205908730353
 20
126.9999999999995737
 30
0.0
 11
303.1066205908730353
 21
113.0000000000003695
 31
0.0
  0
CIRCLE
  5
1BB
100
AcDbEntity
100
AcDbCircle
  8
0
 62
256
370
-1
  6
ByLayer
 10
297.1066205908730353
 20
120.0
 30
0.0
 40
2.5000000000000284
  0
LINE
  5
1BC
100
AcDbEntity
100
AcDbLine
  8
0
 62
256
370
-1
  6
ByLayer
 10
290.8038460945815586
 20
127.0000000000000284
 30
0.0
 11
303.1066205908730353
 21
126.9999999999995737
 31
0.0
  0
LINE
  5
1BD
100
AcDbEntity
100
AcDbLine
  8
0
 62
256
370
-1
  6
ByLayer
 10
303.1066205908730353
 20
113.0000000000003695
 30
0.0
 11
290.8038460945815586
 21
112.9999999999999858
 31
0.0
  0
ARC
  5
1BE
100
AcDbEntity
  8
0
 62
256
370
-1
  6
ByLayer
100
AcDbCircle
 10
226.0
 20
223.9230484541326405
 30
0.0
 40
2.5
100
AcDbArc
 50
240.0000000000001421
 51
59.999996805471639
  0
ARC
  5
1BF
100
AcDbEntity
  8
0
 62
256
370
-1
  6
ByLayer
100
AcDbCircle
 10
223.5
 20
219.5929214352104282
 30
0.0
 40
2.5
100
AcDbArc
 50
60.0000000000001066
 51
150.6227924760659107
  0
ARC
  5
1C0
100
AcDbEntity
  8
0
 62
256
370
-1
  6
ByLayer
100
AcDbCircle
 10
228.5
 20
228.2531754730548528
 30
0.0
 40
2.5
100
AcDbArc
 50
150.5729673448570054
 51
240.0000031945282899
  0
ARC
  5
1C1
100
AcDbEntity
  8
0
 62
256
370
-1
  6
ByLayer
100
AcDbCircle
 10
226.0
 20
16.0769515458673453
 30
0.0
 40
2.5
100
AcDbArc
 50
120.0000000000001421
 51
299.9999968054716533
  0
ARC
  5
1C2
100
AcDbEntity
  8
0
 62
256
370
-1
  6
ByLayer
100
AcDbCircle
 10
223.4999999999999432
 20
20.407078564789515
 30
0.0
 40
2.5
100
AcDbArc
 50
300.0000000000001137
 51
30.6227924760659072
  0
ARC
  5
1C3
100
AcDbEntity
  8
0
 62
256
370
-1
  6
ByLayer
100
AcDbCircle
 10
228.4999999999999432
 20
11.7468245269451472
 30
0.0
 40
2.5
100
AcDbArc
 50
30.5729673448570196
 51
120.0000031945283041
  0
ARC
  5
1C4
100
AcDbEntity
  8
0
 62
256
370
-1
  6
ByLayer
100
AcDbCircle
 10
166.0
 20
120.0
 30
0.0
 40
125.0
100
AcDbArc
 50
3.2102430330243106
 51
61.1459346897143021
  0
ARC
  5
1C5
100
AcDbEntity
  8
0
 62
256
370
-1
  6
ByLayer
100
AcDbCircle
 10
166.0
 20
120.0
 30
0.0
 40
115.0
100
AcDbArc
 50
301.2455849521325604
 51
61.2455849521324538
  0
ARC
  5
1C6
100
AcDbEntity
  8
0
 62
256
370
-1
  6
ByLayer
100
AcDbCircle
 10
166.0
 20
120.0
 30
0.0
 40
125.0
100
AcDbArc
 50
301.145934689714295
 51
356.7897569669756876
  0
LINE
  5
1C7
100
AcDbEntity
100
AcDbLine
  8
0
 62
256
370
-1
  6
ByLayer
 10
326.1066205908730353
 20
127.0000000000002558
 30
0.0
 11
326.1066205908730353
 21
112.9999999999997726
 31
0.0
  0
CIRCLE
  5
1C8
100
AcDbEntity
100
AcDbCircle
  8
0
 62
256
370
-1
  6
ByLayer
 10
320.1066205908730353
 20
120.0
 30
0.0
 40
2.5000000000000284
  0
LINE
  5
1C9
100
AcDbEntity
100
AcDbLine
  8
0
 62
256
370
-1
  6
ByLayer
 10
313.8038460945815586
 20
126.9999999999998863
 30
0.0
 11
326.1066205908730353
 21
127.0000000000002558
 31
0.0
  0
LINE
  5
1CA
100
AcDbEntity
100
AcDbLine
  8
0
 62
256
370
-1
  6
ByLayer
 10
326.1066205908730353
 20
112.9999999999997726
 30
0.0
 11
313.8038460945815586
 21
113.0000000000000711
 31
0.0
  0
ARC
  5
1CB
100
AcDbEntity
  8
0
 62
256
370
-1
  6
ByLayer
100
AcDbCircle
 10
249.0
 20
223.9230484541326405
 30
0.0
 40
2.5
100
AcDbArc
 50
240.0000000000001421
 51
59.999996805471639
  0
ARC
  5
1CC
100
AcDbEntity
  8
0
 62
256
370
-1
  6
ByLayer
100
AcDbCircle
 10
246.5
 20
219.5929214352104282
 30
0.0
 40
2.5
100
AcDbArc
 50
60.0000000000001066
 51
150.6227924760659107
  0
ARC
  5
1CD
100
AcDbEntity
  8
0
 62
256
370
-1
  6
ByLayer
100
AcDbCircle
 10
251.5
 20
228.2531754730548528
 30
0.0
 40
2.5
100
AcDbArc
 50
150.5729673448570054
 51
240.0000031945282899
  0
ARC
  5
1CE
100
AcDbEntity
  8
0
 62
256
370
-1
  6
ByLayer
100
AcDbCircle
 10
249.0
 20
16.0769515458673737
 30
0.0
 40
2.5
100
AcDbArc
 50
120.0000000000001421
 51
299.9999968054716533
  0
ARC
  5
1CF
100
AcDbEntity
  8
0
 62
256
370
-1
  6
ByLayer
100
AcDbCircle
 10
246.5
 20
20.4070785647895576
 30
0.0
 40
2.5
100
AcDbArc
 50
300.0000000000001137
 51
30.6227924760659072
  0
ARC
  5
1D0
100
AcDbEntity
  8
0
 62
256
370
-1
  6
ByLayer
100
AcDbCircle
 10
251.4999999999999432
 20
11.7468245269451614
 30
0.0
 40
2.5
100
AcDbArc
 50
30.5729673448570196
 51
120.0000031945283041
  0
ARC
  5
1D1
100
AcDbEntity
  8
0
 62
256
370
-1
  6
ByLayer
100
AcDbCircle
 10
189.0
 20
120.0
 30
0.0
 40
125.0
100
AcDbArc
 50
3.2102430330243106
 51
61.1459346897143021
  0
ARC
  5
1D2
100
AcDbEntity
  8
0
 62
256
370
-1
  6
ByLayer
100
AcDbCircle
 10
189.0
 20
120.0
 30
0.0
 40
115.0
100
AcDbArc
 50
301.2455849521325604
 51
61.2455849521324538
  0
ARC
  5
1D3
100
AcDbEntity
  8
0
 62
256
370
-1
  6
ByLayer
100
AcDbCircle
 10
189.0
 20
120.0
 30
0.0
 40
125.0
100
AcDbArc
 50
301.145934689714295
 51
356.7897569669756876
  0
ENDSEC
  0
SECTION
  2
OBJECTS
  0
DICTIONARY
  5
C
100
AcDbDictionary
280
0
281
1
  3
ACAD_GROUP
350
D
  3
ACAD_LAYOUT
350
1A
  3
ACAD_MLINESTYLE
350
17
  3
ACAD_PLOTSETTINGS
350
19
  3
ACAD_PLOTSTYLENAME
350
E
  3
AcDbVariableDictionary
350
1D4
  0
DICTIONARY
  5
D
100
AcDbDictionary
280
0
281
1
  0
ACDBDICTIONARYWDFLT
  5
E
100
AcDbDictionary
281
1
  3
Normal
350
F
100
AcDbDictionaryWithDefault
340
F
  0
ACDBPLACEHOLDER
  5
F
  0
DICTIONARY
  5
17
100
AcDbDictionary
280
0
281
1
  3
Standard
350
18
  0
MLINESTYLE
  5
18
100
AcDbMlineStyle
  2
STANDARD
 70
0
  3

 62
256
 51
90.0
 52
90.0
 71
2
 49
0.5
 62
256
  6
BYLAYER
 49
-0.5
 62
256
  6
BYLAYER
  0
DICTIONARY
  5
19
100
AcDbDictionary
280
0
281
1
  0
DICTIONARY
  5
1A
100
AcDbDictionary
281
1
  3
Layout1
350
1E
  3
Layout2
350
26
  3
Model
350
22
  0
LAYOUT
  5
1E
100
AcDbPlotSettings
  1

  2
C:\Program Files\AutoCAD 2002\plotters\DWF ePlot (optimized for plotting).pc3
  4

  6

 40
0.0
 41
0.0
 42
0.0
 43
0.0
 44
0.0
 45
0.0
 46
0.0
 47
0.0
 48
0.0
 49
0.0
140
0.0
141
0.0
142
1.0
143
1.0
 70
688
 72
0
 73
0
 74
5
  7

 75
16
147
1.0
148
0.0
149
0.0
100
AcDbLayout
  1
Layout1
 70
1
 71
1
 10
0.0
 20
0.0
 11
420.0
 21
297.0
 12
0.0
 22
0.0
 32
0.0
 14
100000000000000000000.0
 24
100000000000000000000.0
 34
100000000000000000000.0
 15
-100000000000000000000.0
 25
-100000000000000000000.0
 35
-100000000000000000000.0
146
0.0
 13
0.0
 23
0.0
 33
0.0
 16
1.0
 26
0.0
 36
0.0
 17
0.0
 27
1.0
 37
0.0
 76
0
330
1B
  0
LAYOUT
  5
22
100
AcDbPlotSettings
  1

  2
C:\Program Files\AutoCAD 2002\plotters\DWF ePlot (optimized for plotting).pc3
  4

  6

 40
0.0
 41
0.0
 42
0.0
 43
0.0
 44
0.0
 45
0.0
 46
0.0
 47
0.0
 48
0.0
 49
0.0
140
0.0
141
0.0
142
1.0
143
1.0
 70
1712
 72
0
 73
0
 74
0
  7

 75
0
147
1.0
148
0.0
149
0.0
100
AcDbLayout
  1
Model
 70
1
 71
0
 10
0.0
 20
0.0
 11
12.0
 21
9.0
 12
0.0
 22
0.0
 32
0.0
 14
0.0
 24
0.0
 34
0.0
 15
0.0
 25
0.0
 35
0.0
146
0.0
 13
0.0
 23
0.0
 33
0.0
 16
1.0
 26
0.0
 36
0.0
 17
0.0
 27
1.0
 37
0.0
 76
0
330
1F
  0
LAYOUT
  5
26
100
AcDbPlotSettings
  1

  2
C:\Program Files\AutoCAD 2002\plotters\DWF ePlot (optimized for plotting).pc3
  4

  6

 40
0.0
 41
0.0
 42
0.0
 43
0.0
 44
0.0
 45
0.0
 46
0.0
 47
0.0
 48
0.0
 49
0.0
140
0.0
141
0.0
142
1.0
143
1.0
 70
688
 72
0
 73
0
 74
5
  7

 75
16
147
1.0
148
0.0
149
0.0
100
AcDbLayout
  1
Layout2
 70
1
 71
2
 10
0.0
 20
0.0
 11
12.0
 21
9.0
 12
0.0
 22
0.0
 32
0.0
 14
0.0
 24
0.0
 34
0.0
 15
0.0
 25
0.0
 35
0.0
146
0.0
 13
0.0
 23
0.0
 33
0.0
 16
1.0
 26
0.0
 36
0.0
 17
0.0
 27
1.0
 37
0.0
 76
0
330
23
  0
DICTIONARY
  5
1D4
100
AcDbDictionary
281
1
  3
DIMASSOC
350
1D6
  3
HIDETEXT
350
1D5
  0
DICTIONARYVAR
  5
1D5
100
DictionaryVariables
280
0
  1
2
  0
DICTIONARYVAR
  5
1D6
100
DictionaryVariables
280
0
  1
1
  0
ENDSEC
  0
EOF
